<svg width="856" height="582" viewBox="0 0 856 582" fill="none" xmlns="http://www.w3.org/2000/svg">
<g clip-path="url(#clip0_237_233)">
<path d="M519.741 326.238C521.2 326.238 522.599 326.817 523.63 327.848C524.662 328.88 525.241 330.279 525.241 331.737V384.944H630.741C632.2 384.944 633.599 385.523 634.63 386.555C635.662 387.586 636.241 388.985 636.241 390.444C636.241 391.902 635.662 393.301 634.63 394.333C633.599 395.364 632.2 395.944 630.741 395.944H525.241V579.944H514.241V331.737C514.241 330.279 514.821 328.88 515.852 327.848C516.884 326.817 518.283 326.238 519.741 326.238Z" fill="#E6E6E6"/>
<path d="M226.147 578.694L206.315 579.242C203.302 579.397 200.322 578.561 197.829 576.863C195.675 575.261 194.687 573.095 195.12 570.92L199.023 551.308C199.758 547.608 204.293 544.81 209.803 544.658L220.755 544.356C226.266 544.204 230.947 546.746 231.886 550.4L236.865 569.768C237.417 571.915 236.55 574.132 234.489 575.851C232.093 577.684 229.163 578.683 226.147 578.694Z" fill="#3F3D56"/>
<path d="M346.778 578.134L326.946 578.681C323.933 578.836 320.953 578.001 318.46 576.302C316.306 574.7 315.318 572.535 315.751 570.36L319.654 550.747C320.389 547.047 324.923 544.25 330.434 544.098L341.386 543.795C346.897 543.643 351.578 546.186 352.517 549.84L357.496 569.207C358.048 571.355 357.181 573.572 355.119 575.29C352.724 577.123 349.794 578.122 346.778 578.134Z" fill="#3F3D56"/>
<path d="M157.281 411.629C156.375 411.239 155.63 410.551 155.168 409.679C154.706 408.807 154.556 407.804 154.742 406.835C154.928 405.866 155.439 404.989 156.191 404.351C156.943 403.712 157.89 403.349 158.876 403.322L384.344 397.096C384.913 397.08 385.478 397.176 386.01 397.379C386.541 397.582 387.027 397.888 387.44 398.278C387.853 398.669 388.185 399.138 388.417 399.657C388.649 400.176 388.777 400.735 388.793 401.304V401.304C388.823 402.452 388.397 403.565 387.608 404.399C386.819 405.233 385.731 405.72 384.584 405.753L384.583 405.753L159.115 411.978C158.486 411.997 157.86 411.878 157.281 411.629Z" fill="#3F3D56"/>
<path d="M240.491 336.989L176.042 338.768L182.051 556.366L246.5 554.586L240.491 336.989Z" fill="#E6E6E6"/>
<path d="M242.126 333.079L229.737 366.828L229.748 520.587L244.844 524.916L242.126 333.079Z" fill="#CCCCCC"/>
<path d="M207.93 280.122C195.873 280.464 186.673 301.331 186.895 309.474L187.302 324.215L230.961 323.01L230.554 308.268C230.325 300.126 219.988 279.798 207.93 280.122Z" fill="#3F3D56"/>
<path d="M176.878 428.881C174.625 428.94 172.44 428.104 170.804 426.555C169.167 425.006 168.211 422.871 168.146 420.619L167.484 396.628C167.421 394.374 168.257 392.188 169.806 390.551C171.356 388.913 173.492 387.959 175.746 387.896C177.999 387.834 180.185 388.67 181.823 390.219C183.46 391.769 184.415 393.905 184.477 396.158L185.14 420.149C185.199 422.402 184.363 424.586 182.814 426.223C181.265 427.86 179.13 428.816 176.878 428.881Z" fill="#3F3D56"/>
<path d="M193.233 339.284L192.928 323.429L197.086 323.326L197.391 339.13L201.16 569.476L197.001 569.591" fill="#3F3D56"/>
<path d="M247.881 376.361L173.143 378.425C166.004 369.719 165.356 332.632 180.253 325.574L186.096 315.653L231.138 313.454L236.402 323.9C243.813 330.205 247.634 367.061 247.881 376.361Z" fill="#E6E6E6"/>
<path d="M219.751 358.573L200.851 359.095C197.203 359.196 194.103 354.464 193.939 348.549C193.776 342.634 196.611 337.738 200.258 337.637L219.158 337.115C222.805 337.015 225.906 341.746 226.069 347.662C226.233 353.577 223.398 358.473 219.751 358.573Z" fill="#FFA7AE"/>
<path d="M183.151 465.568L144.192 493.088L137.386 555.138L182.834 539.953L183.151 465.568Z" fill="#E6E6E6"/>
<path d="M364.901 334.324L300.452 336.103L306.461 553.701L370.91 551.921L364.901 334.324Z" fill="#E6E6E6"/>
<path d="M301.996 333.806L315.257 367.222L319.236 520.93L304.257 525.649L301.996 333.806Z" fill="#CCCCCC"/>
<path d="M397.132 273.911C401.797 273.911 405.579 268.84 405.579 262.584C405.579 256.328 401.797 251.256 397.132 251.256C392.467 251.256 388.685 256.328 388.685 262.584C388.685 268.84 392.467 273.911 397.132 273.911Z" fill="#E6E6E6"/>
<path d="M331.084 277.492C319.026 277.834 309.827 298.701 310.048 306.844L310.455 321.585L354.114 320.38L353.707 305.638C353.478 297.495 343.141 277.168 331.084 277.492Z" fill="#3F3D56"/>
<path d="M343.567 344.247L343.262 328.392L347.42 328.288L347.725 344.093L351.494 574.439L347.335 574.554" fill="#3F3D56"/>
<path d="M371.034 373.731L296.296 375.795C294.992 367.918 296.678 331.162 303.407 322.943L309.249 313.023L354.291 310.824L359.555 321.269C372.854 322.353 377.506 358.473 371.034 373.731Z" fill="#E6E6E6"/>
<path d="M342.995 359.254L324.095 359.776C320.448 359.877 317.326 354.402 317.138 347.574C316.949 340.746 319.764 335.108 323.411 335.007L342.311 334.485C345.958 334.385 349.079 339.859 349.268 346.687C349.456 353.515 346.642 359.153 342.995 359.254Z" fill="#FFA7AE"/>
<path d="M368.086 449.662L405.749 478.93L409.715 541.227L365.009 523.983L368.086 449.662Z" fill="#E6E6E6"/>
<path d="M357.568 161.121C317.155 161.121 270.711 116.275 229.619 137.582C105.204 202.096 122.33 94.1422 86.5869 53.9933L87.7604 51.6396C114.82 154.858 139.303 319.332 230.159 134.844C252.918 88.6305 327.614 160.064 371.583 157.957L371.659 160.786C367.015 161.01 362.318 161.122 357.568 161.121Z" fill="#F2F2F2"/>
<path d="M454.565 167.467C422.35 191.867 358.249 184.158 338.357 225.954C278.129 352.499 226.603 256.102 173.869 245.677L173.384 243.093C226.174 247.471 282.798 240.677 337.135 223.445C386.239 207.874 430.049 184.71 463.827 156.483L465.596 158.692C462.03 161.675 458.353 164.599 454.565 167.467Z" fill="#F2F2F2"/>
<path d="M104.132 161.911C108.797 161.911 112.579 156.84 112.579 150.584C112.579 144.328 108.797 139.256 104.132 139.256C99.4666 139.256 95.6846 144.328 95.6846 150.584C95.6846 156.84 99.4666 161.911 104.132 161.911Z" fill="#E6E6E6"/>
<path d="M366.132 69.9111C370.797 69.9111 374.579 64.8396 374.579 58.5836C374.579 52.3276 370.797 47.2561 366.132 47.2561C361.467 47.2561 357.685 52.3276 357.685 58.5836C357.685 64.8396 361.467 69.9111 366.132 69.9111Z" fill="#E6E6E6"/>
<path d="M181.47 207.629C177.608 210.202 173.656 204.078 177.592 201.619C181.454 199.046 185.406 205.17 181.47 207.629Z" fill="#E6E6E6"/>
<path d="M324.47 6.62918C320.608 9.20237 316.656 3.07794 320.592 0.619005C324.454 -1.95405 328.406 4.17039 324.47 6.62918Z" fill="#E6E6E6"/>
<path d="M408.749 125.801L406.292 125.262L406.83 122.804L405.192 122.445L404.653 124.903L402.196 124.365L401.837 126.003L404.294 126.542L403.756 128.999L405.394 129.358L405.933 126.9L408.39 127.439L408.749 125.801Z" fill="#E6E6E6"/>
<path d="M183.535 43.4395C189.446 43.4395 194.238 38.6479 194.238 32.7371C194.238 26.8264 189.446 22.0348 183.535 22.0348C177.625 22.0348 172.833 26.8264 172.833 32.7371C172.833 38.6479 177.625 43.4395 183.535 43.4395Z" fill="#FFA7AE"/>
<path d="M261.816 19.1905C249.759 19.5329 240.559 40.3996 240.78 48.5423L241.187 63.284L284.846 62.0784L284.439 47.3368C284.211 39.1942 273.874 18.867 261.816 19.1905Z" fill="#3F3D56"/>
<path d="M287.813 577.409L267.981 577.957C264.968 578.112 261.988 577.276 259.495 575.578C257.341 573.976 256.353 571.81 256.786 569.635L260.689 550.023C261.425 546.323 265.959 543.525 271.469 543.373L282.422 543.071C287.932 542.919 292.613 545.461 293.552 549.115L298.531 568.483C299.083 570.63 298.216 572.847 296.155 574.566C293.759 576.399 290.829 577.398 287.813 577.409Z" fill="#3F3D56"/>
<path d="M296.656 113.036L232.207 114.816L244.353 554.664L308.802 552.884L296.656 113.036Z" fill="#E6E6E6"/>
<path d="M270.868 325.949L270.562 310.094L274.721 309.991L275.026 325.795L278.795 556.141L274.635 556.256" fill="#3F3D56"/>
<path d="M309.345 153.292L222.019 155.703C220.497 146.5 222.466 103.553 230.328 93.9507L232.482 82.4887L292.779 80.8237L295.933 91.9947C304.592 99.3628 309.057 142.426 309.345 153.292Z" fill="#E6E6E6"/>
<path d="M294.685 82.1762L232.462 83.8944C230.165 83.9578 228.269 82.752 228.226 81.201C228.221 80.9776 228.253 80.7549 228.323 80.5425L237.988 50.7674C238.402 49.4924 240.049 48.556 241.972 48.5029L283.236 47.3635C285.159 47.3104 286.856 48.1544 287.34 49.4047L298.633 78.6011C299.21 80.0944 297.876 81.6483 295.653 82.0719C295.334 82.1325 295.01 82.1674 294.685 82.1762Z" fill="#E6E6E6"/>
<path d="M238.6 323.926C238.038 323.686 237.507 323.379 237.019 323.011C236.319 322.52 235.741 321.876 235.328 321.127C234.916 320.378 234.68 319.544 234.64 318.69L232.379 236.812C232.286 233.423 235.604 230.572 239.777 230.456L295.48 228.918C299.653 228.802 303.123 231.467 303.217 234.856L305.478 316.734C305.484 317.589 305.295 318.434 304.925 319.205C304.554 319.976 304.013 320.651 303.341 321.18C301.853 322.392 299.998 323.065 298.079 323.09L242.377 324.628C241.082 324.671 239.793 324.432 238.6 323.926Z" fill="#3F3D56"/>
<path d="M274.252 76.9068L255.352 77.4287C251.705 77.5294 248.621 73.4089 248.479 68.2445C248.336 63.0802 251.188 58.7957 254.835 58.695L273.735 58.1731C277.382 58.0724 280.466 62.193 280.609 67.3573C280.751 72.5216 277.9 76.8061 274.252 76.9068Z" fill="#FFA7AE"/>
<path d="M721.009 562.528H699.009V402.651C717.411 401.331 731.241 395.696 731.241 388.944C731.241 381.212 713.109 374.944 690.741 374.944C668.374 374.944 650.241 381.212 650.241 388.944C650.241 395.761 664.341 401.438 683.009 402.686V562.528H661.009C658.887 562.528 656.852 563.371 655.352 564.871C653.851 566.372 653.009 568.407 653.009 570.528C653.009 572.65 653.851 574.685 655.352 576.185C656.852 577.685 658.887 578.528 661.009 578.528H721.009C723.13 578.528 725.165 577.685 726.665 576.185C728.166 574.685 729.009 572.65 729.009 570.528C729.009 568.407 728.166 566.372 726.665 564.871C725.165 563.371 723.13 562.528 721.009 562.528Z" fill="#E6E6E6"/>
<path d="M676.847 481.363L669.62 489.238L635.806 465.112L646.471 453.489L676.847 481.363Z" fill="#A0616A"/>
<path d="M658.369 502.148C658.44 503.909 658.86 505.639 659.604 507.236C660.348 508.834 661.402 510.268 662.704 511.456L663.023 511.752L672.5 501.423L686.321 486.359L676.118 476.993L674.276 479.005L674.084 479.212L664.902 483.555L662.956 484.48L662.623 484.635L661.891 492.5V492.508C660.693 493.801 659.766 495.319 659.161 496.974C658.556 498.629 658.287 500.388 658.369 502.148Z" fill="#2F2E41"/>
<path d="M714.287 559.924L704.06 563.031L687.21 525.063L702.304 520.478L714.287 559.924Z" fill="#A0616A"/>
<path d="M686.802 578.643L686.927 579.064L719.903 569.047L715.878 555.796L713.274 556.587L713 556.669L700.741 555.544L700.378 555.515L695.739 561.914C692.336 562.948 689.482 565.291 687.806 568.428C686.13 571.565 685.769 575.239 686.801 578.643H686.802Z" fill="#2F2E41"/>
<path d="M629.957 361.128C629.957 361.128 564.663 424.17 605.941 443.684H618.699C621.472 434.669 625.735 426.183 631.311 418.576C632.516 416.999 637.032 417.319 638.286 415.782C645.943 406.395 654.244 398.334 659.977 398.654L658.605 442.212L656.386 457.749C655.22 465.781 688.113 535.91 688.113 535.91L708.787 527.785C708.787 527.785 687.247 470.023 686.995 461.696L704.257 370.134L629.957 361.128Z" fill="#2F2E41"/>
<path d="M624.513 364.237C624.845 364.712 625.28 365.106 625.785 365.391C626.617 365.862 627.519 366.196 628.456 366.383C643.157 369.72 691.182 376.637 703.648 373.338C705.18 372.938 706.179 372.376 706.504 371.636C707.548 369.298 707.414 359.421 706.8 347.494C706.689 345.26 704.226 342.84 704.078 340.502C703.974 338.749 706.186 337.099 706.068 335.316C705.254 323.256 704.203 310.967 703.501 303.198C703.057 298.204 702.753 295.082 702.753 295.082L710.337 247.265L709.982 246.68L709.582 246.48L685.13 234.376L683.798 230.973C683.412 229.993 682.741 229.151 681.872 228.556C681.003 227.962 679.975 227.641 678.922 227.636L662.815 227.57C661.98 227.565 661.155 227.76 660.41 228.138C659.665 228.517 659.021 229.067 658.532 229.745L654.166 235.789L625.312 254.286L625.423 254.626L638.962 295.829L639.029 299.04V299.048L639.532 324.869L638.134 328.369L639.709 334.11C639.709 334.11 638.984 340.82 635.1 345.807C631.578 350.335 627.095 355.056 625.067 358.888V358.895C623.943 361.012 623.566 362.846 624.513 364.237Z" fill="#FFA7AE"/>
<path d="M602.806 439.939L606.296 444.349C606.296 444.349 638.393 466.805 639.496 468.903L644.568 473.703L656.842 460.583L650.459 452.583C645.351 446.18 638.752 441.128 631.238 437.867L621.456 429.188L602.806 439.939Z" fill="#2F2E41"/>
<path d="M718.425 379.131L712.58 322.553L711.037 299.268L727.397 296.31C727.397 296.31 726.749 312.96 728.893 322.354C731.008 331.623 729.173 377.889 729.042 379.126C730.244 380.2 731.091 381.614 731.471 383.181C731.852 384.747 731.748 386.392 731.173 387.898C730.598 389.403 729.58 390.699 728.253 391.614C726.926 392.528 725.352 393.019 723.74 393.019C722.129 393.02 720.554 392.532 719.226 391.618C717.898 390.705 716.879 389.41 716.303 387.905C715.726 386.399 715.621 384.755 716 383.188C716.379 381.621 717.225 380.207 718.425 379.131V379.131Z" fill="#A0616A"/>
<path d="M698.942 293.447L703.5 303.198L705.091 306.594L709.374 329.027L711.513 331.299L713.355 338.631L714.221 338.453L729.832 335.22L734.382 334.28C735.407 332.571 735.811 330.561 735.526 328.589C735.24 326.616 734.282 324.803 732.813 323.456C732.503 323.175 732.244 322.901 732.251 322.642C732.51 307.038 731.556 278.546 722.936 266.819C720.199 263.098 718.556 259.391 716.166 256.802C716.159 256.794 716.159 256.787 716.152 256.787L710.336 247.265L709.981 246.68L709.582 246.48L698.942 293.447Z" fill="#FFA7AE"/>
<path d="M672.128 223.562C683.964 223.562 693.559 213.967 693.559 202.131C693.559 190.295 683.964 180.7 672.128 180.7C660.292 180.7 650.697 190.295 650.697 202.131C650.697 213.967 660.292 223.562 672.128 223.562Z" fill="#A0616A"/>
<path d="M697.575 197.52C698.203 193.918 698.692 189.25 696.894 185.099C695.374 181.607 691.574 178.332 687.349 178.774C687.549 177.985 687.527 177.157 687.285 176.38C687.042 175.603 686.589 174.909 685.976 174.375C684.601 173.295 682.997 172.541 681.288 172.17C677.317 171.003 673.204 169.793 668.957 169.771C664.19 169.745 659.966 171.378 657.376 174.257L657.313 174.35L656.537 176.204C656.433 176.452 656.276 176.676 656.078 176.858C655.88 177.041 655.644 177.178 655.388 177.261C655.131 177.346 654.858 177.373 654.59 177.34C654.321 177.307 654.063 177.215 653.834 177.071C653.583 176.916 653.296 176.83 653.001 176.82C652.706 176.811 652.414 176.878 652.154 177.016C651.893 177.154 651.673 177.358 651.515 177.607C651.357 177.856 651.267 178.142 651.254 178.437L651.212 179.228L650.1 178.784C649.821 178.672 649.517 178.635 649.22 178.679C648.922 178.723 648.642 178.846 648.408 179.035C648.173 179.223 647.994 179.471 647.887 179.752C647.781 180.034 647.751 180.338 647.802 180.635L647.95 181.576C647.71 181.532 647.465 181.538 647.228 181.591C646.991 181.644 646.767 181.745 646.57 181.887C646.287 182.094 646.078 182.387 645.972 182.721C645.866 183.055 645.869 183.414 645.98 183.747C646.843 186.208 648.317 188.41 650.264 190.146C651.138 190.936 652.117 191.602 653.173 192.124C653.392 192.234 653.62 192.339 653.857 192.438C662.398 196.1 671.536 198.17 680.821 198.546C679.943 200.221 679.375 202.041 679.146 203.918C679.019 204.983 679.187 206.063 679.63 207.04C680.073 208.017 680.775 208.854 681.66 209.46C682.044 209.679 682.447 209.864 682.864 210.011C683.263 210.158 683.649 210.337 684.019 210.546C684.561 210.874 685.007 211.339 685.312 211.895C685.616 212.45 685.769 213.077 685.754 213.71C685.739 214.344 685.557 214.962 685.226 215.503C684.895 216.043 684.428 216.487 683.871 216.789C683.871 216.789 685.465 218.736 685.721 218.703C686.737 218.472 687.655 217.929 688.346 217.15C692.987 212.643 696.092 206.043 697.575 197.52Z" fill="#2F2E41"/>
<path d="M791.398 528.793L792.329 507.85C802.039 502.659 812.869 499.918 823.879 499.863C808.726 512.252 810.62 536.132 800.346 552.792C797.103 557.963 792.736 562.339 787.572 565.593C782.407 568.848 776.576 570.899 770.511 571.593L757.831 579.357C756.091 569.657 756.474 559.695 758.955 550.158C761.436 540.62 765.955 531.734 772.201 524.111C775.747 519.87 779.813 516.091 784.303 512.866C787.34 520.874 791.398 528.793 791.398 528.793Z" fill="#F2F2F2"/>
<path d="M855.157 580.354C855.157 580.558 855.117 580.76 855.04 580.949C854.962 581.137 854.847 581.309 854.703 581.453C854.559 581.598 854.387 581.712 854.198 581.79C854.01 581.868 853.808 581.907 853.603 581.907H1.55322C1.14128 581.907 0.746211 581.743 0.454926 581.452C0.16364 581.161 0 580.766 0 580.354C0 579.942 0.16364 579.547 0.454926 579.255C0.746211 578.964 1.14128 578.8 1.55322 578.8H853.603C853.808 578.8 854.01 578.84 854.198 578.917C854.387 578.995 854.559 579.11 854.703 579.254C854.847 579.398 854.962 579.57 855.04 579.758C855.117 579.947 855.157 580.149 855.157 580.354Z" fill="#CCCCCC"/>
<path d="M366.498 423.566C364.246 423.626 362.061 422.789 360.424 421.24C358.788 419.691 357.832 417.557 357.767 415.304L357.105 391.313C357.045 389.061 357.882 386.878 359.431 385.243C360.981 383.608 363.115 382.655 365.367 382.593C367.619 382.53 369.803 383.364 371.44 384.912C373.077 386.459 374.033 388.592 374.098 390.844L374.761 414.835C374.82 417.087 373.984 419.272 372.435 420.909C370.886 422.546 368.751 423.501 366.498 423.566Z" fill="#3F3D56"/>
<path d="M741.354 511.248C728.442 511.248 714.29 510.76 698.898 509.784C619.284 504.728 516.16 487.151 408.522 460.292C300.884 433.433 201.591 400.498 128.936 367.558C93.5435 351.511 66.38 336.321 48.2008 322.41C28.9537 307.683 20.5348 294.846 23.1768 284.257C28.3248 263.628 73.9078 259.115 111.241 258.962L111.254 261.962C59.9855 262.172 29.7399 270.349 26.088 284.984C21.4361 303.624 59.3746 332.725 130.175 364.825C202.671 397.693 301.78 430.564 409.248 457.382C516.715 484.198 619.65 501.745 699.088 506.79C776.667 511.718 823.831 503.853 828.483 485.212C832.344 469.735 806.884 446.936 756.793 421.014L758.172 418.35C794.569 437.186 836.818 464.201 831.394 485.938C828.751 496.527 815.288 503.903 791.379 507.861C777.749 510.117 761.008 511.248 741.354 511.248Z" fill="#CCCCCC"/>
<path d="M56.0587 491.595C45.8127 491.595 39.1515 489.049 36.2033 483.988C30.3893 474.007 40.1266 456.494 65.1442 431.937L67.2458 434.077C44.007 456.89 33.903 474.078 38.7951 482.478C41.8908 487.79 51.1037 489.695 65.4435 487.982C79.6789 486.283 98.5441 481.217 121.515 472.927C168.806 455.86 228.138 427.071 288.58 391.863C349.021 356.656 403.331 319.246 441.507 286.528C448.84 280.242 455.494 274.195 461.286 268.556C468.889 261.335 475.904 253.517 482.262 245.179C490.825 233.552 493.715 224.598 490.62 219.284C485.45 210.41 463.732 211.244 429.464 221.637L428.593 218.766C465.36 207.617 487.101 207.283 493.212 217.775C497.009 224.293 494.138 234.112 484.678 246.958C478.222 255.429 471.1 263.37 463.379 270.706C457.542 276.389 450.84 282.478 443.459 288.805C405.15 321.639 350.682 359.159 290.09 394.454C229.496 429.751 169.99 458.622 122.534 475.749C99.3488 484.116 80.2604 489.235 65.799 490.96C62.5676 491.363 59.3152 491.575 56.0587 491.595Z" fill="#CCCCCC"/>
<path d="M603.602 368.423C596.188 368.275 556.362 367.132 549.832 367.413C549.462 366.12 537.082 381.986 536.781 382.084C536.58 382.296 536.434 382.553 536.354 382.834C536.274 383.114 536.264 383.41 536.323 383.696C536.382 383.981 536.51 384.248 536.695 384.474C536.88 384.7 537.117 384.877 537.385 384.992C538.113 385.434 602.317 384.246 603.095 384.401C603.432 384.396 603.76 384.295 604.042 384.112C604.324 383.928 604.548 383.668 604.689 383.363L605.118 382.401C605.163 380.757 605.701 372.353 605.218 370.917C605.336 370.647 605.386 370.352 605.362 370.058C605.339 369.765 605.243 369.481 605.082 369.234C604.922 368.987 604.703 368.783 604.445 368.642C604.186 368.5 603.897 368.425 603.602 368.423Z" fill="#E6E6E6"/>
<path opacity="0.17" d="M605.117 382.4C604.741 383.305 604.258 384.443 603.094 384.401L538.063 385.131C537.755 385.128 537.454 385.045 537.187 384.891C536.921 384.738 536.698 384.518 536.541 384.254C536.384 383.989 536.297 383.689 536.29 383.382C536.282 383.074 536.354 382.77 536.497 382.498L605.117 382.4Z" fill="black"/>
<path d="M550.135 367.218C549.435 366.008 532.048 279.98 530.597 279.261L518.727 264.74L517.666 263.942C516.191 263.131 512.652 263.679 512.97 265.933C515.759 279.303 533.696 355.451 534.089 367.323L536.248 382.447C536.287 382.705 536.379 382.951 536.518 383.171C536.658 383.39 536.842 383.578 537.059 383.722C537.275 383.867 537.52 383.964 537.776 384.008C538.033 384.051 538.296 384.041 538.548 383.977C539.167 383.91 539.758 383.684 540.262 383.319C540.767 382.954 541.168 382.465 541.425 381.898C541.587 381.364 550.947 367.528 550.135 367.218Z" fill="#E6E6E6"/>
<path opacity="0.17" d="M518.724 264.74L541.428 381.901C540.668 383.823 537.116 385.169 536.288 382.648C536.274 382.645 512.997 266.005 512.973 265.935C512.725 263.128 517.364 263.039 518.724 264.74Z" fill="black"/>
<path d="M519.409 269.531L530.939 285.603L543.881 347.068L537.865 352.316L519.409 269.531Z" fill="#FFA7AE"/>
<path d="M596.159 376.71L599.349 376.84C599.399 375.906 599.553 374.98 599.809 374.08C600.289 371.8 600.719 369.09 598.729 369.1C597.379 368.97 596.919 370.68 596.679 372.54C596.617 373.942 596.443 375.336 596.159 376.71Z" fill="#2F2E41"/>
<path d="M577.858 372.42L580.008 372.5L581.048 372.54C581.028 371.4 581.558 369.05 580.268 368.47C580.063 368.382 579.842 368.338 579.618 368.34C578.408 368.27 578.048 369.19 577.938 370.25C577.868 370.89 577.898 371.57 577.878 372.1C577.878 372.21 577.868 372.32 577.858 372.42Z" fill="#2F2E41"/>
<path d="M571.489 372.16L573.649 372.25L574.679 372.29C574.659 370.98 575.349 368.12 573.249 368.08C571.309 367.97 571.559 370.44 571.509 371.84C571.509 371.95 571.499 372.06 571.489 372.16Z" fill="#2F2E41"/>
<path d="M565.119 371.91L567.269 371.99L568.309 372.03C568.289 370.73 568.979 367.87 566.879 367.83C564.939 367.71 565.189 370.18 565.139 371.59C565.139 371.7 565.129 371.81 565.119 371.91Z" fill="#2F2E41"/>
<path d="M558.749 371.65L560.909 371.74L561.939 371.78C561.919 370.47 562.609 367.62 560.509 367.57C558.569 367.46 558.819 369.93 558.769 371.33C558.769 371.44 558.759 371.55 558.749 371.65Z" fill="#2F2E41"/>
<path d="M552.379 371.4L554.529 371.48L555.569 371.52C555.549 370.32 556.129 367.81 554.589 367.38H554.579C554.436 367.338 554.288 367.318 554.139 367.32C553.957 367.304 553.774 367.321 553.599 367.37H553.589C552.249 367.72 552.439 369.82 552.399 371.08C552.399 371.19 552.389 371.3 552.379 371.4Z" fill="#2F2E41"/>
<path d="M589.729 370.72L592.919 370.85C592.919 370.73 592.918 370.6 592.928 370.45C593.007 369.69 593.021 368.923 592.969 368.16C592.859 367.32 592.498 366.66 591.488 366.64C590.458 366.58 590.048 367.24 589.888 368.09C589.851 368.235 589.825 368.382 589.808 368.53V368.54C589.728 369.32 589.779 370.16 589.729 370.72Z" fill="#2F2E41"/>
<path d="M583.358 370.46L586.548 370.59C586.616 369.732 586.636 368.871 586.608 368.01C586.518 367.13 586.168 366.41 585.118 366.39C584.058 366.32 583.648 367.04 583.488 367.93C583.338 368.79 583.418 369.82 583.358 370.46Z" fill="#2F2E41"/>
<path d="M576.989 370.21L577.939 370.25L580.179 370.34C580.169 369.86 580.259 369.16 580.269 368.47C580.278 368.263 580.271 368.056 580.249 367.85C580.169 366.92 579.839 366.15 578.749 366.13C577.639 366.07 577.249 366.84 577.109 367.78C576.969 368.62 577.049 369.59 576.989 370.21Z" fill="#2F2E41"/>
<path d="M589.789 376.46L592.979 376.58C592.969 375.28 593.649 372.42 591.549 372.38C589.449 372.25 589.909 375.15 589.789 376.46Z" fill="#2F2E41"/>
<path d="M583.419 376.2L586.609 376.33C586.599 375.02 587.279 372.16 585.179 372.12C583.079 372 583.539 374.9 583.419 376.2Z" fill="#2F2E41"/>
<path d="M577.049 375.95L580.239 376.07C580.229 375.14 580.579 373.42 580.009 372.5C579.884 372.297 579.707 372.13 579.496 372.019C579.285 371.908 579.047 371.857 578.809 371.87C578.481 371.836 578.152 371.917 577.879 372.1C576.859 372.77 577.149 374.89 577.049 375.95Z" fill="#2F2E41"/>
<path d="M570.679 375.69L573.869 375.82C573.859 374.89 574.199 373.18 573.649 372.25C573.524 372.043 573.346 371.875 573.133 371.762C572.92 371.649 572.68 371.597 572.439 371.61C572.111 371.574 571.782 371.656 571.509 371.84C570.489 372.53 570.779 374.64 570.679 375.69Z" fill="#2F2E41"/>
<path d="M564.309 375.44L567.499 375.56C567.489 374.63 567.839 372.91 567.269 371.99C567.144 371.787 566.967 371.62 566.756 371.509C566.544 371.399 566.307 371.347 566.069 371.36C565.741 371.326 565.412 371.407 565.139 371.59C564.119 372.26 564.409 374.38 564.309 375.44Z" fill="#2F2E41"/>
<path d="M557.938 375.18L561.128 375.31C561.119 374.38 561.458 372.67 560.908 371.74C560.785 371.533 560.607 371.363 560.393 371.25C560.18 371.137 559.939 371.085 559.698 371.1C559.371 371.064 559.041 371.146 558.768 371.33C557.748 372.02 558.039 374.13 557.938 375.18Z" fill="#2F2E41"/>
<path d="M551.568 374.93L554.758 375.05C554.748 374.12 555.088 372.41 554.528 371.48C554.405 371.276 554.228 371.109 554.016 370.998C553.805 370.887 553.567 370.836 553.328 370.85C553.001 370.816 552.672 370.897 552.398 371.08C551.378 371.76 551.668 373.87 551.568 374.93Z" fill="#2F2E41"/>
<path d="M587.595 365.686L611.908 314.266L621.1 292.816L606.653 284.589C606.653 284.589 601.731 300.509 596.588 308.657C591.513 316.697 577.87 360.943 577.582 362.153C576.092 362.768 574.823 363.82 573.944 365.171C573.065 366.521 572.616 368.107 572.658 369.719C572.7 371.33 573.229 372.89 574.177 374.194C575.125 375.498 576.447 376.483 577.967 377.019C579.486 377.555 581.133 377.618 582.69 377.198C584.246 376.777 585.638 375.895 586.681 374.667C587.725 373.438 588.371 371.922 588.534 370.318C588.697 368.715 588.37 367.1 587.595 365.686H587.595Z" fill="#A0616A"/>
<path d="M587.447 318.079L605.834 329.172L610.004 322.869L612.782 321.436L624.276 301.699L634.439 291.345L647.866 248.426L630.396 251.047L630.373 251.055C627.261 252.705 624.477 255.656 620.66 258.257C608.634 266.453 598.265 293.009 593.325 307.816C593.244 308.059 592.911 308.228 592.524 308.394C590.692 309.177 589.187 310.568 588.262 312.333C587.337 314.097 587.049 316.127 587.447 318.079L587.447 318.079Z" fill="#FFA7AE"/>
</g>
<defs>
<clipPath id="clip0_237_233">
<rect width="855.157" height="581.907" fill="white"/>
</clipPath>
</defs>
</svg>
