<svg width="56" height="56" viewBox="0 0 56 56" fill="none" xmlns="http://www.w3.org/2000/svg">
<rect width="56" height="56" rx="28" fill="#FFA7AE"/>
<path d="M35.5315 20.9462C34.0625 20.2513 32.5084 19.7576 30.9103 19.478C30.7112 19.8419 30.4787 20.3312 30.3183 20.7206C28.5952 20.4586 26.888 20.4586 25.1966 20.7206C25.0363 20.3313 24.7985 19.8419 24.5976 19.478C22.9979 19.7577 21.4425 20.2527 19.9728 20.9499C17.0482 25.418 16.2554 29.775 16.6517 34.0704C18.5915 35.5349 20.4714 36.4245 22.3196 37.0067C22.7789 36.3681 23.1849 35.692 23.5334 34.9854C22.8699 34.73 22.2302 34.4153 21.6219 34.0449C21.782 33.925 21.9383 33.8 22.0906 33.6701C25.7762 35.413 29.7809 35.413 33.4227 33.6701C33.5756 33.7991 33.7319 33.9241 33.8913 34.0449C33.282 34.4162 32.6411 34.7316 31.9762 34.9873C32.3268 35.6967 32.7321 36.3735 33.1901 37.0085C35.04 36.4264 36.9216 35.5367 38.8614 34.0704C39.3266 29.091 38.0669 24.7739 35.5315 20.9461V20.9462ZM24.0356 31.4288C22.9292 31.4288 22.0218 30.3845 22.0218 29.1129C22.0218 27.8412 22.9098 26.7952 24.0356 26.7952C25.1615 26.7952 26.0688 27.8394 26.0494 29.1129C26.0512 30.3845 25.1615 31.4288 24.0356 31.4288ZM31.4776 31.4288C30.3711 31.4288 29.4638 30.3845 29.4638 29.1129C29.4638 27.8412 30.3518 26.7952 31.4776 26.7952C32.6034 26.7952 33.5107 27.8394 33.4914 29.1129C33.4914 30.3845 32.6034 31.4288 31.4776 31.4288V31.4288Z" fill="#FF002D"/>
</svg>
