<svg width="213" height="43" viewBox="0 0 213 43" fill="none" xmlns="http://www.w3.org/2000/svg">
<path d="M0.583406 27.5899C0.583406 39.7247 9.9179 42.5834 26.6617 42.5834C43.4054 42.5834 52.7399 39.7247 52.7399 28.465C52.7399 17.7886 42.7637 16.6802 26.6617 16.0384C17.7939 15.6884 16.3354 15.7467 16.3354 14.1715C16.3354 12.5963 17.7939 12.2463 24.9114 12.2463C32.3207 12.2463 35.8211 12.713 35.8211 14.8716H50.9897C50.9897 4.42864 42.0052 0.578164 26.0783 0.578164C9.97624 0.578164 1.16681 4.42864 1.16681 13.4131C1.16681 22.9226 8.22603 25.9563 26.6617 26.5397C36.2295 26.8314 37.5714 27.0648 37.5714 28.815C37.5714 30.3319 36.2295 30.9153 27.2451 30.9153C17.6189 30.9153 15.752 29.5734 15.752 27.5899H0.583406ZM102.944 1.16157H52.7709V13.9965H70.2731V42H85.4417V13.9965H102.944V1.16157ZM134.432 42H151.117L134.198 1.16157H111.679L94.7602 42H111.446L114.246 34.6491H131.631L134.432 42ZM118.213 24.1478L122.939 11.6629L127.664 24.1478H118.213ZM152.303 42H172.139L182.407 30.3319L192.675 42H212.511L193.2 21.5808L212.511 1.16157H192.675L182.407 12.8297L172.139 1.16157H152.303L171.614 21.5808L152.303 42Z" fill="white"/>
</svg>
