<svg width="146" height="30" viewBox="0 0 146 30" fill="none" xmlns="http://www.w3.org/2000/svg">
<path d="M0.400751 19.1015C0.400751 27.4371 6.81277 29.4008 18.3143 29.4008C29.8159 29.4008 36.2279 27.4371 36.2279 19.7026C36.2279 12.3688 29.375 11.6074 18.3143 11.1666C12.2229 10.9261 11.221 10.9662 11.221 9.88418C11.221 8.80215 12.2229 8.5617 17.1121 8.5617C22.2016 8.5617 24.6061 8.8823 24.6061 10.3651H35.0256C35.0256 3.19164 28.8541 0.546683 17.9136 0.546683C6.85284 0.546683 0.801502 3.19164 0.801502 9.3632C0.801502 15.8954 5.65059 17.9793 18.3143 18.3801C24.8866 18.5805 25.8084 18.7408 25.8084 19.943C25.8084 20.985 24.8866 21.3857 18.7151 21.3857C12.1027 21.3857 10.8203 20.464 10.8203 19.1015H0.400751ZM70.7138 0.947433H36.2492V9.76395H48.2717V29H58.6912V9.76395H70.7138V0.947433ZM92.3433 29H103.805L92.183 0.947433H76.7141L65.0923 29H76.5538L78.4774 23.9505H90.4197L92.3433 29ZM81.2025 16.737L84.4486 8.16095L87.6946 16.737H81.2025ZM104.619 29H118.245L125.298 20.985L132.351 29H145.977L132.712 14.9737L145.977 0.947433H132.351L125.298 8.96245L118.245 0.947433H104.619L117.884 14.9737L104.619 29Z" fill="black"/>
</svg>
