<svg width="362" height="415" viewBox="0 0 362 415" fill="none" xmlns="http://www.w3.org/2000/svg">
<rect width="361.721" height="414.991" rx="15.4655" fill="#EFF1F3"/>
<rect x="32.6494" y="36.9454" width="295.563" height="257.759" fill="white"/>
<path d="M83.7415 352V334.844H87.7728C88.9212 334.844 89.761 334.91 90.2923 335.043C90.8314 335.168 91.304 335.387 91.7103 335.699C92.2181 336.098 92.6126 336.633 92.8939 337.305C93.1751 337.969 93.3157 338.707 93.3157 339.52C93.3157 340.926 92.9212 341.996 92.1321 342.73C91.3509 343.457 90.2025 343.82 88.6868 343.82H88.3235L94.8743 352H92.2845L86.0267 343.82H85.7337V352H83.7415ZM85.7337 336.566V342.309H87.2923C88.886 342.309 89.9525 342.105 90.4915 341.699C91.0306 341.285 91.3001 340.566 91.3001 339.543C91.3001 338.441 91.0228 337.672 90.4681 337.234C89.9134 336.789 88.8548 336.566 87.2923 336.566H85.7337ZM104.003 345.426C103.941 344.48 103.624 343.754 103.054 343.246C102.492 342.73 101.718 342.473 100.734 342.473C99.8431 342.473 99.1009 342.742 98.5071 343.281C97.9134 343.812 97.5696 344.527 97.4759 345.426H104.003ZM105.972 346.914H97.4759V347.078C97.4759 348.227 97.804 349.156 98.4603 349.867C99.1165 350.57 99.972 350.922 101.027 350.922C101.745 350.922 102.394 350.73 102.972 350.348C103.55 349.957 104.062 349.371 104.507 348.59L105.902 349.527C105.363 350.496 104.675 351.227 103.839 351.719C103.003 352.211 102.034 352.457 100.933 352.457C99.3001 352.457 97.9798 351.918 96.972 350.84C95.9642 349.762 95.4603 348.348 95.4603 346.598C95.4603 344.918 95.9603 343.543 96.9603 342.473C97.9603 341.402 99.2454 340.867 100.816 340.867C102.402 340.867 103.656 341.375 104.577 342.391C105.507 343.406 105.972 344.793 105.972 346.551V346.914ZM108.749 352V341.277H110.542V342.93C111.003 342.242 111.558 341.73 112.206 341.395C112.855 341.059 113.605 340.891 114.456 340.891C115.722 340.891 116.71 341.227 117.421 341.898C118.132 342.57 118.488 343.504 118.488 344.699V352H116.613V345.684C116.613 344.598 116.382 343.793 115.921 343.27C115.468 342.738 114.765 342.473 113.812 342.473C113.265 342.473 112.765 342.574 112.312 342.777C111.867 342.973 111.495 343.254 111.199 343.621C110.972 343.902 110.808 344.223 110.706 344.582C110.613 344.941 110.566 345.566 110.566 346.457V352H108.749ZM130.359 349.457V351.59C129.874 351.879 129.327 352.094 128.718 352.234C128.117 352.383 127.464 352.457 126.761 352.457C125.105 352.457 123.769 351.934 122.753 350.887C121.745 349.832 121.242 348.449 121.242 346.738C121.242 345.02 121.765 343.617 122.812 342.531C123.859 341.438 125.199 340.891 126.831 340.891C127.425 340.891 128.003 340.953 128.566 341.078C129.136 341.203 129.671 341.387 130.171 341.629V343.598C129.702 343.293 129.218 343.062 128.718 342.906C128.218 342.742 127.71 342.66 127.195 342.66C125.992 342.66 125.027 343.039 124.3 343.797C123.574 344.547 123.21 345.547 123.21 346.797C123.21 347.898 123.574 348.82 124.3 349.562C125.034 350.305 125.952 350.676 127.054 350.676C127.609 350.676 128.152 350.578 128.683 350.383C129.214 350.188 129.773 349.879 130.359 349.457ZM133.992 346.668C133.992 347.801 134.37 348.762 135.128 349.551C135.886 350.332 136.804 350.723 137.882 350.723C138.952 350.723 139.863 350.332 140.613 349.551C141.363 348.762 141.738 347.801 141.738 346.668C141.738 345.535 141.363 344.578 140.613 343.797C139.863 343.008 138.952 342.613 137.882 342.613C136.796 342.613 135.874 343.008 135.117 343.797C134.367 344.578 133.992 345.535 133.992 346.668ZM132.046 346.668C132.046 345.879 132.191 345.137 132.48 344.441C132.769 343.738 133.191 343.113 133.745 342.566C134.3 342.02 134.929 341.605 135.632 341.324C136.335 341.035 137.085 340.891 137.882 340.891C138.663 340.891 139.402 341.035 140.097 341.324C140.8 341.613 141.437 342.035 142.007 342.59C142.562 343.129 142.984 343.75 143.273 344.453C143.562 345.148 143.706 345.887 143.706 346.668C143.706 347.449 143.562 348.188 143.273 348.883C142.984 349.57 142.562 350.184 142.007 350.723C141.437 351.285 140.796 351.715 140.085 352.012C139.382 352.309 138.648 352.457 137.882 352.457C137.093 352.457 136.343 352.309 135.632 352.012C134.929 351.723 134.3 351.305 133.745 350.758C133.191 350.195 132.769 349.57 132.48 348.883C132.191 348.195 132.046 347.457 132.046 346.668ZM146.577 352V341.277H148.37V342.93C148.831 342.242 149.386 341.73 150.034 341.395C150.683 341.059 151.433 340.891 152.284 340.891C153.55 340.891 154.538 341.227 155.249 341.898C155.96 342.57 156.316 343.504 156.316 344.699V352H154.441V345.684C154.441 344.598 154.21 343.793 153.749 343.27C153.296 342.738 152.593 342.473 151.64 342.473C151.093 342.473 150.593 342.574 150.14 342.777C149.695 342.973 149.324 343.254 149.027 343.621C148.8 343.902 148.636 344.223 148.534 344.582C148.441 344.941 148.394 345.566 148.394 346.457V352H146.577ZM160.242 342.789H158.273V341.277H160.242V336.953H162.117V341.277H164.085V342.789H162.117V352H160.242V342.789ZM166.195 352V341.277H167.824V343.504C168.316 342.574 168.839 341.91 169.394 341.512C169.949 341.113 170.624 340.914 171.421 340.914C171.64 340.914 171.851 340.934 172.054 340.973C172.257 341.004 172.46 341.055 172.663 341.125L172.054 342.777C171.843 342.707 171.644 342.656 171.456 342.625C171.269 342.586 171.089 342.566 170.917 342.566C169.949 342.566 169.222 342.918 168.738 343.621C168.253 344.316 168.011 345.367 168.011 346.773V352H166.195ZM182.214 345.426C182.152 344.48 181.835 343.754 181.265 343.246C180.702 342.73 179.929 342.473 178.945 342.473C178.054 342.473 177.312 342.742 176.718 343.281C176.124 343.812 175.781 344.527 175.687 345.426H182.214ZM184.183 346.914H175.687V347.078C175.687 348.227 176.015 349.156 176.671 349.867C177.327 350.57 178.183 350.922 179.238 350.922C179.956 350.922 180.605 350.73 181.183 350.348C181.761 349.957 182.273 349.371 182.718 348.59L184.113 349.527C183.574 350.496 182.886 351.227 182.05 351.719C181.214 352.211 180.245 352.457 179.144 352.457C177.511 352.457 176.191 351.918 175.183 350.84C174.175 349.762 173.671 348.348 173.671 346.598C173.671 344.918 174.171 343.543 175.171 342.473C176.171 341.402 177.456 340.867 179.027 340.867C180.613 340.867 181.867 341.375 182.788 342.391C183.718 343.406 184.183 344.793 184.183 346.551V346.914ZM186.984 352V341.277H188.613V343.504C189.105 342.574 189.628 341.91 190.183 341.512C190.738 341.113 191.413 340.914 192.21 340.914C192.429 340.914 192.64 340.934 192.843 340.973C193.046 341.004 193.249 341.055 193.452 341.125L192.843 342.777C192.632 342.707 192.433 342.656 192.245 342.625C192.058 342.586 191.878 342.566 191.706 342.566C190.738 342.566 190.011 342.918 189.527 343.621C189.042 344.316 188.8 345.367 188.8 346.773V352H186.984ZM202.757 342.789H200.788V341.277H202.757V336.953H204.632V341.277H206.601V342.789H204.632V352H202.757V342.789ZM209.765 346.668C209.765 347.801 210.144 348.762 210.902 349.551C211.659 350.332 212.577 350.723 213.656 350.723C214.726 350.723 215.636 350.332 216.386 349.551C217.136 348.762 217.511 347.801 217.511 346.668C217.511 345.535 217.136 344.578 216.386 343.797C215.636 343.008 214.726 342.613 213.656 342.613C212.57 342.613 211.648 343.008 210.89 343.797C210.14 344.578 209.765 345.535 209.765 346.668ZM207.82 346.668C207.82 345.879 207.964 345.137 208.253 344.441C208.542 343.738 208.964 343.113 209.519 342.566C210.074 342.02 210.702 341.605 211.406 341.324C212.109 341.035 212.859 340.891 213.656 340.891C214.437 340.891 215.175 341.035 215.87 341.324C216.574 341.613 217.21 342.035 217.781 342.59C218.335 343.129 218.757 343.75 219.046 344.453C219.335 345.148 219.48 345.887 219.48 346.668C219.48 347.449 219.335 348.188 219.046 348.883C218.757 349.57 218.335 350.184 217.781 350.723C217.21 351.285 216.57 351.715 215.859 352.012C215.156 352.309 214.421 352.457 213.656 352.457C212.867 352.457 212.117 352.309 211.406 352.012C210.702 351.723 210.074 351.305 209.519 350.758C208.964 350.195 208.542 349.57 208.253 348.883C207.964 348.195 207.82 347.457 207.82 346.668ZM224.074 341.277V346.551C224.074 348.09 224.3 349.168 224.753 349.785C225.214 350.395 225.988 350.699 227.074 350.699C228.159 350.699 228.925 350.398 229.37 349.797C229.824 349.188 230.05 348.105 230.05 346.551V341.277H231.925V347.535C231.925 349.152 231.511 350.379 230.683 351.215C229.855 352.043 228.636 352.457 227.027 352.457C225.433 352.457 224.222 352.039 223.394 351.203C222.566 350.367 222.152 349.145 222.152 347.535V341.277H224.074ZM234.339 350.195L235.909 349.141C236.206 349.711 236.581 350.141 237.034 350.43C237.488 350.711 238.023 350.852 238.64 350.852C239.242 350.852 239.726 350.703 240.093 350.406C240.468 350.109 240.656 349.719 240.656 349.234C240.656 348.859 240.527 348.547 240.269 348.297C240.019 348.047 239.585 347.816 238.968 347.605C238.906 347.582 238.804 347.547 238.663 347.5C236.054 346.602 234.749 345.477 234.749 344.125C234.749 343.172 235.101 342.395 235.804 341.793C236.507 341.191 237.421 340.891 238.546 340.891C239.476 340.891 240.273 341.078 240.937 341.453C241.601 341.82 242.077 342.344 242.367 343.023L240.878 343.938C240.659 343.445 240.335 343.066 239.906 342.801C239.484 342.535 238.992 342.402 238.429 342.402C237.89 342.402 237.449 342.555 237.105 342.859C236.769 343.156 236.601 343.539 236.601 344.008C236.601 344.664 237.312 345.215 238.734 345.66C238.999 345.746 239.21 345.812 239.367 345.859C240.531 346.234 241.339 346.664 241.792 347.148C242.253 347.625 242.484 348.258 242.484 349.047C242.484 350.062 242.12 350.887 241.394 351.52C240.675 352.145 239.734 352.457 238.57 352.457C237.57 352.457 236.718 352.27 236.015 351.895C235.32 351.52 234.761 350.953 234.339 350.195ZM252.421 352V333.836H254.296V352H252.421ZM265.745 345.426C265.683 344.48 265.367 343.754 264.796 343.246C264.234 342.73 263.46 342.473 262.476 342.473C261.585 342.473 260.843 342.742 260.249 343.281C259.656 343.812 259.312 344.527 259.218 345.426H265.745ZM267.714 346.914H259.218V347.078C259.218 348.227 259.546 349.156 260.202 349.867C260.859 350.57 261.714 350.922 262.769 350.922C263.488 350.922 264.136 350.73 264.714 350.348C265.292 349.957 265.804 349.371 266.249 348.59L267.644 349.527C267.105 350.496 266.417 351.227 265.581 351.719C264.745 352.211 263.777 352.457 262.675 352.457C261.042 352.457 259.722 351.918 258.714 350.84C257.706 349.762 257.202 348.348 257.202 346.598C257.202 344.918 257.702 343.543 258.702 342.473C259.702 341.402 260.988 340.867 262.558 340.867C264.144 340.867 265.398 341.375 266.32 342.391C267.249 343.406 267.714 344.793 267.714 346.551V346.914ZM269.355 350.195L270.925 349.141C271.222 349.711 271.597 350.141 272.05 350.43C272.503 350.711 273.038 350.852 273.656 350.852C274.257 350.852 274.742 350.703 275.109 350.406C275.484 350.109 275.671 349.719 275.671 349.234C275.671 348.859 275.542 348.547 275.284 348.297C275.034 348.047 274.601 347.816 273.984 347.605C273.921 347.582 273.82 347.547 273.679 347.5C271.07 346.602 269.765 345.477 269.765 344.125C269.765 343.172 270.117 342.395 270.82 341.793C271.523 341.191 272.437 340.891 273.562 340.891C274.492 340.891 275.288 341.078 275.952 341.453C276.617 341.82 277.093 342.344 277.382 343.023L275.894 343.938C275.675 343.445 275.351 343.066 274.921 342.801C274.499 342.535 274.007 342.402 273.445 342.402C272.906 342.402 272.464 342.555 272.12 342.859C271.784 343.156 271.617 343.539 271.617 344.008C271.617 344.664 272.327 345.215 273.749 345.66C274.015 345.746 274.226 345.812 274.382 345.859C275.546 346.234 276.355 346.664 276.808 347.148C277.269 347.625 277.499 348.258 277.499 349.047C277.499 350.062 277.136 350.887 276.409 351.52C275.691 352.145 274.749 352.457 273.585 352.457C272.585 352.457 271.734 352.27 271.031 351.895C270.335 351.52 269.777 350.953 269.355 350.195ZM148.148 381V374.684C148.148 373.598 147.929 372.793 147.492 372.27C147.054 371.738 146.382 371.473 145.476 371.473C144.984 371.473 144.527 371.574 144.105 371.777C143.691 371.973 143.339 372.254 143.05 372.621C142.839 372.902 142.687 373.23 142.593 373.605C142.499 373.98 142.452 374.598 142.452 375.457V381H140.683V374.684C140.683 373.598 140.464 372.793 140.027 372.27C139.589 371.738 138.917 371.473 138.011 371.473C137.519 371.473 137.058 371.574 136.628 371.777C136.206 371.973 135.851 372.254 135.562 372.621C135.359 372.895 135.21 373.211 135.117 373.57C135.031 373.93 134.988 374.559 134.988 375.457V381H133.218V370.277H135.011V371.93C135.456 371.242 135.988 370.73 136.605 370.395C137.222 370.059 137.933 369.891 138.738 369.891C139.605 369.891 140.343 370.078 140.952 370.453C141.562 370.82 142.023 371.359 142.335 372.07C142.796 371.336 143.339 370.789 143.964 370.43C144.597 370.07 145.327 369.891 146.156 369.891C147.351 369.891 148.284 370.227 148.956 370.898C149.628 371.57 149.964 372.504 149.964 373.699V381H148.148ZM161.191 374.426C161.128 373.48 160.812 372.754 160.242 372.246C159.679 371.73 158.906 371.473 157.921 371.473C157.031 371.473 156.288 371.742 155.695 372.281C155.101 372.812 154.757 373.527 154.663 374.426H161.191ZM163.159 375.914H154.663V376.078C154.663 377.227 154.992 378.156 155.648 378.867C156.304 379.57 157.159 379.922 158.214 379.922C158.933 379.922 159.581 379.73 160.159 379.348C160.738 378.957 161.249 378.371 161.695 377.59L163.089 378.527C162.55 379.496 161.863 380.227 161.027 380.719C160.191 381.211 159.222 381.457 158.12 381.457C156.488 381.457 155.167 380.918 154.159 379.84C153.152 378.762 152.648 377.348 152.648 375.598C152.648 373.918 153.148 372.543 154.148 371.473C155.148 370.402 156.433 369.867 158.003 369.867C159.589 369.867 160.843 370.375 161.765 371.391C162.695 372.406 163.159 373.793 163.159 375.551V375.914ZM180.867 381V374.684C180.867 373.598 180.648 372.793 180.21 372.27C179.773 371.738 179.101 371.473 178.195 371.473C177.702 371.473 177.245 371.574 176.824 371.777C176.409 371.973 176.058 372.254 175.769 372.621C175.558 372.902 175.406 373.23 175.312 373.605C175.218 373.98 175.171 374.598 175.171 375.457V381H173.402V374.684C173.402 373.598 173.183 372.793 172.745 372.27C172.308 371.738 171.636 371.473 170.73 371.473C170.238 371.473 169.777 371.574 169.347 371.777C168.925 371.973 168.57 372.254 168.281 372.621C168.077 372.895 167.929 373.211 167.835 373.57C167.749 373.93 167.706 374.559 167.706 375.457V381H165.937V370.277H167.73V371.93C168.175 371.242 168.706 370.73 169.324 370.395C169.941 370.059 170.652 369.891 171.456 369.891C172.324 369.891 173.062 370.078 173.671 370.453C174.281 370.82 174.742 371.359 175.054 372.07C175.515 371.336 176.058 370.789 176.683 370.43C177.316 370.07 178.046 369.891 178.874 369.891C180.07 369.891 181.003 370.227 181.675 370.898C182.347 371.57 182.683 372.504 182.683 373.699V381H180.867ZM188.05 375.691C188.05 376.941 188.37 377.918 189.011 378.621C189.652 379.324 190.531 379.676 191.648 379.676C192.742 379.676 193.597 379.305 194.214 378.562C194.839 377.812 195.152 376.777 195.152 375.457C195.152 374.285 194.847 373.367 194.238 372.703C193.628 372.039 192.784 371.707 191.706 371.707C190.613 371.707 189.73 372.074 189.058 372.809C188.386 373.535 188.05 374.496 188.05 375.691ZM186.304 362.836H188.12V372.293C188.534 371.496 189.07 370.898 189.726 370.5C190.382 370.094 191.152 369.891 192.034 369.891C193.574 369.891 194.8 370.414 195.714 371.461C196.636 372.508 197.097 373.91 197.097 375.668C197.097 377.41 196.628 378.812 195.691 379.875C194.753 380.93 193.511 381.457 191.964 381.457C191.136 381.457 190.382 381.25 189.702 380.836C189.023 380.414 188.472 379.82 188.05 379.055V381H186.304V362.836ZM200.062 381V370.277H201.691V372.504C202.183 371.574 202.706 370.91 203.261 370.512C203.816 370.113 204.492 369.914 205.288 369.914C205.507 369.914 205.718 369.934 205.921 369.973C206.124 370.004 206.327 370.055 206.531 370.125L205.921 371.777C205.71 371.707 205.511 371.656 205.324 371.625C205.136 371.586 204.956 371.566 204.784 371.566C203.816 371.566 203.089 371.918 202.605 372.621C202.12 373.316 201.878 374.367 201.878 375.773V381H200.062ZM216.081 374.426C216.019 373.48 215.702 372.754 215.132 372.246C214.57 371.73 213.796 371.473 212.812 371.473C211.921 371.473 211.179 371.742 210.585 372.281C209.992 372.812 209.648 373.527 209.554 374.426H216.081ZM218.05 375.914H209.554V376.078C209.554 377.227 209.882 378.156 210.538 378.867C211.195 379.57 212.05 379.922 213.105 379.922C213.824 379.922 214.472 379.73 215.05 379.348C215.628 378.957 216.14 378.371 216.585 377.59L217.98 378.527C217.441 379.496 216.753 380.227 215.917 380.719C215.081 381.211 214.113 381.457 213.011 381.457C211.378 381.457 210.058 380.918 209.05 379.84C208.042 378.762 207.538 377.348 207.538 375.598C207.538 373.918 208.038 372.543 209.038 371.473C210.038 370.402 211.324 369.867 212.894 369.867C214.48 369.867 215.734 370.375 216.656 371.391C217.585 372.406 218.05 373.793 218.05 375.551V375.914ZM219.691 379.195L221.261 378.141C221.558 378.711 221.933 379.141 222.386 379.43C222.839 379.711 223.374 379.852 223.992 379.852C224.593 379.852 225.077 379.703 225.445 379.406C225.82 379.109 226.007 378.719 226.007 378.234C226.007 377.859 225.878 377.547 225.62 377.297C225.37 377.047 224.937 376.816 224.32 376.605C224.257 376.582 224.156 376.547 224.015 376.5C221.406 375.602 220.101 374.477 220.101 373.125C220.101 372.172 220.452 371.395 221.156 370.793C221.859 370.191 222.773 369.891 223.898 369.891C224.827 369.891 225.624 370.078 226.288 370.453C226.952 370.82 227.429 371.344 227.718 372.023L226.23 372.938C226.011 372.445 225.687 372.066 225.257 371.801C224.835 371.535 224.343 371.402 223.781 371.402C223.242 371.402 222.8 371.555 222.456 371.859C222.12 372.156 221.952 372.539 221.952 373.008C221.952 373.664 222.663 374.215 224.085 374.66C224.351 374.746 224.562 374.812 224.718 374.859C225.882 375.234 226.691 375.664 227.144 376.148C227.605 376.625 227.835 377.258 227.835 378.047C227.835 379.062 227.472 379.887 226.745 380.52C226.027 381.145 225.085 381.457 223.921 381.457C222.921 381.457 222.07 381.27 221.367 380.895C220.671 380.52 220.113 379.953 219.691 379.195Z" fill="black"/>
<g clip-path="url(#clip0_199_76)">
<path d="M199.713 160.248C200.027 160.262 200.339 160.179 200.605 160.011C200.871 159.843 201.079 159.596 201.2 159.306C201.322 159.015 201.351 158.695 201.284 158.387C201.217 158.079 201.057 157.8 200.826 157.586C200.787 157.432 200.759 157.321 200.72 157.167C200.734 157.134 200.748 157.1 200.762 157.067C202.176 153.696 206.968 153.719 208.37 157.095C209.615 160.092 211.199 163.094 211.589 166.262C211.761 167.663 211.688 169.082 211.375 170.458C214.297 164.084 215.815 157.155 215.825 150.142C215.825 148.383 215.728 146.624 215.532 144.875C215.37 143.442 215.146 142.018 214.859 140.605C213.292 132.937 209.929 125.75 205.045 119.634C202.681 118.344 200.77 116.361 199.568 113.952C199.133 113.085 198.825 112.161 198.654 111.207C198.921 111.242 199.66 107.181 199.459 106.932C199.83 106.368 200.495 106.088 200.901 105.538C202.92 102.801 205.7 103.279 207.152 106.997C210.253 108.562 210.283 111.158 208.38 113.654C207.17 115.242 207.003 117.391 205.941 119.092C206.051 119.232 206.164 119.367 206.273 119.507C208.271 122.075 210.012 124.834 211.472 127.742C211.059 124.516 211.669 120.631 212.708 118.126C213.891 115.272 216.109 112.868 218.062 110.401C220.407 107.437 225.218 108.731 225.631 112.487C225.635 112.524 225.639 112.56 225.643 112.597C225.352 112.76 225.069 112.934 224.791 113.118C224.442 113.351 224.171 113.684 224.015 114.073C223.858 114.463 223.823 114.89 223.914 115.3C224.005 115.71 224.217 116.083 224.524 116.37C224.83 116.657 225.216 116.844 225.631 116.908L225.673 116.915C225.57 117.96 225.387 118.996 225.127 120.014C227.632 129.702 222.223 133.23 214.5 133.389C214.33 133.476 214.164 133.564 213.993 133.647C215.46 137.802 216.379 142.131 216.729 146.523C216.928 149.115 216.916 151.718 216.695 154.308L216.708 154.216C217.267 151.336 218.803 148.738 221.057 146.86C224.404 144.111 229.133 143.098 232.744 140.888C234.482 139.824 236.71 141.199 236.406 143.214C236.401 143.246 236.396 143.279 236.391 143.311C235.853 143.53 235.329 143.782 234.822 144.067C234.532 144.23 234.248 144.404 233.97 144.588C233.621 144.821 233.351 145.154 233.195 145.544C233.038 145.933 233.003 146.361 233.094 146.771C233.185 147.18 233.397 147.553 233.703 147.84C234.01 148.127 234.395 148.315 234.81 148.379L234.853 148.385C234.883 148.39 234.91 148.394 234.94 148.398C234.02 150.594 232.73 152.615 231.124 154.373C229.558 162.83 222.829 163.633 215.632 161.17H215.628C214.838 164.601 213.694 167.941 212.214 171.136H200.018C199.974 171 199.935 170.86 199.896 170.725C201.025 170.796 202.158 170.728 203.27 170.524C202.366 169.414 201.461 168.295 200.556 167.184C200.536 167.164 200.517 167.142 200.499 167.119C200.04 166.551 199.577 165.987 199.118 165.419L199.117 165.418C199.093 163.676 199.293 161.939 199.712 160.248L199.713 160.248Z" fill="#F2F2F2"/>
<path d="M238.87 129.039C236.603 120.772 254.893 113.682 259.696 120.34C260.363 119.393 262.832 118.818 263.964 119.109C265.096 119.399 266.049 120.125 266.978 120.828C268.256 121.809 269.58 122.825 270.364 124.236C271.153 125.642 271.275 127.558 270.213 128.777C269.371 129.747 266.885 130.374 265.619 130.63C264.736 130.81 263.993 130.955 263.354 131.059C262.774 130.223 262.507 129.21 262.599 128.197C262.169 128.487 261.809 128.868 261.544 129.314C261.279 129.76 261.116 130.259 261.066 130.775C261.049 130.99 268.203 157.312 268.203 157.312C267.344 157.801 266.439 158.208 265.503 158.526C263.65 155.694 262.231 152.602 261.293 149.351C261.077 151.525 261.104 153.716 261.374 155.884C261.517 157.099 261.723 158.307 261.989 159.501C253.488 161.336 240.7 160.732 235.136 152.928C235.135 152.896 235.134 152.863 235.133 152.831C235.129 152.523 235.018 152.226 234.819 151.991C234.619 151.756 234.345 151.598 234.041 151.543C233.738 151.488 233.425 151.54 233.157 151.691C232.888 151.841 232.68 152.081 232.568 152.368C232.433 152.712 232.309 153.01 232.198 153.247C230.577 147.452 232.674 140.745 238.87 129.039Z" fill="black"/>
<path d="M224.403 267.637V267.907C224.392 267.818 224.392 267.727 224.403 267.637Z" fill="black"/>
<path d="M232.729 220.852C232.945 220.793 233.165 220.751 233.387 220.724C233.132 220.765 232.912 220.808 232.729 220.852Z" fill="black"/>
<path d="M232.536 220.901C232.594 220.884 232.659 220.868 232.728 220.852C232.664 220.869 232.602 220.881 232.536 220.901Z" fill="black"/>
<path d="M294.049 294.727H262.885C262.44 294.372 262.131 293.875 262.01 293.32C261.888 292.764 261.962 292.183 262.217 291.675C263.069 289.723 261.401 287.939 261.401 287.939C260.834 287.276 260.441 286.483 260.254 285.63C260.068 284.778 260.095 283.893 260.332 283.054C261.158 280.171 257.922 272.032 257.922 272.032C257.922 272.032 256.178 282.541 254.041 294.727H224.402C223.906 293.881 223.644 292.919 223.644 291.938C223.644 290.957 223.906 289.995 224.402 289.149C226.13 286.22 224.402 285.659 224.402 285.659C224.402 285.659 222.675 282.382 224.402 280.003C226.13 277.623 224.402 267.908 224.402 267.908C224.468 268.338 224.96 267.557 225.717 265.919C226.871 263.428 228.633 258.948 230.414 253.746C231.687 250.034 232.971 245.95 234.043 241.956H234.046C234.327 240.907 234.593 239.867 234.845 238.837C235.337 236.817 235.759 234.854 236.079 233.011C236.774 229.041 237.003 225.631 236.47 223.413C236.027 221.567 235.059 220.55 233.387 220.724C234.283 220.576 235.595 220.435 237.212 220.302C237.503 220.279 237.805 220.255 238.118 220.229C250.177 219.318 276.051 218.795 276.051 218.795L283.976 232.985L294.012 250.961C294.012 250.961 293.739 275.075 294.049 294.727Z" fill="black"/>
<path d="M260.786 157.461L242.527 153.589L238.902 160.885L226.694 167.953C226.694 167.953 234.563 200.126 234.518 204.651C234.404 216.139 216.021 241.893 229.906 239.911C243.792 237.93 246.613 229.632 251.07 230.944C255.091 232.127 259.999 237.392 263.286 233.626C266.572 229.861 267.73 234.209 269.808 234.359C270.795 234.431 270.2 229.605 272.685 234.509C275.17 239.414 288.346 232.812 283.88 228.347C276.443 220.91 274.931 166.088 274.931 166.088L266.652 163.541L260.786 157.461Z" fill="#FFA7AE"/>
<path d="M226.348 274.301C227.081 273.426 227.445 272.3 227.36 271.162C227.276 270.023 226.751 268.962 225.896 268.205C225.72 268.054 225.532 267.918 225.333 267.798L228.386 252.817L221.329 248.593L219.366 269.567C218.931 270.429 218.795 271.411 218.977 272.359C219.159 273.307 219.65 274.167 220.373 274.807C220.788 275.167 221.27 275.442 221.791 275.615C222.312 275.789 222.862 275.859 223.41 275.82C223.958 275.781 224.493 275.635 224.984 275.389C225.476 275.144 225.914 274.804 226.274 274.389C226.299 274.36 226.323 274.331 226.348 274.301Z" fill="#FFE4BB"/>
<path d="M248.26 195.334C248.216 194.853 247.601 194.634 246.75 194.332C245.895 194.068 245.082 193.684 244.337 193.189C242.452 191.828 243.194 190.404 244.219 188.435C244.42 188.053 244.628 187.654 244.823 187.241C245.404 186.014 244.48 180.956 242.071 172.204C241.329 169.51 241.332 167.607 240.819 166.344C240.309 165.082 239.286 164.459 236.497 164.329C233.127 164.159 229.827 165.332 227.32 167.591C227.252 167.651 227.182 167.716 227.114 167.779C226.987 167.898 226.862 168.021 226.739 168.146C224.421 170.478 223.095 173.615 223.037 176.903L223.024 177.463L222.449 204.203L220.832 227.669L218.604 259.994L220.254 260.075L226.841 260.403L227.64 260.442L229.536 252.491L231.816 242.924L232.655 239.41L235.256 228.508L236.469 223.413L237.211 220.302L237.513 219.032L238.986 212.857C239.02 212.727 242.41 199.354 246.318 197.117C247.776 196.284 248.302 195.8 248.26 195.334Z" fill="#FFA7AE"/>
<path d="M292.107 274.142C291.283 273.351 290.801 272.27 290.763 271.129C290.724 269.988 291.133 268.877 291.901 268.033C292.06 267.864 292.232 267.708 292.417 267.567L287.772 253L294.335 248.043L298.54 268.686C299.064 269.496 299.306 270.457 299.226 271.419C299.147 272.381 298.751 273.29 298.101 274.003C297.727 274.406 297.278 274.73 296.778 274.959C296.279 275.188 295.74 275.316 295.191 275.336C294.642 275.357 294.094 275.268 293.579 275.077C293.064 274.886 292.592 274.595 292.19 274.221C292.162 274.195 292.134 274.169 292.107 274.142Z" fill="#FFE4BB"/>
<path d="M295.317 242.534C295.317 242.534 290.198 224.526 291.759 222.577C293.32 220.627 288.71 220.247 290.697 216.616C292.683 212.985 289.941 212.378 289.941 212.378L288.453 204.031L285.793 183.527L285.712 182.917L284.939 176.952C284.722 175.248 284.165 173.605 283.299 172.122C282.434 170.638 281.278 169.345 279.901 168.318C279.831 168.264 279.759 168.213 279.687 168.161C279.359 167.925 279.025 167.707 278.683 167.506C276.129 165.999 273.131 165.43 270.203 165.895C264.685 166.754 266.403 168.812 265.508 174.323C264.054 183.284 263.676 188.411 264.385 189.57C264.624 189.96 264.875 190.333 265.114 190.691C266.346 192.54 267.237 193.874 265.508 195.433C264.819 196.003 264.053 196.472 263.232 196.826C262.419 197.219 261.831 197.502 261.839 197.985C261.848 198.454 262.422 198.877 263.96 199.548C265.824 200.363 267.826 203.447 269.466 206.596C270.766 209.135 271.927 211.744 272.941 214.41L287.033 254.04L289.331 260.503L290.124 260.377L296.635 259.345L298.268 259.087L295.317 242.534Z" fill="#FFA7AE"/>
<path d="M253.082 153.315C261.309 153.315 267.978 146.646 267.978 138.42C267.978 130.194 261.309 123.525 253.082 123.525C244.855 123.525 238.186 130.194 238.186 138.42C238.186 146.646 244.855 153.315 253.082 153.315Z" fill="#FFE4BB"/>
<path d="M230.739 130.2C228.472 121.933 246.762 114.844 251.565 121.501C252.233 120.555 254.701 119.98 255.833 120.27C256.966 120.561 257.918 121.286 258.847 121.989C260.125 122.97 261.449 123.987 262.233 125.398C263.023 126.803 263.145 128.719 262.082 129.939C261.24 130.908 258.754 131.536 257.488 131.791C256.605 131.971 255.862 132.116 255.223 132.221C254.643 131.385 254.376 130.371 254.468 129.358C254.038 129.648 253.678 130.03 253.413 130.475C253.148 130.921 252.985 131.42 252.935 131.936C252.918 132.151 260.072 158.473 260.072 158.473C259.213 158.963 258.309 159.369 257.372 159.687C255.519 156.856 254.1 153.763 253.162 150.512C252.946 152.686 252.973 154.877 253.243 157.045C253.386 158.261 253.592 159.468 253.859 160.663C245.357 162.498 232.569 161.894 227.005 154.089C227.004 154.057 227.003 154.025 227.003 153.992C226.998 153.684 226.887 153.387 226.688 153.152C226.488 152.917 226.214 152.759 225.91 152.704C225.607 152.649 225.294 152.702 225.026 152.852C224.757 153.003 224.549 153.242 224.437 153.529C224.302 153.874 224.178 154.172 224.067 154.409C222.447 148.613 224.543 141.907 230.739 130.2Z" fill="black"/>
<path d="M156.864 181.668C156.55 181.682 156.238 181.6 155.972 181.431C155.706 181.263 155.498 181.017 155.377 180.726C155.255 180.436 155.226 180.115 155.293 179.807C155.36 179.5 155.52 179.22 155.751 179.006C155.79 178.852 155.818 178.742 155.856 178.588C155.842 178.554 155.829 178.521 155.815 178.487C154.401 175.116 149.608 175.139 148.206 178.516C146.962 181.512 145.378 184.514 144.988 187.683C144.816 189.083 144.889 190.503 145.202 191.879C142.279 185.504 140.762 178.575 140.752 171.563C140.751 169.803 140.849 168.045 141.045 166.296C141.207 164.862 141.431 163.439 141.718 162.026C143.285 154.357 146.648 147.17 151.532 141.054C153.895 139.764 155.807 137.781 157.009 135.372C157.444 134.506 157.752 133.581 157.922 132.627C157.656 132.662 156.917 128.601 157.118 128.352C156.747 127.788 156.081 127.508 155.676 126.958C153.657 124.222 150.876 124.699 149.425 128.418C146.323 129.983 146.293 132.578 148.196 135.075C149.407 136.663 149.573 138.812 150.636 140.512C150.526 140.652 150.413 140.787 150.303 140.927C148.306 143.496 146.564 146.254 145.105 149.162C145.518 145.937 144.908 142.051 143.869 139.546C142.686 136.692 140.468 134.289 138.515 131.821C136.169 128.858 131.359 130.151 130.946 133.908C130.942 133.944 130.938 133.981 130.934 134.017C131.224 134.181 131.508 134.354 131.786 134.538C132.135 134.771 132.406 135.104 132.562 135.494C132.718 135.883 132.753 136.311 132.663 136.721C132.572 137.13 132.359 137.503 132.053 137.79C131.747 138.077 131.361 138.265 130.946 138.329L130.904 138.335C131.007 139.381 131.19 140.417 131.45 141.434C128.945 151.122 134.354 154.651 142.077 154.809C142.247 154.897 142.413 154.984 142.584 155.067C141.117 159.223 140.197 163.551 139.847 167.944C139.649 170.535 139.661 173.139 139.882 175.728L139.869 175.636C139.31 172.757 137.773 170.158 135.52 168.28C132.173 165.531 127.444 164.519 123.833 162.309C122.095 161.245 119.867 162.62 120.171 164.635C120.175 164.667 120.18 164.699 120.185 164.731C120.724 164.95 121.248 165.203 121.755 165.487C122.045 165.651 122.329 165.825 122.606 166.008C122.955 166.241 123.226 166.575 123.382 166.964C123.539 167.354 123.574 167.781 123.483 168.191C123.392 168.601 123.18 168.974 122.873 169.26C122.567 169.547 122.181 169.735 121.766 169.799L121.724 169.806C121.693 169.81 121.667 169.814 121.637 169.819C122.556 172.015 123.847 174.036 125.453 175.794C127.019 184.251 133.747 185.053 140.944 182.59H140.949C141.738 186.022 142.883 189.361 144.363 192.556H156.559C156.602 192.421 156.642 192.281 156.681 192.145C155.552 192.216 154.419 192.149 153.306 191.944C154.211 190.834 155.116 189.715 156.021 188.605C156.041 188.584 156.06 188.562 156.078 188.539C156.537 187.971 157 187.407 157.459 186.839L157.459 186.838C157.484 185.097 157.284 183.359 156.865 181.668L156.864 181.668Z" fill="#F2F2F2"/>
<path d="M99.9581 120.34C99.6813 120.985 91.1465 120.916 90.7556 121.49C87.7418 125.924 98.606 144.79 95.5922 149.23L95.1723 149.73C96.1555 149.277 97.1 148.745 97.9963 148.137C98.0768 146.32 98.1574 144.497 98.2436 142.68C99.1463 143.834 99.8749 145.115 100.406 146.481C101.108 145.987 101.684 145.07 104.691 143.266C105.909 141.929 107.312 140.774 108.859 139.836L99.9581 120.34Z" fill="black"/>
<path d="M106.155 156.68C105.213 156.066 104.138 155.686 103.02 155.571C101.902 155.456 100.773 155.609 99.7254 156.018C98.6784 156.427 97.7439 157.079 96.9996 157.922C96.2552 158.764 95.7225 159.771 95.4456 160.861L82.4757 194.652L60.182 181.996C60.0841 180.542 59.528 179.155 58.5934 178.036C57.6589 176.917 56.3939 176.123 54.9799 175.767C53.5659 175.411 52.0755 175.512 50.7225 176.056C49.3695 176.599 48.2235 177.557 47.4487 178.792C46.6738 180.027 46.3101 181.476 46.4097 182.931C46.5092 184.385 47.0669 185.771 48.0027 186.889C48.9385 188.007 50.2044 188.8 51.6188 189.154C53.0332 189.508 54.5235 189.406 55.8758 188.861C60.5707 193.871 80.9246 214.413 89.351 206.387C96.4338 199.64 106.655 173.493 109.116 164.464C109.51 163.02 109.435 161.488 108.903 160.09C108.371 158.691 107.409 157.497 106.155 156.68Z" fill="#FFE4BB"/>
<path d="M81.8018 207.803L85.8946 226.3L115.823 229.007L118.574 212.901L81.8018 207.803Z" fill="#FFE4BB"/>
<path d="M127.518 255.238C127.504 255.503 127.488 255.765 127.468 256.031C127.181 259.863 126.853 264.284 126.498 269.128C125.937 276.815 125.311 285.569 124.68 294.727H61.9043L74.0789 258.137C74.0789 258.137 78.9948 255.43 76.4921 250.884C73.9893 246.338 78.9138 249.961 78.9596 243.468C79.0054 236.975 83.4182 230.068 83.4182 230.068L84.1427 220.237L84.5555 220.246L117.224 220.79L117.82 220.801L118.823 229.24C124.916 236.489 128.024 245.783 127.518 255.238Z" fill="black"/>
<path d="M100.481 147.715L115.377 146.948L122.297 157.88C122.297 157.88 135.315 160.057 134.413 175.396C133.511 190.736 118.573 204.196 118.573 204.196L119.212 202.007L118.103 205.176L118.245 206.955L119.758 208.839L119.913 210.787L118.573 213.87C118.747 214.15 118.84 214.472 118.84 214.801C118.84 215.131 118.748 215.453 118.574 215.733C118.4 216.013 118.152 216.238 117.856 216.383C117.561 216.529 117.23 216.588 116.903 216.555L95.3778 214.398C94.8878 213.05 94.4946 211.438 92.5302 214.122L90.5025 213.926L82.0735 213.109L81.5773 211.302C81.2954 210.276 81.2515 209.198 81.4489 208.152C81.6463 207.105 82.0798 206.118 82.7164 205.264C81.9842 202.972 82.176 200.484 83.2508 198.331L83.2911 198.25L84.1863 197.504C84.1863 197.504 74.3933 182.793 85.6353 171.712L90.1474 164.043L95.1959 157.884L100.481 147.715Z" fill="#FFA7AE"/>
<path d="M104.188 141.262C111.99 141.262 118.314 134.938 118.314 127.137C118.314 119.336 111.99 113.012 104.188 113.012C96.3861 113.012 90.0615 119.336 90.0615 127.137C90.0615 134.938 96.3861 141.262 104.188 141.262Z" fill="#FFE4BB"/>
<path d="M114.917 147.485C113.766 146.524 112.966 145.21 112.639 143.747C112.378 145.523 112.446 147.333 112.84 149.084C112.075 149.659 111.333 150.205 110.632 150.7C110.101 149.334 109.372 148.053 108.469 146.899C108.383 148.716 108.302 150.539 108.222 152.356C107.326 152.964 106.381 153.496 105.398 153.949L105.818 153.449C108.832 149.009 101.032 140.837 104.046 136.403C104.892 135.161 101.073 125.344 98.1624 124.901C95.5742 124.51 95.6835 125.257 93.1758 125.804C92.9154 124.718 92.5111 123.671 91.9737 122.692C92.1168 123.783 92.0838 124.89 91.876 125.971C90.9845 126.005 90.2831 125.437 89.3338 125.292C83.2774 124.366 83.8928 117.816 85.578 115.739C87.269 113.669 92.8825 113.048 95.4707 112.375C95.7065 112.145 96.2414 112.289 96.4772 112.07C101.437 107.531 108.071 106.78 114.041 108.791C120.407 110.937 124.377 115.089 126.414 121.491L126.998 126.613C127.523 128.26 126.863 135.924 126.414 137.593C124.668 144.082 120.951 140.843 114.917 147.485Z" fill="black"/>
<path d="M135.515 214.406L134.959 171.097C134.93 169.262 134.18 167.512 132.872 166.225C131.565 164.938 129.803 164.216 127.968 164.216H127.968C127.018 164.216 126.079 164.409 125.207 164.784C124.334 165.159 123.548 165.708 122.894 166.397C122.241 167.085 121.735 167.9 121.407 168.791C121.079 169.682 120.936 170.63 120.986 171.578L122.943 216.548L122.98 243.924C121.827 244.413 120.852 245.245 120.188 246.308C119.524 247.37 119.203 248.611 119.269 249.862C119.335 251.113 119.785 252.313 120.557 253.3C121.329 254.287 122.386 255.012 123.584 255.377C124.783 255.742 126.065 255.729 127.256 255.34C128.447 254.951 129.489 254.205 130.241 253.203C130.993 252.201 131.419 250.992 131.46 249.74C131.501 248.488 131.156 247.254 130.471 246.205L135.515 214.406Z" fill="#FFE4BB"/>
<path d="M208.423 270.438C208.423 270.438 207.563 285.906 207.168 294.728H177.556C176.947 286.7 176.742 280.802 176.742 280.802L175.122 294.728H145.191L143.335 268.936L152.302 246.71C152.302 246.71 200.898 243.34 205.406 247.615C209.91 251.887 208.423 270.438 208.423 270.438Z" fill="black"/>
<path d="M182.238 140.32C191.171 140.32 198.412 133.079 198.412 124.147C198.412 115.215 191.171 107.974 182.238 107.974C173.305 107.974 166.063 115.215 166.063 124.147C166.063 133.079 173.305 140.32 182.238 140.32Z" fill="#FFE4BB"/>
<path d="M201.09 118.892C199.429 119.649 198.353 125.135 197.047 123.86C195.741 122.585 195.828 120.925 194.068 120.454C192.646 120.072 191.116 120.509 189.819 121.197C189.588 121.318 189.363 121.45 189.145 121.581C189 121.485 188.856 121.394 188.702 121.31C187.542 120.69 186.188 120.537 184.92 120.885C185.922 121.221 186.794 121.863 187.411 122.721C186.977 123.012 186.538 123.304 186.088 123.562C182.332 125.73 176.986 121.016 173.032 119.246C175.509 123.893 174.289 125.818 172.139 130.624L172.065 130.898C172.187 129.693 168.459 128.795 168.675 130.491C168.829 131.695 169.871 134.371 170.454 135.434C166.297 130.628 163.456 124.746 164.055 118.678C164.186 117.403 164.147 116.059 164.804 114.952C165.462 113.852 166.834 113.079 168.048 113.499C167.946 111.564 168.369 109.637 169.274 107.924C170.179 106.21 171.531 104.774 173.187 103.767C174.843 102.761 176.741 102.222 178.679 102.207C180.617 102.193 182.522 102.704 184.193 103.686C185.745 104.597 187.041 105.885 188.464 106.997C189.886 108.108 191.526 109.076 193.331 109.168C194.475 109.223 195.72 108.944 196.704 109.536C197.843 110.224 198.038 111.664 198.209 113.05C197.193 113.15 196.23 113.55 195.443 114.201C196.494 114.093 197.552 114.32 198.467 114.849C198.484 114.857 198.501 114.866 198.516 114.877C199.118 117.167 199.057 117.675 201.09 118.892Z" fill="black"/>
<path d="M145.262 254.534C159.036 238.413 154.383 217.908 148.916 197.21L149.957 166.632C150.008 165.132 150.419 163.666 151.156 162.358C151.892 161.051 152.933 159.94 154.19 159.119L168.251 149.933L173.724 142.021L188.81 143.529L197.176 152.376L206.436 159.445C208.761 161.219 210.53 163.622 211.535 166.369C212.539 169.116 212.738 172.093 212.106 174.949L203.244 215.02C203.244 215.02 206.951 235.794 204.689 238.088C202.428 240.382 196.601 238.089 201.222 240.665C206.767 243.755 211.81 243.185 209.003 245.991C206.197 248.797 209.749 252.699 209.749 252.699L145.262 254.534Z" fill="#FFA7AE"/>
<path d="M151.151 277.964L153.447 261.606L144.285 258.991L142.472 276.372C141.714 277.067 141.165 277.96 140.886 278.95C140.608 279.941 140.611 280.989 140.896 281.977C141.18 282.966 141.735 283.856 142.497 284.546C143.26 285.237 144.2 285.701 145.212 285.887C146.224 286.072 147.267 285.972 148.225 285.597C149.183 285.222 150.018 284.587 150.635 283.764C151.252 282.941 151.627 281.962 151.718 280.938C151.81 279.913 151.613 278.883 151.151 277.964Z" fill="#FFE4BB"/>
<path d="M168.594 152.882C168.594 152.882 142.514 161.37 141.892 167.58C141.27 173.79 141.476 177.592 138.724 202.443L138.869 269.384C138.869 269.384 156.354 273.128 154.561 269.125C152.768 265.123 153.393 263.24 153.393 263.24C153.393 263.24 157.142 261.761 156.204 257.061C155.265 252.362 159.971 229.074 159.971 229.074L162.942 187.307L168.594 152.882Z" fill="#FFA7AE"/>
<path d="M200.752 277.098L199.53 260.625L208.844 258.614L209.516 276.076C210.228 276.82 210.717 277.746 210.931 278.753C211.144 279.759 211.072 280.805 210.724 281.773C210.375 282.741 209.763 283.592 208.957 284.231C208.151 284.871 207.183 285.272 206.161 285.392C205.139 285.511 204.104 285.342 203.173 284.906C202.241 284.469 201.45 283.781 200.888 282.919C200.326 282.058 200.016 281.056 199.992 280.028C199.968 279 200.231 277.985 200.752 277.098H200.752Z" fill="#FFE4BB"/>
<path d="M191.522 151.143C191.522 151.143 216.992 161.317 217.207 167.555C217.422 173.793 216.967 177.573 218.089 202.55L213.569 269.339C213.569 269.339 195.876 271.932 197.927 268.055C199.978 264.179 199.477 262.259 199.477 262.259C199.477 262.259 195.833 260.538 197.076 255.91C198.32 251.282 195.146 227.735 195.146 227.735L194.912 185.864L191.522 151.143Z" fill="#FFA7AE"/>
</g>
<defs>
<clipPath id="clip0_199_76">
<rect width="252.845" height="192.484" fill="white" transform="translate(46.3965 102.244)"/>
</clipPath>
</defs>
</svg>
