<svg width="363" height="415" viewBox="0 0 363 415" fill="none" xmlns="http://www.w3.org/2000/svg">
<rect x="0.72168" width="361.721" height="414.991" rx="15.4655" fill="#EFF1F3"/>
<rect x="33.3711" y="36.9454" width="295.563" height="257.759" fill="white"/>
<path d="M131.649 340.432C131.281 339.808 130.857 339.328 130.377 338.992C129.913 338.64 129.297 338.464 128.529 338.464C128.129 338.464 127.745 338.536 127.377 338.68C127.025 338.808 126.705 339 126.417 339.256C126.145 339.496 125.929 339.792 125.769 340.144C125.609 340.48 125.529 340.856 125.529 341.272C125.529 341.656 125.617 342 125.793 342.304C125.985 342.592 126.217 342.848 126.489 343.072C126.761 343.296 127.065 343.488 127.401 343.648C127.737 343.808 128.057 343.96 128.361 344.104L129.561 344.632C130.153 344.888 130.713 345.168 131.241 345.472C131.769 345.76 132.225 346.104 132.609 346.504C133.009 346.888 133.321 347.344 133.545 347.872C133.785 348.384 133.905 349 133.905 349.72C133.905 350.504 133.753 351.24 133.449 351.928C133.161 352.616 132.753 353.208 132.225 353.704C131.713 354.2 131.113 354.592 130.425 354.88C129.737 355.168 129.001 355.312 128.217 355.312C127.497 355.312 126.825 355.2 126.201 354.976C125.577 354.752 125.017 354.44 124.521 354.04C124.041 353.624 123.633 353.128 123.297 352.552C122.961 351.976 122.721 351.336 122.577 350.632L124.545 350.08C124.609 350.544 124.745 350.984 124.953 351.4C125.161 351.8 125.417 352.152 125.721 352.456C126.041 352.76 126.409 353 126.825 353.176C127.241 353.352 127.689 353.44 128.169 353.44C128.649 353.44 129.113 353.352 129.561 353.176C130.009 353 130.401 352.76 130.737 352.456C131.089 352.136 131.369 351.76 131.577 351.328C131.785 350.896 131.889 350.424 131.889 349.912C131.889 349.384 131.793 348.936 131.601 348.568C131.409 348.2 131.153 347.88 130.833 347.608C130.529 347.336 130.177 347.104 129.777 346.912C129.377 346.704 128.969 346.504 128.553 346.312L127.449 345.832C126.921 345.592 126.417 345.336 125.937 345.064C125.473 344.792 125.057 344.48 124.689 344.128C124.337 343.776 124.049 343.36 123.825 342.88C123.617 342.4 123.513 341.84 123.513 341.2C123.513 340.496 123.649 339.864 123.921 339.304C124.193 338.728 124.561 338.24 125.025 337.84C125.505 337.44 126.049 337.136 126.657 336.928C127.265 336.704 127.905 336.592 128.577 336.592C129.585 336.592 130.497 336.84 131.313 337.336C132.129 337.816 132.777 338.504 133.257 339.4L131.649 340.432ZM138.863 355H136.943V345.496H135.767V343.72H136.943V339.664H138.863V343.72H140.879V345.496H138.863V355ZM147.292 345.184C146.732 345.184 146.228 345.296 145.78 345.52C145.332 345.744 144.948 346.048 144.628 346.432C144.308 346.8 144.06 347.232 143.884 347.728C143.708 348.208 143.62 348.712 143.62 349.24C143.62 349.784 143.7 350.32 143.86 350.848C144.02 351.36 144.252 351.816 144.556 352.216C144.876 352.616 145.268 352.936 145.732 353.176C146.196 353.416 146.724 353.536 147.316 353.536C147.94 353.536 148.484 353.424 148.948 353.2C149.412 352.96 149.804 352.648 150.124 352.264C150.444 351.864 150.684 351.408 150.844 350.896C151.004 350.384 151.084 349.84 151.084 349.264C151.084 348.704 150.996 348.176 150.82 347.68C150.644 347.184 150.396 346.752 150.076 346.384C149.756 346.016 149.356 345.728 148.876 345.52C148.412 345.296 147.884 345.184 147.292 345.184ZM152.908 355H150.988V353.44H150.94C149.964 354.688 148.668 355.312 147.052 355.312C146.22 355.312 145.468 355.152 144.796 354.832C144.14 354.496 143.58 354.056 143.116 353.512C142.652 352.968 142.292 352.344 142.036 351.64C141.78 350.92 141.652 350.168 141.652 349.384C141.652 348.584 141.772 347.824 142.012 347.104C142.268 346.368 142.628 345.728 143.092 345.184C143.556 344.64 144.124 344.208 144.796 343.888C145.468 343.568 146.228 343.408 147.076 343.408C147.844 343.408 148.564 343.576 149.236 343.912C149.908 344.248 150.476 344.72 150.94 345.328H150.988V343.72H152.908V355ZM155.36 343.72H157.712L160.664 347.56L163.616 343.72H166.016L161.888 349L166.568 355H164.24L160.664 350.416L157.064 355H154.664L159.464 349L155.36 343.72ZM172.065 337.24L169.329 343.36L168.033 342.856L170.289 336.592L172.065 337.24ZM186.731 344.248V336.904H188.747V355H186.731V346.12H177.467V355H175.451V336.904H177.467V344.248H186.731ZM197.407 355.312C196.591 355.312 195.823 355.16 195.103 354.856C194.383 354.552 193.751 354.136 193.207 353.608C192.679 353.064 192.255 352.432 191.935 351.712C191.631 350.992 191.479 350.216 191.479 349.384C191.479 348.552 191.631 347.776 191.935 347.056C192.239 346.32 192.655 345.688 193.183 345.16C193.727 344.616 194.359 344.192 195.079 343.888C195.799 343.568 196.575 343.408 197.407 343.408C198.239 343.408 199.015 343.568 199.735 343.888C200.455 344.192 201.079 344.616 201.607 345.16C202.151 345.688 202.575 346.32 202.879 347.056C203.183 347.776 203.335 348.552 203.335 349.384C203.335 350.216 203.175 350.992 202.855 351.712C202.551 352.432 202.127 353.064 201.583 353.608C201.055 354.136 200.431 354.552 199.711 354.856C198.991 355.16 198.223 355.312 197.407 355.312ZM197.407 345.184C196.815 345.184 196.271 345.296 195.775 345.52C195.279 345.744 194.855 346.048 194.503 346.432C194.151 346.8 193.879 347.24 193.687 347.752C193.495 348.248 193.399 348.784 193.399 349.36C193.399 349.936 193.495 350.48 193.687 350.992C193.879 351.488 194.151 351.928 194.503 352.312C194.855 352.696 195.279 353 195.775 353.224C196.271 353.432 196.815 353.536 197.407 353.536C197.999 353.536 198.543 353.432 199.039 353.224C199.535 353 199.959 352.696 200.311 352.312C200.663 351.928 200.935 351.488 201.127 350.992C201.319 350.48 201.415 349.936 201.415 349.36C201.415 348.784 201.319 348.248 201.127 347.752C200.935 347.24 200.663 346.8 200.311 346.432C199.959 346.048 199.535 345.744 199.039 345.52C198.543 345.296 197.999 345.184 197.407 345.184ZM207.74 350.008C207.74 350.488 207.764 350.944 207.812 351.376C207.86 351.792 207.964 352.16 208.124 352.48C208.3 352.8 208.556 353.056 208.892 353.248C209.244 353.44 209.708 353.536 210.284 353.536C210.86 353.536 211.316 353.44 211.652 353.248C212.004 353.056 212.26 352.8 212.42 352.48C212.596 352.16 212.708 351.792 212.756 351.376C212.804 350.944 212.828 350.488 212.828 350.008V343.72H214.748V350.224C214.748 350.976 214.668 351.664 214.508 352.288C214.364 352.912 214.116 353.448 213.764 353.896C213.412 354.344 212.948 354.696 212.372 354.952C211.812 355.192 211.116 355.312 210.284 355.312C209.452 355.312 208.748 355.192 208.172 354.952C207.612 354.696 207.156 354.344 206.804 353.896C206.452 353.448 206.196 352.912 206.036 352.288C205.892 351.664 205.82 350.976 205.82 350.224V343.72H207.74V350.008ZM222.805 346.336C222.677 346.032 222.477 345.768 222.205 345.544C221.933 345.304 221.621 345.184 221.269 345.184C220.933 345.184 220.613 345.304 220.309 345.544C220.021 345.768 219.877 346.064 219.877 346.432C219.877 346.688 219.949 346.912 220.093 347.104C220.253 347.28 220.453 347.448 220.693 347.608C220.933 347.752 221.205 347.888 221.509 348.016C221.829 348.128 222.157 348.256 222.493 348.4C222.829 348.544 223.149 348.704 223.453 348.88C223.773 349.056 224.053 349.272 224.293 349.528C224.533 349.768 224.725 350.064 224.869 350.416C225.029 350.752 225.109 351.16 225.109 351.64C225.109 352.168 225.005 352.664 224.797 353.128C224.605 353.576 224.333 353.96 223.981 354.28C223.629 354.6 223.221 354.848 222.757 355.024C222.309 355.216 221.821 355.312 221.293 355.312C220.333 355.312 219.501 355.064 218.797 354.568C218.109 354.056 217.613 353.352 217.309 352.456L219.013 351.736C219.253 352.264 219.533 352.696 219.853 353.032C220.189 353.368 220.677 353.536 221.317 353.536C221.829 353.536 222.261 353.376 222.613 353.056C222.965 352.736 223.141 352.32 223.141 351.808C223.141 351.392 223.013 351.056 222.757 350.8C222.517 350.544 222.205 350.32 221.821 350.128C221.437 349.936 221.029 349.76 220.597 349.6C220.165 349.424 219.757 349.216 219.373 348.976C218.989 348.72 218.669 348.408 218.413 348.04C218.173 347.672 218.053 347.192 218.053 346.6C218.053 346.12 218.141 345.688 218.317 345.304C218.493 344.904 218.733 344.568 219.037 344.296C219.357 344.008 219.717 343.792 220.117 343.648C220.533 343.488 220.965 343.408 221.413 343.408C222.069 343.408 222.669 343.608 223.213 344.008C223.757 344.408 224.157 344.904 224.413 345.496L222.805 346.336ZM228.791 349.768C228.791 350.296 228.879 350.792 229.055 351.256C229.247 351.704 229.503 352.096 229.823 352.432C230.159 352.768 230.551 353.04 230.999 353.248C231.447 353.44 231.943 353.536 232.487 353.536C233.303 353.536 233.983 353.32 234.527 352.888C235.087 352.44 235.551 351.88 235.919 351.208L237.551 352.144C237.007 353.152 236.287 353.936 235.391 354.496C234.511 355.04 233.495 355.312 232.343 355.312C231.511 355.312 230.751 355.16 230.063 354.856C229.391 354.552 228.815 354.144 228.335 353.632C227.855 353.104 227.479 352.488 227.207 351.784C226.951 351.08 226.823 350.32 226.823 349.504C226.823 348.672 226.943 347.888 227.183 347.152C227.423 346.4 227.775 345.752 228.239 345.208C228.703 344.648 229.271 344.208 229.943 343.888C230.631 343.568 231.415 343.408 232.295 343.408C233.207 343.408 234.007 343.584 234.695 343.936C235.383 344.272 235.951 344.736 236.399 345.328C236.863 345.92 237.199 346.6 237.407 347.368C237.615 348.12 237.695 348.92 237.647 349.768H228.791ZM235.631 348.136C235.567 347.72 235.431 347.336 235.223 346.984C235.031 346.632 234.791 346.32 234.503 346.048C234.215 345.776 233.879 345.568 233.495 345.424C233.127 345.264 232.735 345.184 232.319 345.184C231.903 345.184 231.503 345.264 231.119 345.424C230.735 345.568 230.383 345.776 230.063 346.048C229.759 346.32 229.503 346.632 229.295 346.984C229.087 347.336 228.951 347.72 228.887 348.136H235.631Z" fill="black"/>
<g clip-path="url(#clip0_199_267)">
<path d="M69.2953 293.845L68.7852 293.73C74.4735 268.544 88.7687 245.673 109.037 229.329C124.361 216.992 142.587 208.741 161.998 205.353C181.408 201.965 201.366 203.551 219.991 209.962C238.616 216.373 255.296 227.399 268.46 242C281.624 256.601 290.84 274.297 295.238 293.423L294.729 293.539C282.688 240.899 236.351 204.136 182.047 204.136C128.454 204.136 81.0353 241.864 69.2953 293.845Z" fill="black"/>
<path d="M142.436 145.62C150.279 145.62 156.637 139.29 156.637 131.481C156.637 123.672 150.279 117.342 142.436 117.342C134.593 117.342 128.234 123.672 128.234 131.481C128.234 139.29 134.593 145.62 142.436 145.62Z" fill="#FFE4BB"/>
<path d="M81.2519 290.633C81.6948 292.263 83.2119 293.272 83.2119 293.272C83.2119 293.272 84.0108 291.639 83.5679 290.009C83.125 288.379 81.608 287.369 81.608 287.369C81.608 287.369 80.809 289.003 81.2519 290.633Z" fill="black"/>
<path d="M81.9035 290.282C83.1189 291.46 83.2673 293.271 83.2673 293.271C83.2673 293.271 81.4453 293.172 80.23 291.994C79.0147 290.816 78.8662 289.005 78.8662 289.005C78.8662 289.005 80.6882 289.105 81.9035 290.282Z" fill="#FFA7AE"/>
<path d="M114.981 290.633C115.424 292.263 116.941 293.272 116.941 293.272C116.941 293.272 117.74 291.639 117.297 290.009C116.855 288.379 115.337 287.369 115.337 287.369C115.337 287.369 114.539 289.003 114.981 290.633Z" fill="black"/>
<path d="M115.632 290.282C116.847 291.46 116.996 293.271 116.996 293.271C116.996 293.271 115.174 293.172 113.959 291.994C112.743 290.816 112.595 289.005 112.595 289.005C112.595 289.005 114.417 289.105 115.632 290.282Z" fill="#FFA7AE"/>
<path d="M121.668 160.789L116.328 156.535L146.233 129.952H222.061V153.345L172.933 186.309L121.668 160.789Z" fill="black"/>
<path d="M235.887 144.864V130.483H225.819V134.005L222.062 129.952L197.497 156.535L187.885 162.915L172.981 271.329L195.458 293.708H247.694V157.599L235.887 144.864Z" fill="#CCCCCC"/>
<path d="M197.497 156.535H116.328V293.708H197.497V156.535Z" fill="#F2F2F2"/>
<path d="M162.787 260.212H147.835V293.708H162.787V260.212Z" fill="#CCCCCC"/>
<path d="M131.815 269.782V264.465H125.407V269.782H131.281H131.815Z" fill="black"/>
<path d="M131.281 274.036H125.407V279.352H131.815V274.036H131.281Z" fill="black"/>
<path d="M142.496 264.466H136.088V269.782H142.496V264.466Z" fill="black"/>
<path d="M142.496 274.036H136.088V279.352H142.496V274.036Z" fill="black"/>
<path d="M175.604 269.782V264.465H169.196V269.782H175.07H175.604Z" fill="black"/>
<path d="M175.07 274.036H169.196V279.352H175.604V274.036H175.07Z" fill="black"/>
<path d="M186.283 264.466H179.875V269.782H186.283V264.466Z" fill="black"/>
<path d="M186.283 274.036H179.875V279.352H186.283V274.036Z" fill="black"/>
<path d="M220.46 163.447V158.13H214.052V163.447H219.926H220.46Z" fill="black"/>
<path d="M219.926 167.701H214.052V173.017H220.46V167.701H219.926Z" fill="black"/>
<path d="M231.14 158.13H224.732V163.447H231.14V158.13Z" fill="black"/>
<path d="M231.14 167.701H224.732V173.017H231.14V167.701Z" fill="black"/>
<path d="M220.46 193.221V187.904H214.052V193.221H219.926H220.46Z" fill="black"/>
<path d="M219.926 197.474H214.052V202.791H220.46V197.474H219.926Z" fill="black"/>
<path d="M231.14 187.904H224.732V193.221H231.14V187.904Z" fill="black"/>
<path d="M231.14 197.474H224.732V202.791H231.14V197.474Z" fill="black"/>
<path d="M220.46 222.995V217.678H214.052V222.995H219.926H220.46Z" fill="black"/>
<path d="M219.926 227.248H214.052V232.565H220.46V227.248H219.926Z" fill="black"/>
<path d="M231.14 217.678H224.732V222.995H231.14V217.678Z" fill="black"/>
<path d="M231.14 227.248H224.732V232.565H231.14V227.248Z" fill="black"/>
<path d="M220.46 252.769V247.452H214.052V252.769H219.926H220.46Z" fill="black"/>
<path d="M219.926 257.022H214.052V262.339H220.46V257.022H219.926Z" fill="black"/>
<path d="M231.14 247.452H224.732V252.769H231.14V247.452Z" fill="black"/>
<path d="M231.14 257.022H224.732V262.339H231.14V257.022Z" fill="black"/>
<path d="M187.352 163.447H125.407V176.207H187.352V163.447Z" fill="black"/>
<path d="M187.352 188.968H125.407V201.728H187.352V188.968Z" fill="black"/>
<path d="M187.352 214.488H125.407V227.248H187.352V214.488Z" fill="black"/>
<path d="M187.352 240.008H125.407V252.769H187.352V240.008Z" fill="black"/>
<path d="M330.653 293.172H33.3711V293.693H330.653V293.172Z" fill="black"/>
<path d="M84.6903 233.061H83.1543V293.469H84.6903V233.061Z" fill="black"/>
<path d="M98.8664 240.759C98.9642 261.882 84.0378 279.075 84.0378 279.075C84.0378 279.075 68.9527 262.02 68.855 240.897C68.7572 219.774 83.6837 202.581 83.6837 202.581C83.6837 202.581 98.7687 219.636 98.8664 240.759Z" fill="#FFA7AE"/>
<path opacity="0.1" d="M98.8664 240.759C98.9642 261.882 84.0378 279.075 84.0378 279.075C84.0378 279.075 68.9527 262.02 68.855 240.897C68.7572 219.774 83.6837 202.581 83.6837 202.581C83.6837 202.581 98.7687 219.636 98.8664 240.759Z" fill="black"/>
<path d="M64.7216 233.061H63.1855V293.469H64.7216V233.061Z" fill="black"/>
<path d="M78.8977 240.759C78.9955 261.882 64.069 279.075 64.069 279.075C64.069 279.075 48.984 262.02 48.8862 240.897C48.7884 219.774 63.7149 202.581 63.7149 202.581C63.7149 202.581 78.7999 219.636 78.8977 240.759Z" fill="#FFA7AE"/>
<path d="M280.597 156.45C268.497 156.506 258.648 156.684 258.648 156.684C258.648 156.684 270.355 141.245 280.553 146.965C290.75 152.685 302.465 156.482 302.465 156.482C302.465 156.482 292.696 156.394 280.597 156.45Z" fill="#F2F2F2"/>
<path d="M79.0097 186.127C66.9101 186.182 57.0615 186.36 57.0615 186.36C57.0615 186.36 68.7681 170.921 78.9658 176.641C89.1634 182.361 100.878 186.159 100.878 186.159C100.878 186.159 91.1093 186.071 79.0097 186.127Z" fill="#F2F2F2"/>
<path d="M122.935 124.17C110.836 124.226 100.987 124.404 100.987 124.404C100.987 124.404 112.694 108.965 122.892 114.685C133.089 120.405 144.804 124.203 144.804 124.203C144.804 124.203 135.035 124.115 122.935 124.17Z" fill="#F2F2F2"/>
<path d="M305.528 233.061H303.992V293.469H305.528V233.061Z" fill="black"/>
<path d="M319.704 240.759C319.802 261.882 304.876 279.075 304.876 279.075C304.876 279.075 289.791 262.02 289.693 240.897C289.595 219.774 304.522 202.581 304.522 202.581C304.522 202.581 319.607 219.636 319.704 240.759Z" fill="#FFA7AE"/>
<path d="M248.99 255.973H264.492V252.247H273.044V255.973H289.081V272.471H273.044V293.227H264.492V272.471H248.99L240.972 263.424L248.99 255.973Z" fill="black"/>
</g>
<defs>
<clipPath id="clip0_199_267">
<rect width="297.282" height="180.431" fill="white" transform="translate(33.3711 113.414)"/>
</clipPath>
</defs>
</svg>
