<svg width="363" height="415" viewBox="0 0 363 415" fill="none" xmlns="http://www.w3.org/2000/svg">
<rect x="0.443359" width="361.721" height="414.991" rx="15.4655" fill="#EFF1F3"/>
<rect x="33.0928" y="36.9454" width="295.563" height="257.759" fill="white"/>
<path d="M116.62 345.473C117.738 345.949 118.577 346.582 119.14 347.371C119.71 348.16 119.995 349.094 119.995 350.172C119.995 351.75 119.492 353.023 118.484 353.992C117.484 354.953 116.156 355.434 114.499 355.434C113.148 355.434 112.015 355.09 111.101 354.402C110.187 353.707 109.57 352.723 109.249 351.449L111.101 350.535C111.351 351.574 111.761 352.363 112.331 352.902C112.909 353.434 113.632 353.699 114.499 353.699C115.523 353.699 116.351 353.406 116.984 352.82C117.617 352.227 117.933 351.457 117.933 350.512C117.933 349.746 117.71 349.082 117.265 348.52C116.827 347.949 116.163 347.469 115.273 347.078L113.187 346.188C112.046 345.711 111.195 345.098 110.632 344.348C110.077 343.598 109.8 342.699 109.8 341.652C109.8 340.434 110.253 339.426 111.159 338.629C112.066 337.832 113.222 337.434 114.628 337.434C115.659 337.434 116.55 337.652 117.3 338.09C118.058 338.527 118.648 339.172 119.07 340.023L117.382 341.102C116.999 340.438 116.57 339.945 116.093 339.625C115.617 339.297 115.077 339.133 114.476 339.133C113.71 339.133 113.081 339.367 112.589 339.836C112.105 340.305 111.863 340.902 111.863 341.629C111.863 342.238 112.05 342.766 112.425 343.211C112.8 343.656 113.382 344.051 114.171 344.395L116.62 345.473ZM122.82 345.789H120.851V344.277H122.82V339.953H124.695V344.277H126.663V345.789H124.695V355H122.82V345.789ZM136.952 349.738C136.952 348.527 136.62 347.555 135.956 346.82C135.3 346.078 134.441 345.707 133.378 345.707C132.277 345.707 131.417 346.047 130.8 346.727C130.183 347.406 129.874 348.355 129.874 349.574C129.874 350.871 130.183 351.871 130.8 352.574C131.425 353.277 132.308 353.629 133.449 353.629C134.542 353.629 135.398 353.289 136.015 352.609C136.64 351.922 136.952 350.965 136.952 349.738ZM138.734 344.277V355H136.952V353.055C136.523 353.836 135.972 354.434 135.3 354.848C134.636 355.254 133.89 355.457 133.062 355.457C131.523 355.457 130.281 354.93 129.335 353.875C128.398 352.812 127.929 351.41 127.929 349.668C127.929 347.902 128.386 346.5 129.3 345.461C130.214 344.414 131.437 343.891 132.968 343.891C133.867 343.891 134.644 344.094 135.3 344.5C135.964 344.898 136.499 345.496 136.906 346.293V344.277H138.734ZM140.538 355L144.663 349.457L140.656 344.277H142.941L145.718 348.109L148.531 344.277H150.816L146.773 349.457L150.933 355H148.648L145.718 350.852L142.824 355H140.538ZM160.109 355V337.844H162.148V355H160.109ZM166.109 355V344.277H167.902V345.93C168.363 345.242 168.917 344.73 169.566 344.395C170.214 344.059 170.964 343.891 171.816 343.891C173.081 343.891 174.07 344.227 174.781 344.898C175.492 345.57 175.847 346.504 175.847 347.699V355H173.972V348.684C173.972 347.598 173.742 346.793 173.281 346.27C172.827 345.738 172.124 345.473 171.171 345.473C170.624 345.473 170.124 345.574 169.671 345.777C169.226 345.973 168.855 346.254 168.558 346.621C168.331 346.902 168.167 347.223 168.066 347.582C167.972 347.941 167.925 348.566 167.925 349.457V355H166.109ZM187.695 349.691C187.695 348.496 187.363 347.535 186.699 346.809C186.034 346.074 185.159 345.707 184.074 345.707C182.988 345.707 182.14 346.039 181.531 346.703C180.921 347.367 180.617 348.285 180.617 349.457C180.617 350.777 180.925 351.812 181.542 352.562C182.159 353.305 183.011 353.676 184.097 353.676C185.222 353.676 186.101 353.324 186.734 352.621C187.374 351.918 187.695 350.941 187.695 349.691ZM189.476 336.836V355H187.695V353.055C187.273 353.828 186.726 354.422 186.054 354.836C185.382 355.25 184.632 355.457 183.804 355.457C182.265 355.457 181.023 354.93 180.077 353.875C179.14 352.812 178.671 351.41 178.671 349.668C178.671 347.91 179.132 346.508 180.054 345.461C180.976 344.414 182.202 343.891 183.734 343.891C184.624 343.891 185.398 344.094 186.054 344.5C186.71 344.898 187.242 345.496 187.648 346.293V336.836H189.476ZM194.949 344.277V349.551C194.949 351.09 195.175 352.168 195.628 352.785C196.089 353.395 196.863 353.699 197.949 353.699C199.034 353.699 199.8 353.398 200.245 352.797C200.699 352.188 200.925 351.105 200.925 349.551V344.277H202.8V350.535C202.8 352.152 202.386 353.379 201.558 354.215C200.73 355.043 199.511 355.457 197.902 355.457C196.308 355.457 195.097 355.039 194.269 354.203C193.441 353.367 193.027 352.145 193.027 350.535V344.277H194.949ZM205.214 353.195L206.784 352.141C207.081 352.711 207.456 353.141 207.909 353.43C208.363 353.711 208.898 353.852 209.515 353.852C210.117 353.852 210.601 353.703 210.968 353.406C211.343 353.109 211.531 352.719 211.531 352.234C211.531 351.859 211.402 351.547 211.144 351.297C210.894 351.047 210.46 350.816 209.843 350.605C209.781 350.582 209.679 350.547 209.538 350.5C206.929 349.602 205.624 348.477 205.624 347.125C205.624 346.172 205.976 345.395 206.679 344.793C207.382 344.191 208.296 343.891 209.421 343.891C210.351 343.891 211.148 344.078 211.812 344.453C212.476 344.82 212.952 345.344 213.242 346.023L211.753 346.938C211.534 346.445 211.21 346.066 210.781 345.801C210.359 345.535 209.867 345.402 209.304 345.402C208.765 345.402 208.324 345.555 207.98 345.859C207.644 346.156 207.476 346.539 207.476 347.008C207.476 347.664 208.187 348.215 209.609 348.66C209.874 348.746 210.085 348.812 210.242 348.859C211.406 349.234 212.214 349.664 212.667 350.148C213.128 350.625 213.359 351.258 213.359 352.047C213.359 353.062 212.995 353.887 212.269 354.52C211.55 355.145 210.609 355.457 209.445 355.457C208.445 355.457 207.593 355.27 206.89 354.895C206.195 354.52 205.636 353.953 205.214 353.195ZM216.406 345.789H214.437V344.277H216.406V339.953H218.281V344.277H220.249V345.789H218.281V355H216.406V345.789ZM222.359 355V344.277H223.988V346.504C224.48 345.574 225.003 344.91 225.558 344.512C226.113 344.113 226.788 343.914 227.585 343.914C227.804 343.914 228.015 343.934 228.218 343.973C228.421 344.004 228.624 344.055 228.827 344.125L228.218 345.777C228.007 345.707 227.808 345.656 227.62 345.625C227.433 345.586 227.253 345.566 227.081 345.566C226.113 345.566 225.386 345.918 224.902 346.621C224.417 347.316 224.175 348.367 224.175 349.773V355H222.359ZM230.433 339.109C230.433 338.742 230.562 338.43 230.82 338.172C231.085 337.906 231.406 337.773 231.781 337.773C232.148 337.773 232.46 337.906 232.718 338.172C232.984 338.438 233.117 338.758 233.117 339.133C233.117 339.5 232.988 339.812 232.73 340.07C232.472 340.328 232.156 340.457 231.781 340.457C231.406 340.457 231.085 340.328 230.82 340.07C230.562 339.812 230.433 339.492 230.433 339.109ZM230.867 355V344.277H232.718V355H230.867ZM244.191 348.426C244.128 347.48 243.812 346.754 243.242 346.246C242.679 345.73 241.906 345.473 240.921 345.473C240.031 345.473 239.288 345.742 238.695 346.281C238.101 346.812 237.757 347.527 237.663 348.426H244.191ZM246.159 349.914H237.663V350.078C237.663 351.227 237.992 352.156 238.648 352.867C239.304 353.57 240.159 353.922 241.214 353.922C241.933 353.922 242.581 353.73 243.159 353.348C243.738 352.957 244.249 352.371 244.695 351.59L246.089 352.527C245.55 353.496 244.863 354.227 244.027 354.719C243.191 355.211 242.222 355.457 241.12 355.457C239.488 355.457 238.167 354.918 237.159 353.84C236.152 352.762 235.648 351.348 235.648 349.598C235.648 347.918 236.148 346.543 237.148 345.473C238.148 344.402 239.433 343.867 241.003 343.867C242.589 343.867 243.843 344.375 244.765 345.391C245.695 346.406 246.159 347.793 246.159 349.551V349.914ZM247.8 353.195L249.37 352.141C249.667 352.711 250.042 353.141 250.495 353.43C250.949 353.711 251.484 353.852 252.101 353.852C252.702 353.852 253.187 353.703 253.554 353.406C253.929 353.109 254.117 352.719 254.117 352.234C254.117 351.859 253.988 351.547 253.73 351.297C253.48 351.047 253.046 350.816 252.429 350.605C252.367 350.582 252.265 350.547 252.124 350.5C249.515 349.602 248.21 348.477 248.21 347.125C248.21 346.172 248.562 345.395 249.265 344.793C249.968 344.191 250.882 343.891 252.007 343.891C252.937 343.891 253.734 344.078 254.398 344.453C255.062 344.82 255.538 345.344 255.827 346.023L254.339 346.938C254.12 346.445 253.796 346.066 253.367 345.801C252.945 345.535 252.452 345.402 251.89 345.402C251.351 345.402 250.909 345.555 250.566 345.859C250.23 346.156 250.062 346.539 250.062 347.008C250.062 347.664 250.773 348.215 252.195 348.66C252.46 348.746 252.671 348.812 252.827 348.859C253.992 349.234 254.8 349.664 255.253 350.148C255.714 350.625 255.945 351.258 255.945 352.047C255.945 353.062 255.581 353.887 254.855 354.52C254.136 355.145 253.195 355.457 252.031 355.457C251.031 355.457 250.179 355.27 249.476 354.895C248.781 354.52 248.222 353.953 247.8 353.195Z" fill="black"/>
<g clip-path="url(#clip0_199_302)">
<path d="M211.43 240.591L213.898 246.111C211.892 245.792 210.026 247.501 209.984 249.696C209.942 251.891 211.732 254.174 213.738 254.486C213.355 256.19 211.7 256.942 210.263 257.63C208.827 258.319 207.278 259.461 207.385 261.277C207.471 262.735 208.68 264.022 209.964 264.54C211.247 265.057 212.594 264.978 213.895 264.891C211.924 266.946 211.732 270.81 213.463 273.581C215.193 276.353 218.649 277.718 221.236 276.651C219.408 278.919 219.805 283.072 222.074 285.412C224.361 287.772 227.676 288 230.574 287.752C237.953 287.13 244.984 284.351 250.788 279.763C253.003 278.007 255.072 275.943 256.336 273.25C257.6 270.557 257.972 267.147 256.795 264.082C257.112 267.921 260.965 270.954 264.432 271.123C267.898 271.293 270.924 269.346 273.496 267.126C276.916 264.173 280.083 260.034 279.613 254.927C279.381 252.399 278.274 249.968 277.188 247.613L275.082 243.047C274.232 241.203 273.363 239.329 272.084 237.782C270.804 236.235 269.029 235.038 267.252 235.049C267.658 233.198 268.066 231.278 267.726 229.311C267.385 227.345 266.082 225.308 264.308 224.848C262.052 224.261 260.139 226.338 257.87 226.142C255.687 225.954 253.882 223.768 251.761 222.902C250.888 222.526 249.924 222.411 248.987 222.573C248.049 222.735 247.18 223.166 246.484 223.813C245.14 225.121 244.58 227.332 245.062 229.425C245.485 231.257 246.609 232.874 247.292 234.641C247.974 236.409 248.08 238.681 246.769 239.647C245.187 240.812 242.78 239.227 241.544 237.309C240.308 235.391 239.598 233.069 238.036 231.457C236.191 229.553 233.304 229.107 231.405 230.432C229.506 231.757 228.779 234.724 229.737 237.247C230.52 239.309 232.313 241.396 231.691 243.338C231.033 245.39 228.157 245.13 226.422 243.68C224.687 242.229 223.535 240.044 221.821 238.561C220.081 237.055 217.808 236.395 215.813 236.816C214.8 237.05 213.864 237.535 213.089 238.225C212.314 238.916 211.726 239.79 211.379 240.767" fill="black" fill-opacity="0.63"/>
<path d="M251.398 225.078L246.276 227.451C245.506 227.83 244.633 227.948 243.79 227.786C243.046 227.61 242.544 227.157 242.412 226.541L241.22 220.99C240.995 219.942 241.865 218.703 243.288 218.044L246.116 216.733C247.54 216.074 249.05 216.21 249.707 217.057L253.193 221.546C253.58 222.043 253.603 222.719 253.258 223.399C252.839 224.146 252.185 224.736 251.398 225.078Z" fill="#3F3D56"/>
<path d="M92.5715 122.474C97.3869 109.331 104.902 97.3346 114.635 87.2545C122.892 78.7058 135.744 79.061 135.744 79.061L135.817 78.9702C138.91 75.1664 143.061 72.3582 147.748 70.898C152.435 69.4377 157.451 69.3904 162.165 70.7619C163.39 71.1126 164.333 71.268 164.781 71.1118C172.953 68.2595 172.569 61.8214 179.62 56.635C191.966 47.5538 232.915 57.9561 238.689 74.6665C243.369 88.21 264.259 94.7743 272.064 105.134C273.284 106.754 274.482 108.392 275.656 110.05C276.206 110.82 276.751 111.596 277.289 112.377C282.819 120.363 287.779 128.726 292.134 137.405C294.99 143.075 297.472 148.925 299.565 154.917C307.704 178.646 304.921 196.325 282.478 191.957C279.821 191.439 277.229 190.975 274.7 190.566C271.037 189.97 267.503 189.48 264.096 189.097C259.509 188.576 255.144 188.235 251.003 188.074C249.61 188.018 248.243 187.981 246.902 187.961C227.068 187.687 212.357 191.41 201.149 197.189C199.249 198.166 197.448 199.2 195.747 200.29C193.149 201.946 190.669 203.779 188.323 205.775C185.077 208.553 182.083 211.611 179.378 214.915L179.229 215.097C166.12 231.088 161.806 248.791 152.687 251.908C113.707 265.234 89.0539 216.925 86.5257 169.669C86.398 167.288 86.3275 164.913 86.3141 162.546C86.3062 161.487 86.3114 160.432 86.3298 159.379C86.3698 156.633 86.4912 153.904 86.6945 151.209C86.7704 150.178 86.8585 149.153 86.9587 148.133C87.0691 147.033 87.1892 145.94 87.3281 144.854C88.3197 136.892 90.0544 129.316 92.5715 122.474Z" fill="#FFA7AE"/>
<path d="M213.39 148.474C210.277 149.92 210.226 156.394 211.202 158.491L212.971 162.288L224.247 157.064L222.478 153.267C221.5 151.17 216.505 147.034 213.39 148.474Z" fill="#3F3D56"/>
<path d="M183.088 202.988C182.89 202.988 182.694 202.94 182.518 202.848C182.342 202.757 182.191 202.625 182.077 202.463C181.963 202.3 181.891 202.113 181.865 201.917C181.839 201.721 181.861 201.521 181.929 201.336C181.985 201.184 182.069 201.044 182.179 200.925C182.289 200.806 182.421 200.71 182.568 200.643L240.8 173.661C240.947 173.593 241.106 173.555 241.267 173.548C241.429 173.541 241.591 173.566 241.743 173.621C241.895 173.677 242.034 173.762 242.154 173.871C242.273 173.98 242.369 174.112 242.437 174.258C242.575 174.554 242.589 174.892 242.477 175.198C242.365 175.504 242.135 175.753 241.839 175.891H241.839L183.607 202.872C183.444 202.948 183.267 202.987 183.088 202.988Z" fill="#3F3D56"/>
<path d="M228.639 159.485L211.993 167.198L238.104 223.243L254.75 215.531L228.639 159.485Z" fill="#E6E6E6"/>
<path d="M166.153 88.933C163.04 90.3784 162.988 96.8524 163.964 98.9501L165.733 102.747L177.009 97.5224L175.24 93.7255C174.262 91.6287 169.268 87.4925 166.153 88.933Z" fill="#3F3D56"/>
<path d="M235.903 231.521L230.781 233.894C230.011 234.273 229.138 234.391 228.295 234.229C227.551 234.053 227.049 233.6 226.917 232.984L225.725 227.433C225.5 226.385 226.369 225.146 227.793 224.487L230.621 223.176C232.044 222.517 233.555 222.653 234.212 223.5L237.698 227.989C238.085 228.486 238.108 229.162 237.763 229.842C237.344 230.589 236.69 231.179 235.903 231.521Z" fill="#3F3D56"/>
<path d="M220.155 239.313L215.033 241.686C214.263 242.065 213.39 242.183 212.547 242.02C211.803 241.845 211.301 241.392 211.169 240.776L209.977 235.224C209.752 234.177 210.621 232.938 212.045 232.279L214.873 230.968C216.296 230.309 217.807 230.445 218.464 231.292L221.95 235.78C222.337 236.278 222.36 236.954 222.015 237.633C221.596 238.381 220.942 238.971 220.155 239.313Z" fill="#3F3D56"/>
<path d="M185.844 109.477L169.198 117.19L221.979 230.48L238.624 222.767L185.844 109.477Z" fill="#E6E6E6"/>
<path d="M203.115 167.878L201.247 163.779L202.322 163.285L204.184 167.371L231.148 226.991L230.074 227.489" fill="#3F3D56"/>
<path d="M224.181 164.471L222.313 160.373L223.389 159.878L225.251 163.964L252.214 223.584L251.14 224.082" fill="#3F3D56"/>
<path d="M193.7 118.544L171.146 128.994C169.71 126.766 165.382 115.35 166.354 111.962L165.624 108.732L181.197 101.517L183.281 104.074C186.376 105.021 192.399 115.744 193.7 118.544Z" fill="#E6E6E6"/>
<path d="M181.848 101.655L165.778 109.101C165.185 109.376 164.553 109.275 164.367 108.875C164.34 108.818 164.324 108.756 164.318 108.693L163.486 99.8441C163.45 99.4652 163.775 99.0358 164.272 98.8057L174.93 93.8677C175.426 93.6376 175.965 93.6668 176.232 93.9383L182.477 100.279C182.796 100.603 182.623 101.158 182.09 101.519C182.013 101.57 181.932 101.616 181.848 101.655Z" fill="#E6E6E6"/>
<path d="M194.452 170.98C194.278 170.981 194.105 170.96 193.936 170.919C193.698 170.87 193.474 170.767 193.282 170.618C193.089 170.469 192.934 170.279 192.827 170.061L183.002 148.972C182.595 148.099 183.141 146.982 184.219 146.483L198.605 139.817C199.683 139.317 200.89 139.622 201.297 140.495L211.122 161.584C211.22 161.806 211.266 162.047 211.256 162.29C211.247 162.532 211.181 162.769 211.065 162.983C210.813 163.466 210.404 163.85 209.905 164.072L195.519 170.738C195.185 170.895 194.821 170.978 194.452 170.98Z" fill="#3F3D56"/>
<path d="M196.42 174.172L179.774 181.885L205.885 237.931L222.531 230.218L196.42 174.172Z" fill="#E6E6E6"/>
<path d="M175.913 102.579L171.032 104.841C170.09 105.277 168.819 104.55 168.199 103.22C167.58 101.89 167.842 100.452 168.784 100.016L173.665 97.7541C174.607 97.3176 175.878 98.0449 176.498 99.375C177.117 100.705 176.855 102.143 175.913 102.579Z" fill="#3F3D56"/>
<path d="M181.496 163.011C178.383 164.456 178.332 170.93 179.308 173.028L181.077 176.825L192.353 171.6L190.584 167.803C189.606 165.707 184.612 161.57 181.496 163.011Z" fill="#3F3D56"/>
<path d="M129.785 150.088C128.685 150.819 127.56 149.08 128.681 148.382C129.78 147.651 130.905 149.39 129.785 150.088Z" fill="#E6E6E6"/>
<path d="M244.226 125.105C243.127 125.835 242.001 124.097 243.122 123.399C244.221 122.668 245.346 124.407 244.226 125.105Z" fill="#E6E6E6"/>
<path d="M166.224 144.978C165.125 145.709 163.999 143.97 165.12 143.272C166.219 142.541 167.345 144.28 166.224 144.978Z" fill="#E6E6E6"/>
<path d="M129.785 213.114C128.685 213.845 127.56 212.106 128.681 211.408C129.78 210.677 130.905 212.416 129.785 213.114Z" fill="#E6E6E6"/>
<path d="M185.866 70.8799C184.766 71.6105 183.641 69.8718 184.762 69.1737C185.861 68.4432 186.986 70.1819 185.866 70.8799Z" fill="#E6E6E6"/>
<path d="M131.777 104.38C130.677 105.111 129.552 103.372 130.673 102.674C131.772 101.943 132.897 103.682 131.777 104.38Z" fill="#E6E6E6"/>
<path d="M209.574 94.7764L208.875 94.6234L209.028 93.9255L208.562 93.8236L208.408 94.5214L207.709 94.3687L207.606 94.8337L208.306 94.9867L208.153 95.6843L208.619 95.7862L208.772 95.0884L209.472 95.2414L209.574 94.7764Z" fill="#E6E6E6"/>
<path d="M95.675 152.913L94.9756 152.76L95.1287 152.062L94.6624 151.96L94.509 152.658L93.8092 152.505L93.707 152.97L94.4068 153.123L94.2536 153.821L94.7199 153.923L94.8734 153.225L95.5728 153.378L95.675 152.913Z" fill="#E6E6E6"/>
<path d="M239.121 182.569C238.538 182.838 237.873 182.865 237.271 182.646C236.668 182.426 236.178 181.977 235.907 181.397L233.028 175.218C232.758 174.637 232.731 173.974 232.951 173.374C233.172 172.773 233.622 172.285 234.204 172.015C234.785 171.746 235.45 171.718 236.053 171.937C236.655 172.156 237.146 172.605 237.417 173.184L240.296 179.363C240.565 179.944 240.593 180.607 240.373 181.208C240.152 181.809 239.702 182.298 239.121 182.569Z" fill="#3F3D56"/>
<path d="M190.156 205.281C189.574 205.55 188.908 205.577 188.306 205.358C187.703 205.138 187.213 204.689 186.942 204.109L184.063 197.93C183.793 197.349 183.766 196.686 183.986 196.086C184.207 195.485 184.658 194.997 185.239 194.727C185.821 194.458 186.486 194.429 187.088 194.649C187.69 194.868 188.181 195.316 188.452 195.896L191.331 202.075C191.6 202.656 191.628 203.319 191.408 203.92C191.188 204.521 190.737 205.01 190.156 205.281Z" fill="#3F3D56"/>
<path d="M234.685 169.068L215.382 178.012C214.153 176.105 210.449 166.334 211.281 163.435L211.689 160.192L223.215 154.553L225.768 156.684C229.367 155.47 234.656 164.362 234.685 169.068Z" fill="#E6E6E6"/>
<path d="M225.724 168.448L220.843 170.709C219.901 171.146 218.468 170.07 217.649 168.311C216.829 166.553 216.929 164.766 217.871 164.33L222.752 162.068C223.694 161.632 225.128 162.708 225.947 164.466C226.766 166.225 226.666 168.011 225.724 168.448Z" fill="#3F3D56"/>
<path d="M184.326 180.086L182.458 175.987L183.533 175.493L185.395 179.578L212.359 239.199L211.285 239.697" fill="#3F3D56"/>
<path d="M202.792 183.604L183.489 192.548C180.642 191.082 176.289 181.487 179.387 177.972L179.796 174.729L191.321 169.09L193.875 171.22C196.524 172.031 201.679 181.208 202.792 183.604Z" fill="#E6E6E6"/>
<path d="M193.433 182.132L188.552 184.393C187.61 184.83 186.266 183.945 185.556 182.422C184.846 180.898 185.035 179.303 185.977 178.866L190.858 176.605C191.8 176.168 193.144 177.053 193.854 178.577C194.564 180.1 194.375 181.695 193.433 182.132Z" fill="#3F3D56"/>
<path d="M95.6032 140.667C111.797 140.667 124.925 127.575 124.925 111.426C124.925 95.2759 111.797 82.184 95.6032 82.184C79.4091 82.184 66.2812 95.2759 66.2812 111.426C66.2812 127.575 79.4091 140.667 95.6032 140.667Z" fill="#E7E1A0"/>
<path opacity="0.3" d="M215.827 141.882L233.646 89.9827L214.079 141.261C213.982 141.383 213.916 141.526 213.886 141.678C213.856 141.83 213.862 141.988 213.905 142.137C213.948 142.286 214.026 142.423 214.133 142.537C214.239 142.65 214.371 142.736 214.518 142.788C214.665 142.84 214.822 142.857 214.976 142.837C215.13 142.816 215.278 142.759 215.406 142.671C215.534 142.582 215.639 142.464 215.712 142.327C215.785 142.19 215.824 142.038 215.827 141.882H215.827Z" fill="#F0F0F0"/>
<path d="M261.248 110.947C257.76 112.103 253.893 113.238 249.647 114.354C227.686 120.12 198.249 124.618 166.759 127.019C135.269 129.421 105.488 129.438 82.9026 127.069C71.9006 125.914 63.1986 124.254 57.0385 122.134C50.5167 119.89 47.0898 117.185 46.8528 114.096C46.3915 108.077 58.3005 102.78 68.3723 99.3962L68.645 100.203C54.8139 104.85 47.3771 109.761 47.7045 114.031C48.1214 119.47 60.9832 123.913 82.992 126.222C105.528 128.586 135.253 128.568 166.694 126.17C198.134 123.773 227.517 119.284 249.43 113.53C270.83 107.911 282.866 101.57 282.449 96.1311C282.102 91.6157 273.177 87.7531 257.318 85.2542L257.451 84.413C268.975 86.2287 282.814 89.7242 283.3 96.0661C283.537 99.1555 280.562 102.348 274.458 105.555C270.979 107.383 266.558 109.187 261.248 110.947Z" fill="#3F3D56"/>
<path d="M269.864 162.81C271.547 162.81 272.911 161.449 272.911 159.771C272.911 158.093 271.547 156.733 269.864 156.733C268.181 156.733 266.817 158.093 266.817 159.771C266.817 161.449 268.181 162.81 269.864 162.81Z" fill="#FF6584"/>
<path d="M289.223 245.141C290.906 245.141 292.27 243.781 292.27 242.102C292.27 240.424 290.906 239.064 289.223 239.064C287.541 239.064 286.177 240.424 286.177 242.102C286.177 243.781 287.541 245.141 289.223 245.141Z" fill="#F2F2F2"/>
<path d="M185.315 263.641C188.596 263.641 191.255 260.989 191.255 257.717C191.255 254.445 188.596 251.793 185.315 251.793C182.034 251.793 179.375 254.445 179.375 257.717C179.375 260.989 182.034 263.641 185.315 263.641Z" fill="#F2F2F2"/>
<path d="M140.052 185.238C141.734 185.238 143.098 183.878 143.098 182.2C143.098 180.521 141.734 179.161 140.052 179.161C138.369 179.161 137.005 180.521 137.005 182.2C137.005 183.878 138.369 185.238 140.052 185.238Z" fill="#3F3D56"/>
<path d="M242.479 189.193L255.625 192.586L263.687 208.379L250.057 208.912L242.479 189.193Z" fill="#E6E6E6"/>
<path d="M212.138 166.425L219.373 173.644L237.748 213.264L234.365 216.179L212.138 166.425Z" fill="#CCCCCC"/>
<path d="M196.406 172.969L196.974 183.16L214.318 223.239L218.752 222.67L196.406 172.969Z" fill="#CCCCCC"/>
<path d="M195.933 214.139L188.854 225.694L194.073 242.634L204.239 233.564L195.933 214.139Z" fill="#E6E6E6"/>
<path d="M258.472 221.239C254.797 221.239 250.768 221.1 246.386 220.823C223.722 219.388 194.364 214.398 163.722 206.772C133.08 199.147 104.813 189.797 84.13 180.445C74.0545 175.889 66.3216 171.577 61.1463 167.628C55.6671 163.447 53.2704 159.802 54.0226 156.796C55.4881 150.94 68.4646 149.658 79.0925 149.615L79.0961 150.466C64.5012 150.526 55.8909 152.847 54.8513 157.002C53.527 162.294 64.3273 170.556 84.4826 179.669C105.121 189.001 133.335 198.333 163.929 205.946C194.523 213.559 223.826 218.541 246.44 219.973C268.525 221.372 281.952 219.139 283.276 213.847C284.375 209.453 277.127 202.981 262.868 195.621L263.26 194.865C273.622 200.212 285.649 207.882 284.105 214.053C283.352 217.06 279.52 219.154 272.713 220.277C268.833 220.918 264.068 221.239 258.472 221.239Z" fill="#3F3D56"/>
</g>
<defs>
<clipPath id="clip0_199_302">
<rect width="256.899" height="234.56" fill="white" transform="translate(46.8398 53.2701)"/>
</clipPath>
</defs>
</svg>
