<svg width="362" height="415" viewBox="0 0 362 415" fill="none" xmlns="http://www.w3.org/2000/svg">
<rect x="0.165039" width="361.721" height="414.991" rx="15.4655" fill="#EFF1F3"/>
<rect x="32.8145" y="36.9454" width="295.563" height="257.759" fill="white"/>
<path d="M61.9366 334.904H65.3446C66.0166 334.904 66.6646 334.936 67.2886 335C67.9126 335.048 68.5126 335.152 69.0886 335.312C69.6646 335.472 70.2246 335.696 70.7686 335.984C71.3286 336.256 71.8726 336.624 72.4006 337.088C73.4406 337.984 74.2006 339.016 74.6806 340.184C75.1606 341.352 75.4006 342.616 75.4006 343.976C75.4006 345.304 75.1606 346.536 74.6806 347.672C74.2006 348.808 73.4566 349.824 72.4486 350.72C71.9046 351.2 71.3606 351.592 70.8166 351.896C70.2726 352.184 69.7046 352.416 69.1126 352.592C68.5366 352.752 67.9286 352.864 67.2886 352.928C66.6646 352.976 66.0006 353 65.2966 353H61.9366V334.904ZM65.4166 351.128C66.5206 351.128 67.5366 351.016 68.4646 350.792C69.4086 350.552 70.2966 350.04 71.1286 349.256C71.8806 348.552 72.4406 347.744 72.8086 346.832C73.1926 345.92 73.3846 344.96 73.3846 343.952C73.3846 342.912 73.1846 341.92 72.7846 340.976C72.4006 340.032 71.8166 339.216 71.0326 338.528C70.2006 337.792 69.3206 337.32 68.3926 337.112C67.4806 336.888 66.4886 336.776 65.4166 336.776H63.9526V351.128H65.4166ZM79.9782 348.008C79.9782 348.488 80.0022 348.944 80.0502 349.376C80.0982 349.792 80.2022 350.16 80.3622 350.48C80.5382 350.8 80.7942 351.056 81.1302 351.248C81.4822 351.44 81.9462 351.536 82.5222 351.536C83.0982 351.536 83.5542 351.44 83.8902 351.248C84.2422 351.056 84.4982 350.8 84.6582 350.48C84.8342 350.16 84.9462 349.792 84.9942 349.376C85.0422 348.944 85.0662 348.488 85.0662 348.008V341.72H86.9862V348.224C86.9862 348.976 86.9062 349.664 86.7462 350.288C86.6022 350.912 86.3542 351.448 86.0022 351.896C85.6502 352.344 85.1862 352.696 84.6102 352.952C84.0502 353.192 83.3542 353.312 82.5222 353.312C81.6902 353.312 80.9862 353.192 80.4102 352.952C79.8502 352.696 79.3942 352.344 79.0422 351.896C78.6902 351.448 78.4342 350.912 78.2742 350.288C78.1302 349.664 78.0582 348.976 78.0582 348.224V341.72H79.9782V348.008ZM92.3075 342.944H92.3555C92.6915 342.496 93.0355 342.128 93.3875 341.84C93.7395 341.552 94.2275 341.408 94.8515 341.408C95.1715 341.408 95.4675 341.456 95.7395 341.552C96.0275 341.648 96.3075 341.776 96.5795 341.936L95.6675 343.688C95.4755 343.56 95.2995 343.448 95.1395 343.352C94.9795 343.24 94.7715 343.184 94.5155 343.184C93.9875 343.184 93.5715 343.336 93.2675 343.64C92.9795 343.928 92.7635 344.288 92.6195 344.72C92.4755 345.152 92.3875 345.608 92.3555 346.088C92.3235 346.568 92.3075 346.992 92.3075 347.36V353H90.3875V341.72H92.3075V342.944ZM99.4825 347.768C99.4825 348.296 99.5705 348.792 99.7465 349.256C99.9385 349.704 100.195 350.096 100.515 350.432C100.851 350.768 101.243 351.04 101.691 351.248C102.139 351.44 102.635 351.536 103.179 351.536C103.995 351.536 104.675 351.32 105.219 350.888C105.779 350.44 106.243 349.88 106.611 349.208L108.243 350.144C107.699 351.152 106.979 351.936 106.083 352.496C105.203 353.04 104.187 353.312 103.035 353.312C102.203 353.312 101.443 353.16 100.755 352.856C100.083 352.552 99.5065 352.144 99.0265 351.632C98.5465 351.104 98.1705 350.488 97.8985 349.784C97.6425 349.08 97.5145 348.32 97.5145 347.504C97.5145 346.672 97.6345 345.888 97.8745 345.152C98.1145 344.4 98.4665 343.752 98.9305 343.208C99.3945 342.648 99.9625 342.208 100.635 341.888C101.323 341.568 102.107 341.408 102.987 341.408C103.899 341.408 104.699 341.584 105.387 341.936C106.075 342.272 106.643 342.736 107.091 343.328C107.555 343.92 107.891 344.6 108.099 345.368C108.307 346.12 108.387 346.92 108.339 347.768H99.4825ZM106.323 346.136C106.259 345.72 106.123 345.336 105.915 344.984C105.723 344.632 105.483 344.32 105.195 344.048C104.907 343.776 104.571 343.568 104.187 343.424C103.819 343.264 103.427 343.184 103.011 343.184C102.595 343.184 102.195 343.264 101.811 343.424C101.427 343.568 101.075 343.776 100.755 344.048C100.451 344.32 100.195 344.632 99.9865 344.984C99.7785 345.336 99.6425 345.72 99.5785 346.136H106.323ZM112.792 342.944H112.84C113.176 342.496 113.52 342.128 113.872 341.84C114.224 341.552 114.712 341.408 115.336 341.408C115.656 341.408 115.952 341.456 116.224 341.552C116.512 341.648 116.792 341.776 117.064 341.936L116.152 343.688C115.96 343.56 115.784 343.448 115.624 343.352C115.464 343.24 115.256 343.184 115 343.184C114.472 343.184 114.056 343.336 113.752 343.64C113.464 343.928 113.248 344.288 113.104 344.72C112.96 345.152 112.872 345.608 112.84 346.088C112.808 346.568 112.792 346.992 112.792 347.36V353H110.872V341.72H112.792V342.944ZM128.262 353H126.342V333.2H128.262V353ZM132.787 347.768C132.787 348.296 132.875 348.792 133.051 349.256C133.243 349.704 133.499 350.096 133.819 350.432C134.155 350.768 134.547 351.04 134.995 351.248C135.443 351.44 135.939 351.536 136.483 351.536C137.299 351.536 137.979 351.32 138.523 350.888C139.083 350.44 139.547 349.88 139.915 349.208L141.547 350.144C141.003 351.152 140.283 351.936 139.387 352.496C138.507 353.04 137.491 353.312 136.339 353.312C135.507 353.312 134.747 353.16 134.059 352.856C133.387 352.552 132.811 352.144 132.331 351.632C131.851 351.104 131.475 350.488 131.203 349.784C130.947 349.08 130.819 348.32 130.819 347.504C130.819 346.672 130.939 345.888 131.179 345.152C131.419 344.4 131.771 343.752 132.235 343.208C132.699 342.648 133.267 342.208 133.939 341.888C134.627 341.568 135.411 341.408 136.291 341.408C137.203 341.408 138.003 341.584 138.691 341.936C139.379 342.272 139.947 342.736 140.395 343.328C140.859 343.92 141.195 344.6 141.403 345.368C141.611 346.12 141.691 346.92 141.643 347.768H132.787ZM139.627 346.136C139.563 345.72 139.427 345.336 139.219 344.984C139.027 344.632 138.787 344.32 138.499 344.048C138.211 343.776 137.875 343.568 137.491 343.424C137.123 343.264 136.731 343.184 136.315 343.184C135.899 343.184 135.499 343.264 135.115 343.424C134.731 343.568 134.379 343.776 134.059 344.048C133.755 344.32 133.499 344.632 133.291 344.984C133.083 345.336 132.947 345.72 132.883 346.136H139.627ZM157.055 343.184C156.495 343.184 155.991 343.296 155.543 343.52C155.095 343.744 154.711 344.048 154.391 344.432C154.071 344.8 153.823 345.232 153.647 345.728C153.471 346.208 153.383 346.712 153.383 347.24C153.383 347.784 153.463 348.32 153.623 348.848C153.783 349.36 154.015 349.816 154.319 350.216C154.639 350.616 155.031 350.936 155.495 351.176C155.959 351.416 156.487 351.536 157.079 351.536C157.703 351.536 158.247 351.424 158.711 351.2C159.175 350.96 159.567 350.648 159.887 350.264C160.207 349.864 160.447 349.408 160.607 348.896C160.767 348.384 160.847 347.84 160.847 347.264C160.847 346.704 160.759 346.176 160.583 345.68C160.407 345.184 160.159 344.752 159.839 344.384C159.519 344.016 159.119 343.728 158.639 343.52C158.175 343.296 157.647 343.184 157.055 343.184ZM153.479 343.328H153.527C153.991 342.704 154.559 342.232 155.231 341.912C155.903 341.576 156.631 341.408 157.415 341.408C158.247 341.408 158.991 341.576 159.647 341.912C160.319 342.232 160.887 342.672 161.351 343.232C161.831 343.776 162.191 344.408 162.431 345.128C162.687 345.848 162.815 346.6 162.815 347.384C162.815 348.184 162.687 348.944 162.431 349.664C162.191 350.384 161.839 351.016 161.375 351.56C160.911 352.088 160.343 352.512 159.671 352.832C158.999 353.152 158.239 353.312 157.391 353.312C156.623 353.312 155.903 353.152 155.231 352.832C154.559 352.496 153.991 352.024 153.527 351.416H153.479V359.336H151.559V341.72H153.479V343.328ZM167.379 353H165.459V333.2H167.379V353ZM172.72 348.008C172.72 348.488 172.744 348.944 172.792 349.376C172.84 349.792 172.944 350.16 173.104 350.48C173.28 350.8 173.536 351.056 173.872 351.248C174.224 351.44 174.688 351.536 175.264 351.536C175.84 351.536 176.296 351.44 176.632 351.248C176.984 351.056 177.24 350.8 177.4 350.48C177.576 350.16 177.688 349.792 177.736 349.376C177.784 348.944 177.808 348.488 177.808 348.008V341.72H179.728V348.224C179.728 348.976 179.648 349.664 179.488 350.288C179.344 350.912 179.096 351.448 178.744 351.896C178.392 352.344 177.928 352.696 177.352 352.952C176.792 353.192 176.096 353.312 175.264 353.312C174.432 353.312 173.728 353.192 173.152 352.952C172.592 352.696 172.136 352.344 171.784 351.896C171.432 351.448 171.176 350.912 171.016 350.288C170.872 349.664 170.8 348.976 170.8 348.224V341.72H172.72V348.008ZM187.786 344.336C187.658 344.032 187.458 343.768 187.186 343.544C186.914 343.304 186.602 343.184 186.25 343.184C185.914 343.184 185.594 343.304 185.29 343.544C185.002 343.768 184.858 344.064 184.858 344.432C184.858 344.688 184.93 344.912 185.074 345.104C185.234 345.28 185.434 345.448 185.674 345.608C185.914 345.752 186.186 345.888 186.49 346.016C186.81 346.128 187.138 346.256 187.474 346.4C187.81 346.544 188.13 346.704 188.434 346.88C188.754 347.056 189.034 347.272 189.274 347.528C189.514 347.768 189.706 348.064 189.85 348.416C190.01 348.752 190.09 349.16 190.09 349.64C190.09 350.168 189.986 350.664 189.778 351.128C189.586 351.576 189.314 351.96 188.962 352.28C188.61 352.6 188.202 352.848 187.738 353.024C187.29 353.216 186.802 353.312 186.274 353.312C185.314 353.312 184.482 353.064 183.778 352.568C183.09 352.056 182.594 351.352 182.29 350.456L183.994 349.736C184.234 350.264 184.514 350.696 184.834 351.032C185.17 351.368 185.658 351.536 186.298 351.536C186.81 351.536 187.242 351.376 187.594 351.056C187.946 350.736 188.122 350.32 188.122 349.808C188.122 349.392 187.994 349.056 187.738 348.8C187.498 348.544 187.186 348.32 186.802 348.128C186.418 347.936 186.01 347.76 185.578 347.6C185.146 347.424 184.738 347.216 184.354 346.976C183.97 346.72 183.65 346.408 183.394 346.04C183.154 345.672 183.034 345.192 183.034 344.6C183.034 344.12 183.122 343.688 183.298 343.304C183.474 342.904 183.714 342.568 184.018 342.296C184.338 342.008 184.698 341.792 185.098 341.648C185.514 341.488 185.946 341.408 186.394 341.408C187.05 341.408 187.65 341.608 188.194 342.008C188.738 342.408 189.138 342.904 189.394 343.496L187.786 344.336ZM202.066 353H200.146V333.2H202.066V353ZM210.552 353.312C209.736 353.312 208.968 353.16 208.248 352.856C207.528 352.552 206.896 352.136 206.352 351.608C205.824 351.064 205.4 350.432 205.08 349.712C204.776 348.992 204.624 348.216 204.624 347.384C204.624 346.552 204.776 345.776 205.08 345.056C205.384 344.32 205.8 343.688 206.328 343.16C206.872 342.616 207.504 342.192 208.224 341.888C208.944 341.568 209.72 341.408 210.552 341.408C211.384 341.408 212.16 341.568 212.88 341.888C213.6 342.192 214.224 342.616 214.752 343.16C215.296 343.688 215.72 344.32 216.024 345.056C216.328 345.776 216.48 346.552 216.48 347.384C216.48 348.216 216.32 348.992 216 349.712C215.696 350.432 215.272 351.064 214.728 351.608C214.2 352.136 213.576 352.552 212.856 352.856C212.136 353.16 211.368 353.312 210.552 353.312ZM210.552 343.184C209.96 343.184 209.416 343.296 208.92 343.52C208.424 343.744 208 344.048 207.648 344.432C207.296 344.8 207.024 345.24 206.832 345.752C206.64 346.248 206.544 346.784 206.544 347.36C206.544 347.936 206.64 348.48 206.832 348.992C207.024 349.488 207.296 349.928 207.648 350.312C208 350.696 208.424 351 208.92 351.224C209.416 351.432 209.96 351.536 210.552 351.536C211.144 351.536 211.688 351.432 212.184 351.224C212.68 351 213.104 350.696 213.456 350.312C213.808 349.928 214.08 349.488 214.272 348.992C214.464 348.48 214.56 347.936 214.56 347.36C214.56 346.784 214.464 346.248 214.272 345.752C214.08 345.24 213.808 344.8 213.456 344.432C213.104 344.048 212.68 343.744 212.184 343.52C211.688 343.296 211.144 343.184 210.552 343.184ZM221.028 343.088H221.076C221.476 342.544 221.932 342.128 222.444 341.84C222.972 341.552 223.588 341.408 224.292 341.408C225.076 341.408 225.716 341.544 226.212 341.816C226.708 342.072 227.1 342.424 227.388 342.872C227.676 343.32 227.868 343.84 227.964 344.432C228.076 345.024 228.132 345.648 228.132 346.304V353H226.212V346.64C226.212 346.176 226.188 345.736 226.14 345.32C226.108 344.904 226.012 344.544 225.852 344.24C225.708 343.92 225.476 343.664 225.156 343.472C224.836 343.28 224.396 343.184 223.836 343.184C223.18 343.184 222.66 343.32 222.276 343.592C221.908 343.864 221.628 344.216 221.436 344.648C221.26 345.08 221.148 345.56 221.1 346.088C221.052 346.616 221.028 347.136 221.028 347.648V353H219.108V341.72H221.028V343.088ZM236.348 343.184C235.788 343.184 235.284 343.296 234.836 343.52C234.388 343.744 234.004 344.048 233.684 344.432C233.364 344.8 233.116 345.232 232.94 345.728C232.764 346.208 232.676 346.712 232.676 347.24C232.676 347.784 232.756 348.32 232.916 348.848C233.076 349.36 233.308 349.816 233.612 350.216C233.932 350.616 234.324 350.936 234.788 351.176C235.252 351.416 235.78 351.536 236.372 351.536C236.996 351.536 237.54 351.424 238.004 351.2C238.468 350.96 238.86 350.648 239.18 350.264C239.5 349.864 239.74 349.408 239.9 348.896C240.06 348.384 240.14 347.84 240.14 347.264C240.14 346.704 240.052 346.176 239.876 345.68C239.7 345.184 239.452 344.752 239.132 344.384C238.812 344.016 238.412 343.728 237.932 343.52C237.468 343.296 236.94 343.184 236.348 343.184ZM241.964 352.448C241.964 352.896 241.956 353.328 241.94 353.744C241.94 354.176 241.9 354.592 241.82 354.992C241.756 355.392 241.644 355.784 241.484 356.168C241.324 356.552 241.1 356.928 240.812 357.296C240.284 357.968 239.636 358.464 238.868 358.784C238.1 359.12 237.292 359.288 236.444 359.288C235.66 359.288 234.932 359.168 234.26 358.928C233.588 358.688 233.004 358.344 232.508 357.896C232.028 357.448 231.644 356.904 231.356 356.264C231.068 355.624 230.916 354.904 230.9 354.104H232.82C232.836 355.16 233.18 355.992 233.852 356.6C234.524 357.208 235.38 357.512 236.42 357.512C237.172 357.512 237.78 357.384 238.244 357.128C238.708 356.872 239.076 356.528 239.348 356.096C239.62 355.664 239.804 355.16 239.9 354.584C239.996 354.024 240.044 353.424 240.044 352.784V351.44H239.996C239.532 352.032 238.956 352.496 238.268 352.832C237.58 353.152 236.852 353.312 236.084 353.312C235.268 353.312 234.524 353.152 233.852 352.832C233.196 352.512 232.628 352.08 232.148 351.536C231.684 350.992 231.324 350.368 231.068 349.664C230.828 348.944 230.708 348.192 230.708 347.408C230.708 346.608 230.836 345.848 231.092 345.128C231.348 344.408 231.708 343.776 232.172 343.232C232.652 342.672 233.228 342.232 233.9 341.912C234.572 341.576 235.324 341.408 236.156 341.408C236.94 341.408 237.66 341.576 238.316 341.912C238.972 342.248 239.532 342.72 239.996 343.328H240.044V341.72H241.964V352.448ZM247.726 353H245.806V343.496H244.63V341.72H245.806V337.664H247.726V341.72H249.742V343.496H247.726V353ZM252.436 347.768C252.436 348.296 252.524 348.792 252.7 349.256C252.892 349.704 253.148 350.096 253.468 350.432C253.804 350.768 254.196 351.04 254.644 351.248C255.092 351.44 255.588 351.536 256.132 351.536C256.948 351.536 257.628 351.32 258.172 350.888C258.732 350.44 259.196 349.88 259.564 349.208L261.196 350.144C260.652 351.152 259.932 351.936 259.036 352.496C258.156 353.04 257.14 353.312 255.988 353.312C255.156 353.312 254.396 353.16 253.708 352.856C253.036 352.552 252.46 352.144 251.98 351.632C251.5 351.104 251.124 350.488 250.852 349.784C250.596 349.08 250.468 348.32 250.468 347.504C250.468 346.672 250.588 345.888 250.828 345.152C251.068 344.4 251.42 343.752 251.884 343.208C252.348 342.648 252.916 342.208 253.588 341.888C254.276 341.568 255.06 341.408 255.94 341.408C256.852 341.408 257.652 341.584 258.34 341.936C259.028 342.272 259.596 342.736 260.044 343.328C260.508 343.92 260.844 344.6 261.052 345.368C261.26 346.12 261.34 346.92 261.292 347.768H252.436ZM259.276 346.136C259.212 345.72 259.076 345.336 258.868 344.984C258.676 344.632 258.436 344.32 258.148 344.048C257.86 343.776 257.524 343.568 257.14 343.424C256.772 343.264 256.38 343.184 255.964 343.184C255.548 343.184 255.148 343.264 254.764 343.424C254.38 343.568 254.028 343.776 253.708 344.048C253.404 344.32 253.148 344.632 252.94 344.984C252.732 345.336 252.596 345.72 252.532 346.136H259.276ZM265.841 342.944H265.889C266.193 342.48 266.577 342.112 267.041 341.84C267.505 341.552 268.025 341.408 268.601 341.408C269.273 341.408 269.881 341.576 270.425 341.912C270.985 342.232 271.417 342.688 271.721 343.28C272.057 342.656 272.529 342.192 273.137 341.888C273.761 341.568 274.417 341.408 275.105 341.408C275.825 341.408 276.417 341.544 276.881 341.816C277.345 342.088 277.713 342.448 277.985 342.896C278.257 343.328 278.441 343.832 278.537 344.408C278.649 344.968 278.705 345.544 278.705 346.136V353H276.785V346.448C276.785 346.08 276.769 345.704 276.737 345.32C276.705 344.936 276.617 344.584 276.473 344.264C276.345 343.944 276.145 343.688 275.873 343.496C275.601 343.288 275.217 343.184 274.721 343.184C274.177 343.184 273.737 343.304 273.401 343.544C273.081 343.784 272.833 344.096 272.657 344.48C272.497 344.848 272.393 345.256 272.345 345.704C272.297 346.152 272.273 346.592 272.273 347.024V353H270.353V346.592C270.353 346.24 270.329 345.864 270.281 345.464C270.249 345.064 270.161 344.696 270.017 344.36C269.889 344.024 269.689 343.744 269.417 343.52C269.161 343.296 268.801 343.184 268.337 343.184C267.777 343.184 267.329 343.312 266.993 343.568C266.657 343.824 266.401 344.152 266.225 344.552C266.065 344.936 265.961 345.36 265.913 345.824C265.865 346.288 265.841 346.736 265.841 347.168V353H263.921V341.72H265.841V342.944ZM287.743 343.184C287.183 343.184 286.679 343.296 286.231 343.52C285.783 343.744 285.399 344.048 285.079 344.432C284.759 344.8 284.511 345.232 284.335 345.728C284.159 346.208 284.071 346.712 284.071 347.24C284.071 347.784 284.151 348.32 284.311 348.848C284.471 349.36 284.703 349.816 285.007 350.216C285.327 350.616 285.719 350.936 286.183 351.176C286.647 351.416 287.175 351.536 287.767 351.536C288.391 351.536 288.935 351.424 289.399 351.2C289.863 350.96 290.255 350.648 290.575 350.264C290.895 349.864 291.135 349.408 291.295 348.896C291.455 348.384 291.535 347.84 291.535 347.264C291.535 346.704 291.447 346.176 291.271 345.68C291.095 345.184 290.847 344.752 290.527 344.384C290.207 344.016 289.807 343.728 289.327 343.52C288.863 343.296 288.335 343.184 287.743 343.184ZM284.167 343.328H284.215C284.679 342.704 285.247 342.232 285.919 341.912C286.591 341.576 287.319 341.408 288.103 341.408C288.935 341.408 289.679 341.576 290.335 341.912C291.007 342.232 291.575 342.672 292.039 343.232C292.519 343.776 292.879 344.408 293.119 345.128C293.375 345.848 293.503 346.6 293.503 347.384C293.503 348.184 293.375 348.944 293.119 349.664C292.879 350.384 292.527 351.016 292.063 351.56C291.599 352.088 291.031 352.512 290.359 352.832C289.687 353.152 288.927 353.312 288.079 353.312C287.311 353.312 286.591 353.152 285.919 352.832C285.247 352.496 284.679 352.024 284.215 351.416H284.167V359.336H282.247V341.72H284.167V343.328ZM300.754 344.336C300.626 344.032 300.426 343.768 300.154 343.544C299.882 343.304 299.57 343.184 299.218 343.184C298.882 343.184 298.562 343.304 298.258 343.544C297.97 343.768 297.826 344.064 297.826 344.432C297.826 344.688 297.898 344.912 298.042 345.104C298.202 345.28 298.402 345.448 298.642 345.608C298.882 345.752 299.154 345.888 299.458 346.016C299.778 346.128 300.106 346.256 300.442 346.4C300.778 346.544 301.098 346.704 301.402 346.88C301.722 347.056 302.002 347.272 302.242 347.528C302.482 347.768 302.674 348.064 302.818 348.416C302.978 348.752 303.058 349.16 303.058 349.64C303.058 350.168 302.954 350.664 302.746 351.128C302.554 351.576 302.282 351.96 301.93 352.28C301.578 352.6 301.17 352.848 300.706 353.024C300.258 353.216 299.77 353.312 299.242 353.312C298.282 353.312 297.45 353.064 296.746 352.568C296.058 352.056 295.562 351.352 295.258 350.456L296.962 349.736C297.202 350.264 297.482 350.696 297.802 351.032C298.138 351.368 298.626 351.536 299.266 351.536C299.778 351.536 300.21 351.376 300.562 351.056C300.914 350.736 301.09 350.32 301.09 349.808C301.09 349.392 300.962 349.056 300.706 348.8C300.466 348.544 300.154 348.32 299.77 348.128C299.386 347.936 298.978 347.76 298.546 347.6C298.114 347.424 297.706 347.216 297.322 346.976C296.938 346.72 296.618 346.408 296.362 346.04C296.122 345.672 296.002 345.192 296.002 344.6C296.002 344.12 296.09 343.688 296.266 343.304C296.442 342.904 296.682 342.568 296.986 342.296C297.306 342.008 297.666 341.792 298.066 341.648C298.482 341.488 298.914 341.408 299.362 341.408C300.018 341.408 300.618 341.608 301.162 342.008C301.706 342.408 302.106 342.904 302.362 343.496L300.754 344.336ZM147.001 371.184C146.441 371.184 145.937 371.296 145.489 371.52C145.041 371.744 144.657 372.048 144.337 372.432C144.017 372.8 143.769 373.232 143.593 373.728C143.417 374.208 143.329 374.712 143.329 375.24C143.329 375.784 143.409 376.32 143.569 376.848C143.729 377.36 143.961 377.816 144.265 378.216C144.585 378.616 144.977 378.936 145.441 379.176C145.905 379.416 146.433 379.536 147.025 379.536C147.649 379.536 148.193 379.424 148.657 379.2C149.121 378.96 149.513 378.648 149.833 378.264C150.153 377.864 150.393 377.408 150.553 376.896C150.713 376.384 150.793 375.84 150.793 375.264C150.793 374.704 150.705 374.176 150.529 373.68C150.353 373.184 150.105 372.752 149.785 372.384C149.465 372.016 149.065 371.728 148.585 371.52C148.121 371.296 147.593 371.184 147.001 371.184ZM143.425 371.328H143.473C143.937 370.704 144.505 370.232 145.177 369.912C145.849 369.576 146.577 369.408 147.361 369.408C148.193 369.408 148.937 369.576 149.593 369.912C150.265 370.232 150.833 370.672 151.297 371.232C151.777 371.776 152.137 372.408 152.377 373.128C152.633 373.848 152.761 374.6 152.761 375.384C152.761 376.184 152.633 376.944 152.377 377.664C152.137 378.384 151.785 379.016 151.321 379.56C150.857 380.088 150.289 380.512 149.617 380.832C148.945 381.152 148.185 381.312 147.337 381.312C146.569 381.312 145.849 381.152 145.177 380.832C144.505 380.496 143.937 380.024 143.473 379.416H143.425V387.336H141.505V369.72H143.425V371.328ZM160.372 381.312C159.556 381.312 158.788 381.16 158.068 380.856C157.348 380.552 156.716 380.136 156.172 379.608C155.644 379.064 155.22 378.432 154.9 377.712C154.596 376.992 154.444 376.216 154.444 375.384C154.444 374.552 154.596 373.776 154.9 373.056C155.204 372.32 155.62 371.688 156.148 371.16C156.692 370.616 157.324 370.192 158.044 369.888C158.764 369.568 159.54 369.408 160.372 369.408C161.204 369.408 161.98 369.568 162.7 369.888C163.42 370.192 164.044 370.616 164.572 371.16C165.116 371.688 165.54 372.32 165.844 373.056C166.148 373.776 166.3 374.552 166.3 375.384C166.3 376.216 166.14 376.992 165.82 377.712C165.516 378.432 165.092 379.064 164.548 379.608C164.02 380.136 163.396 380.552 162.676 380.856C161.956 381.16 161.188 381.312 160.372 381.312ZM160.372 371.184C159.78 371.184 159.236 371.296 158.74 371.52C158.244 371.744 157.82 372.048 157.468 372.432C157.116 372.8 156.844 373.24 156.652 373.752C156.46 374.248 156.364 374.784 156.364 375.36C156.364 375.936 156.46 376.48 156.652 376.992C156.844 377.488 157.116 377.928 157.468 378.312C157.82 378.696 158.244 379 158.74 379.224C159.236 379.432 159.78 379.536 160.372 379.536C160.964 379.536 161.508 379.432 162.004 379.224C162.5 379 162.924 378.696 163.276 378.312C163.628 377.928 163.9 377.488 164.092 376.992C164.284 376.48 164.38 375.936 164.38 375.36C164.38 374.784 164.284 374.248 164.092 373.752C163.9 373.24 163.628 372.8 163.276 372.432C162.924 372.048 162.5 371.744 162.004 371.52C161.508 371.296 160.964 371.184 160.372 371.184ZM173.489 372.336C173.361 372.032 173.161 371.768 172.889 371.544C172.617 371.304 172.305 371.184 171.953 371.184C171.617 371.184 171.297 371.304 170.993 371.544C170.705 371.768 170.561 372.064 170.561 372.432C170.561 372.688 170.633 372.912 170.777 373.104C170.937 373.28 171.137 373.448 171.377 373.608C171.617 373.752 171.889 373.888 172.193 374.016C172.513 374.128 172.841 374.256 173.177 374.4C173.513 374.544 173.833 374.704 174.137 374.88C174.457 375.056 174.737 375.272 174.977 375.528C175.217 375.768 175.409 376.064 175.553 376.416C175.713 376.752 175.793 377.16 175.793 377.64C175.793 378.168 175.689 378.664 175.481 379.128C175.289 379.576 175.017 379.96 174.665 380.28C174.313 380.6 173.905 380.848 173.441 381.024C172.993 381.216 172.505 381.312 171.977 381.312C171.017 381.312 170.185 381.064 169.481 380.568C168.793 380.056 168.297 379.352 167.993 378.456L169.697 377.736C169.937 378.264 170.217 378.696 170.537 379.032C170.873 379.368 171.361 379.536 172.001 379.536C172.513 379.536 172.945 379.376 173.297 379.056C173.649 378.736 173.825 378.32 173.825 377.808C173.825 377.392 173.697 377.056 173.441 376.8C173.201 376.544 172.889 376.32 172.505 376.128C172.121 375.936 171.713 375.76 171.281 375.6C170.849 375.424 170.441 375.216 170.057 374.976C169.673 374.72 169.353 374.408 169.097 374.04C168.857 373.672 168.737 373.192 168.737 372.6C168.737 372.12 168.825 371.688 169.001 371.304C169.177 370.904 169.417 370.568 169.721 370.296C170.041 370.008 170.401 369.792 170.801 369.648C171.217 369.488 171.649 369.408 172.097 369.408C172.753 369.408 173.353 369.608 173.897 370.008C174.441 370.408 174.841 370.904 175.097 371.496L173.489 372.336ZM183.075 372.336C182.947 372.032 182.747 371.768 182.475 371.544C182.203 371.304 181.891 371.184 181.539 371.184C181.203 371.184 180.883 371.304 180.579 371.544C180.291 371.768 180.147 372.064 180.147 372.432C180.147 372.688 180.219 372.912 180.363 373.104C180.523 373.28 180.723 373.448 180.963 373.608C181.203 373.752 181.475 373.888 181.779 374.016C182.099 374.128 182.427 374.256 182.763 374.4C183.099 374.544 183.419 374.704 183.723 374.88C184.043 375.056 184.323 375.272 184.563 375.528C184.803 375.768 184.995 376.064 185.139 376.416C185.299 376.752 185.379 377.16 185.379 377.64C185.379 378.168 185.275 378.664 185.067 379.128C184.875 379.576 184.603 379.96 184.251 380.28C183.899 380.6 183.491 380.848 183.027 381.024C182.579 381.216 182.091 381.312 181.563 381.312C180.603 381.312 179.771 381.064 179.067 380.568C178.379 380.056 177.883 379.352 177.579 378.456L179.283 377.736C179.523 378.264 179.803 378.696 180.123 379.032C180.459 379.368 180.947 379.536 181.587 379.536C182.099 379.536 182.531 379.376 182.883 379.056C183.235 378.736 183.411 378.32 183.411 377.808C183.411 377.392 183.283 377.056 183.027 376.8C182.787 376.544 182.475 376.32 182.091 376.128C181.707 375.936 181.299 375.76 180.867 375.6C180.435 375.424 180.027 375.216 179.643 374.976C179.259 374.72 178.939 374.408 178.683 374.04C178.443 373.672 178.323 373.192 178.323 372.6C178.323 372.12 178.411 371.688 178.587 371.304C178.763 370.904 179.003 370.568 179.307 370.296C179.627 370.008 179.987 369.792 180.387 369.648C180.803 369.488 181.235 369.408 181.683 369.408C182.339 369.408 182.939 369.608 183.483 370.008C184.027 370.408 184.427 370.904 184.683 371.496L183.075 372.336ZM190.381 381H188.461V369.72H190.381V381ZM189.421 364.104C189.789 364.104 190.109 364.24 190.381 364.512C190.653 364.784 190.789 365.104 190.789 365.472C190.789 365.856 190.653 366.184 190.381 366.456C190.109 366.712 189.789 366.84 189.421 366.84C189.053 366.84 188.733 366.712 188.461 366.456C188.189 366.184 188.053 365.856 188.053 365.472C188.053 365.104 188.189 364.784 188.461 364.512C188.733 364.24 189.053 364.104 189.421 364.104ZM199.782 371.184C199.222 371.184 198.718 371.296 198.27 371.52C197.822 371.744 197.438 372.048 197.118 372.432C196.798 372.8 196.55 373.232 196.374 373.728C196.198 374.208 196.11 374.712 196.11 375.24C196.11 375.784 196.19 376.32 196.35 376.848C196.51 377.36 196.742 377.816 197.046 378.216C197.366 378.616 197.758 378.936 198.222 379.176C198.686 379.416 199.214 379.536 199.806 379.536C200.43 379.536 200.974 379.424 201.438 379.2C201.902 378.96 202.294 378.648 202.614 378.264C202.934 377.864 203.174 377.408 203.334 376.896C203.494 376.384 203.574 375.84 203.574 375.264C203.574 374.704 203.486 374.176 203.31 373.68C203.134 373.184 202.886 372.752 202.566 372.384C202.246 372.016 201.846 371.728 201.366 371.52C200.902 371.296 200.374 371.184 199.782 371.184ZM194.286 361.2H196.206V371.328H196.254C196.718 370.72 197.286 370.248 197.958 369.912C198.63 369.576 199.35 369.408 200.118 369.408C200.966 369.408 201.718 369.568 202.374 369.888C203.046 370.208 203.614 370.64 204.078 371.184C204.558 371.728 204.918 372.36 205.158 373.08C205.414 373.8 205.542 374.56 205.542 375.36C205.542 376.144 205.414 376.896 205.158 377.616C204.918 378.336 204.558 378.968 204.078 379.512C203.614 380.056 203.046 380.496 202.374 380.832C201.718 381.152 200.974 381.312 200.142 381.312C199.358 381.312 198.63 381.152 197.958 380.832C197.286 380.512 196.718 380.048 196.254 379.44H196.206V381H194.286V361.2ZM210.105 381H208.185V361.2H210.105V381ZM214.631 375.768C214.631 376.296 214.719 376.792 214.895 377.256C215.087 377.704 215.343 378.096 215.663 378.432C215.999 378.768 216.391 379.04 216.839 379.248C217.287 379.44 217.783 379.536 218.327 379.536C219.143 379.536 219.823 379.32 220.367 378.888C220.927 378.44 221.391 377.88 221.759 377.208L223.391 378.144C222.847 379.152 222.127 379.936 221.231 380.496C220.351 381.04 219.335 381.312 218.183 381.312C217.351 381.312 216.591 381.16 215.903 380.856C215.231 380.552 214.655 380.144 214.175 379.632C213.695 379.104 213.319 378.488 213.047 377.784C212.791 377.08 212.663 376.32 212.663 375.504C212.663 374.672 212.783 373.888 213.023 373.152C213.263 372.4 213.615 371.752 214.079 371.208C214.543 370.648 215.111 370.208 215.783 369.888C216.471 369.568 217.255 369.408 218.135 369.408C219.047 369.408 219.847 369.584 220.535 369.936C221.223 370.272 221.791 370.736 222.239 371.328C222.703 371.92 223.039 372.6 223.247 373.368C223.455 374.12 223.535 374.92 223.487 375.768H214.631ZM221.471 374.136C221.407 373.72 221.271 373.336 221.063 372.984C220.871 372.632 220.631 372.32 220.343 372.048C220.055 371.776 219.719 371.568 219.335 371.424C218.967 371.264 218.575 371.184 218.159 371.184C217.743 371.184 217.343 371.264 216.959 371.424C216.575 371.568 216.223 371.776 215.903 372.048C215.599 372.32 215.343 372.632 215.135 372.984C214.927 373.336 214.791 373.72 214.727 374.136H221.471Z" fill="black"/>
<g clip-path="url(#clip0_199_337)">
<path d="M291.042 232.962L302.886 234.814C306.895 229.958 309.658 224.197 310.936 218.031C302.276 225.122 289.107 221.354 278.606 225.225C275.34 226.458 272.393 228.41 269.984 230.936C267.575 233.463 265.765 236.5 264.688 239.821L258.9 246.05C264.14 248.125 269.766 249.039 275.393 248.729C281.019 248.419 286.511 246.893 291.491 244.255C294.27 242.748 296.848 240.897 299.165 238.745C295.021 236.134 291.042 232.962 291.042 232.962Z" fill="#F2F2F2"/>
<path d="M286.838 214.015L298.263 210.388C299.687 204.254 299.592 197.864 297.987 191.775C293.397 201.986 279.93 204.488 272.257 212.638C269.884 215.198 268.116 218.26 267.086 221.596C266.056 224.932 265.79 228.458 266.308 231.911L263.904 240.069C269.519 239.588 274.962 237.896 279.86 235.109C284.758 232.321 288.993 228.505 292.274 223.922C294.09 221.333 295.572 218.526 296.686 215.566C291.813 215.079 286.838 214.015 286.838 214.015Z" fill="#F2F2F2"/>
<path d="M311 249.824C311 249.885 310.988 249.946 310.965 250.002C310.942 250.059 310.907 250.11 310.864 250.153C310.821 250.196 310.77 250.231 310.713 250.254C310.657 250.277 310.596 250.289 310.535 250.289H47.465C47.3416 250.289 47.2234 250.24 47.1362 250.153C47.049 250.066 47 249.947 47 249.824C47 249.701 47.049 249.582 47.1362 249.495C47.2234 249.408 47.3416 249.359 47.465 249.359H310.535C310.596 249.359 310.657 249.371 310.713 249.394C310.77 249.417 310.821 249.451 310.864 249.495C310.907 249.538 310.942 249.589 310.965 249.646C310.988 249.702 311 249.763 311 249.824Z" fill="#CCCCCC"/>
<path d="M156.011 229.995C202.406 229.995 240.017 192.372 240.017 145.961C240.017 99.5503 202.406 61.927 156.011 61.927C109.616 61.927 72.0059 99.5503 72.0059 145.961C72.0059 192.372 109.616 229.995 156.011 229.995Z" fill="#E6E6E6"/>
<path d="M228.295 145.961C228.304 157.244 225.669 168.371 220.602 178.452C215.536 188.532 208.178 197.284 199.12 204.007C198.514 204.46 197.897 204.902 197.276 205.332C185.162 213.755 170.763 218.269 156.011 218.269C141.259 218.269 126.86 213.755 114.747 205.332C114.126 204.902 113.508 204.46 112.903 204.007C103.851 197.278 96.4978 188.525 91.4319 178.446C86.366 168.367 83.7275 157.242 83.7275 145.961C83.7275 134.68 86.366 123.555 91.4319 113.476C96.4978 103.397 103.851 94.6433 112.903 87.9149C113.508 87.4615 114.126 87.0198 114.747 86.5899C126.86 78.167 141.259 73.6526 156.011 73.6526C170.763 73.6526 185.162 78.167 197.276 86.5899C197.897 87.0198 198.514 87.4615 199.12 87.9149C208.178 94.6374 215.536 103.39 220.602 113.47C225.669 123.55 228.304 134.678 228.295 145.961Z" fill="white"/>
<path d="M156.011 212.015C192.479 212.015 222.043 182.442 222.043 145.961C222.043 109.48 192.479 79.9062 156.011 79.9062C119.542 79.9062 89.9785 109.48 89.9785 145.961C89.9785 182.442 119.542 212.015 156.011 212.015Z" fill="#FFA7AE"/>
<path opacity="0.2" d="M156.184 80.0909C155.183 80.0909 154.188 80.1171 153.198 80.1612C169.887 81.6283 185.395 89.3866 196.579 101.864C207.764 114.342 213.788 130.606 213.433 147.362C213.077 164.117 206.368 180.111 194.664 192.103C182.961 204.095 167.138 211.188 150.401 211.945C152.307 212.111 154.235 212.2 156.184 212.2C173.696 212.2 190.492 205.241 202.875 192.853C215.259 180.466 222.216 163.664 222.216 146.146C222.216 128.627 215.259 111.826 202.875 99.4379C190.492 87.0503 173.696 80.091 156.184 80.091V80.0909Z" fill="black"/>
<path d="M156.207 75.2161C155.637 75.2171 155.091 75.4439 154.688 75.8468C154.285 76.2497 154.059 76.7959 154.058 77.3658V86.7463C154.058 87.3164 154.284 87.8632 154.687 88.2664C155.09 88.6695 155.637 88.896 156.207 88.896C156.777 88.896 157.323 88.6695 157.726 88.2664C158.129 87.8632 158.356 87.3164 158.356 86.7463V77.3658C158.355 76.7959 158.128 76.2497 157.725 75.8468C157.322 75.4439 156.776 75.2171 156.207 75.2161Z" fill="white"/>
<path d="M199.119 87.9149C198.513 87.4615 197.896 87.0198 197.275 86.5899C196.902 86.5656 196.529 86.639 196.194 86.8028C195.858 86.9666 195.571 87.2152 195.36 87.524L190.082 95.2747C189.761 95.7458 189.64 96.3251 189.747 96.8851C189.853 97.4451 190.177 97.94 190.648 98.2608C191.119 98.5817 191.698 98.7022 192.258 98.5959C192.818 98.4896 193.313 98.1652 193.633 97.6941L198.912 89.9434C199.113 89.6494 199.237 89.3098 199.273 88.9555C199.309 88.6012 199.256 88.2435 199.119 87.9149Z" fill="white"/>
<path d="M223.102 123.256C222.996 122.995 222.839 122.757 222.641 122.556C222.443 122.355 222.207 122.196 221.948 122.086C221.688 121.976 221.409 121.919 221.127 121.917C220.845 121.916 220.565 121.969 220.304 122.076L211.615 125.605C211.087 125.82 210.666 126.236 210.445 126.761C210.224 127.286 210.22 127.877 210.434 128.405C210.649 128.933 211.064 129.354 211.588 129.576C212.113 129.797 212.704 129.802 213.232 129.588L221.922 126.059C222.449 125.842 222.869 125.426 223.09 124.901C223.312 124.376 223.316 123.784 223.102 123.256Z" fill="white"/>
<path d="M121.94 95.2748L116.661 87.5241C116.451 87.2153 116.164 86.9667 115.828 86.8029C115.492 86.6391 115.119 86.5657 114.747 86.59C114.125 87.0199 113.508 87.4616 112.902 87.915C112.765 88.2436 112.712 88.6013 112.748 88.9556C112.785 89.3099 112.909 89.6495 113.11 89.9435L118.388 97.6942C118.709 98.1653 119.204 98.4897 119.763 98.596C120.323 98.7023 120.902 98.5818 121.373 98.2609C121.844 97.9401 122.169 97.4453 122.275 96.8853C122.381 96.3252 122.261 95.746 121.94 95.2748Z" fill="white"/>
<path d="M100.407 125.605L91.7169 122.076C91.189 121.861 90.5975 121.865 90.0726 122.087C89.5477 122.309 89.1323 122.73 88.9178 123.258C88.7033 123.786 88.7073 124.378 88.9289 124.903C89.1505 125.428 89.5715 125.844 90.0994 126.058L98.789 129.588C99.3169 129.802 99.9081 129.797 100.433 129.576C100.957 129.354 101.372 128.933 101.587 128.405C101.801 127.877 101.797 127.286 101.576 126.761C101.355 126.236 100.934 125.82 100.407 125.605V125.605Z" fill="white"/>
<path d="M156.207 203.026C155.637 203.027 155.091 203.254 154.688 203.657C154.285 204.06 154.059 204.606 154.058 205.176V214.556C154.058 215.126 154.284 215.673 154.687 216.076C155.09 216.479 155.637 216.706 156.207 216.706C156.777 216.706 157.323 216.479 157.726 216.076C158.129 215.673 158.356 215.126 158.356 214.556V205.176C158.355 204.606 158.128 204.06 157.725 203.657C157.322 203.254 156.776 203.027 156.207 203.026Z" fill="white"/>
<path d="M198.912 201.978L193.633 194.228C193.475 193.994 193.271 193.795 193.035 193.64C192.799 193.485 192.535 193.378 192.258 193.326C191.981 193.273 191.696 193.276 191.42 193.333C191.144 193.391 190.881 193.502 190.648 193.661C190.415 193.82 190.215 194.023 190.061 194.259C189.906 194.495 189.799 194.759 189.747 195.037C189.694 195.314 189.697 195.599 189.754 195.875C189.812 196.151 189.923 196.414 190.082 196.647L195.36 204.398C195.571 204.707 195.858 204.955 196.194 205.119C196.529 205.283 196.902 205.356 197.275 205.332C197.896 204.902 198.513 204.46 199.119 204.007C199.256 203.678 199.309 203.321 199.273 202.966C199.237 202.612 199.113 202.272 198.912 201.978Z" fill="white"/>
<path d="M221.922 165.863L213.233 162.334C212.705 162.119 212.113 162.123 211.588 162.345C211.063 162.567 210.648 162.988 210.433 163.516C210.219 164.044 210.223 164.636 210.445 165.161C210.666 165.686 211.087 166.102 211.615 166.317L220.305 169.846C220.833 170.06 221.424 170.056 221.948 169.834C222.473 169.612 222.888 169.191 223.102 168.663C223.317 168.135 223.313 167.544 223.092 167.019C222.87 166.494 222.45 166.078 221.922 165.863V165.863Z" fill="white"/>
<path d="M121.373 193.661C120.902 193.34 120.323 193.22 119.763 193.326C119.204 193.432 118.709 193.757 118.388 194.228L113.11 201.978C112.909 202.272 112.785 202.612 112.748 202.966C112.712 203.321 112.765 203.678 112.902 204.007C113.508 204.46 114.125 204.902 114.747 205.332C115.119 205.356 115.492 205.283 115.828 205.119C116.164 204.955 116.451 204.707 116.661 204.398L121.94 196.647C122.099 196.414 122.21 196.151 122.268 195.875C122.325 195.599 122.327 195.314 122.275 195.037C122.222 194.759 122.116 194.495 121.961 194.259C121.806 194.023 121.607 193.82 121.373 193.661Z" fill="white"/>
<path d="M101.587 163.514C101.481 163.253 101.324 163.015 101.126 162.814C100.928 162.614 100.693 162.454 100.433 162.344C100.173 162.235 99.8942 162.177 99.6122 162.175C99.3303 162.174 99.0507 162.228 98.7896 162.334L90.0999 165.863C89.5724 166.078 89.1518 166.494 88.9305 167.019C88.7092 167.544 88.7054 168.135 88.9197 168.663C89.1341 169.191 89.5492 169.612 90.0738 169.834C90.5984 170.056 91.1896 170.06 91.7175 169.846L100.407 166.317C100.934 166.101 101.355 165.684 101.576 165.159C101.797 164.634 101.801 164.043 101.587 163.514Z" fill="white"/>
<path d="M158.994 144.894C159.193 146.069 158.917 147.275 158.228 148.247C157.539 149.219 156.492 149.878 155.318 150.079L117.184 156.568C116.603 156.667 116.007 156.65 115.432 156.519C114.856 156.388 114.313 156.144 113.831 155.803C113.35 155.462 112.941 155.029 112.627 154.529C112.313 154.029 112.1 153.472 112.001 152.89C111.902 152.309 111.919 151.713 112.05 151.137C112.181 150.562 112.424 150.018 112.766 149.536C113.107 149.055 113.54 148.645 114.04 148.331C114.539 148.017 115.096 147.804 115.677 147.706L153.811 141.217C154.986 141.018 156.191 141.294 157.163 141.983C158.135 142.673 158.793 143.72 158.994 144.894Z" fill="#3F3D56"/>
<path d="M199.13 187.158C198.582 187.709 197.838 188.02 197.061 188.023C196.284 188.026 195.538 187.721 194.985 187.174L153.935 146.432C153.384 145.884 153.073 145.14 153.07 144.363C153.068 143.586 153.373 142.84 153.92 142.288C154.468 141.736 155.211 141.425 155.988 141.421C156.765 141.418 157.511 141.723 158.063 142.27L199.113 183.012C199.664 183.56 199.975 184.304 199.978 185.082C199.982 185.859 199.676 186.605 199.13 187.158Z" fill="#3F3D56"/>
<path d="M156.011 151.042C158.816 151.042 161.09 148.767 161.09 145.961C161.09 143.155 158.816 140.88 156.011 140.88C153.206 140.88 150.932 143.155 150.932 145.961C150.932 148.767 153.206 151.042 156.011 151.042Z" fill="#CCCCCC"/>
<path d="M121.024 57.8537C113.227 70.1158 101.331 78.2535 86.6602 83.5995C86.3703 83.8167 86.0405 83.9747 85.6895 84.0644C85.3386 84.1541 84.9735 84.1737 84.6149 84.1222C84.2564 84.0708 83.9115 83.9492 83.6 83.7644C83.2885 83.5795 83.0164 83.3352 82.7992 83.0452C74.8301 72.4012 76.6295 57.1888 87.1471 49.0556C89.6899 47.0927 92.5972 45.6546 95.7001 44.8248C98.803 43.995 102.04 43.7901 105.223 44.2219C108.405 44.6537 111.471 45.7137 114.241 47.3402C117.01 48.9668 119.43 51.1275 121.358 53.6971L121.578 53.9915C121.796 54.2815 121.953 54.6114 122.043 54.9624C122.133 55.3135 122.152 55.6788 122.101 56.0374C122.049 56.3961 121.928 56.741 121.743 57.0527C121.558 57.3643 121.314 57.6365 121.024 57.8537Z" fill="#E6E6E6"/>
<path d="M190.664 53.6971C192.592 51.1275 195.011 48.9668 197.781 47.3402C200.551 45.7137 203.616 44.6537 206.799 44.2219C209.982 43.7901 213.218 43.995 216.321 44.8248C219.424 45.6546 222.332 47.0927 224.874 49.0556C235.392 57.1888 237.191 72.4012 229.222 83.0452C229.005 83.3352 228.733 83.5795 228.422 83.7643C228.11 83.9492 227.765 84.0708 227.407 84.1222C227.048 84.1737 226.683 84.1541 226.332 84.0644C225.981 83.9747 225.651 83.8167 225.361 83.5995C211.742 78.3834 200.573 69.357 190.997 57.8537C190.412 57.4151 190.025 56.7617 189.921 56.0374C189.817 55.3131 190.005 54.5771 190.443 53.9914L190.664 53.6971Z" fill="#E6E6E6"/>
<path d="M187.247 218.765C186.75 219.044 186.384 219.509 186.229 220.057C186.075 220.605 186.143 221.193 186.421 221.691L198.823 243.861C199.101 244.358 199.566 244.725 200.114 244.88C200.663 245.034 201.25 244.965 201.748 244.687C202.245 244.408 202.611 243.944 202.766 243.395C202.921 242.847 202.852 242.259 202.574 241.761L190.171 219.591C189.892 219.094 189.428 218.728 188.88 218.573C188.331 218.419 187.744 218.487 187.247 218.765Z" fill="#E6E6E6"/>
<path d="M121.851 219.591L109.448 241.761C109.17 242.259 109.101 242.847 109.256 243.395C109.411 243.944 109.777 244.408 110.274 244.687C110.772 244.965 111.359 245.034 111.908 244.88C112.456 244.725 112.92 244.358 113.199 243.861L125.601 221.691C125.739 221.444 125.827 221.173 125.86 220.893C125.893 220.612 125.871 220.328 125.794 220.056C125.718 219.785 125.588 219.531 125.413 219.309C125.239 219.087 125.022 218.902 124.776 218.764C124.529 218.627 124.258 218.539 123.978 218.506C123.698 218.472 123.413 218.495 123.142 218.572C122.87 218.648 122.616 218.778 122.395 218.953C122.173 219.128 121.988 219.345 121.851 219.591H121.851Z" fill="#E6E6E6"/>
<path d="M201.335 249.538C205.003 249.538 207.977 246.563 207.977 242.893C207.977 239.223 205.003 236.249 201.335 236.249C197.666 236.249 194.692 239.223 194.692 242.893C194.692 246.563 197.666 249.538 201.335 249.538Z" fill="#E6E6E6"/>
<path d="M206.023 79.5154C209.692 79.5154 212.665 76.5405 212.665 72.8709C212.665 69.2012 209.692 66.2263 206.023 66.2263C202.355 66.2263 199.381 69.2012 199.381 72.8709C199.381 76.5405 202.355 79.5154 206.023 79.5154Z" fill="#E6E6E6"/>
<path d="M155.62 63.8813C159.288 63.8813 162.262 60.9064 162.262 57.2367C162.262 53.567 159.288 50.5922 155.62 50.5922C151.951 50.5922 148.978 53.567 148.978 57.2367C148.978 60.9064 151.951 63.8813 155.62 63.8813Z" fill="#E6E6E6"/>
<path d="M107.561 78.7338C111.23 78.7338 114.204 75.7589 114.204 72.0893C114.204 68.4196 111.23 65.4447 107.561 65.4447C103.893 65.4447 100.919 68.4196 100.919 72.0893C100.919 75.7589 103.893 78.7338 107.561 78.7338Z" fill="#E6E6E6"/>
<path d="M111.859 249.538C115.528 249.538 118.501 246.563 118.501 242.893C118.501 239.223 115.528 236.249 111.859 236.249C108.191 236.249 105.217 239.223 105.217 242.893C105.217 246.563 108.191 249.538 111.859 249.538Z" fill="#E6E6E6"/>
<path d="M196.125 183.421C196.386 183.831 196.735 184.179 197.146 184.439C197.556 184.7 198.019 184.868 198.502 184.93C198.984 184.993 199.474 184.949 199.938 184.801C200.401 184.654 200.827 184.406 201.185 184.076L211.607 189.663L211.048 183.542L201.236 179.175C200.643 178.611 199.863 178.284 199.044 178.257C198.225 178.229 197.425 178.503 196.795 179.027C196.165 179.55 195.749 180.286 195.625 181.096C195.502 181.906 195.679 182.733 196.125 183.421H196.125Z" fill="#FFE4BB"/>
<path d="M203.719 185.557L207.803 179.917L227.48 189.222L251.965 184.626C253.176 184.399 254.421 184.441 255.613 184.75C256.806 185.058 257.915 185.626 258.864 186.411C259.812 187.197 260.576 188.182 261.101 189.296C261.626 190.411 261.899 191.627 261.902 192.859C261.903 195.084 261.023 197.218 259.453 198.795C257.883 200.371 255.752 201.26 253.528 201.266L225.468 201.318L203.719 185.557Z" fill="#3F3D56"/>
<path d="M197.428 282.969L193.295 280.992L198.972 263.713L205.071 266.631L197.428 282.969Z" fill="#FFE4BB"/>
<path d="M225.132 280.183C224.832 280.371 224.531 280.557 224.228 280.742C223.624 281.112 223.014 281.477 222.403 281.835C222.097 282.014 221.787 282.193 221.481 282.369V282.379L221.462 282.382L221.456 282.385L220.989 282.5L220.318 280.727L220.008 279.91L219.571 278.753L218.77 276.637L214.551 265.493L221.11 263.874L221.356 264.879H221.359L221.481 265.377L223.772 274.675L224.24 276.576L224.255 276.634L224.537 277.769L224.78 278.753L225.05 279.852L225.132 280.183Z" fill="#FFE4BB"/>
<path d="M264.263 241.049C263.847 241.717 263.422 242.382 262.994 243.041C262.199 244.267 261.382 245.476 260.545 246.666C260.545 246.669 260.542 246.669 260.539 246.672C260.05 247.125 259.51 247.52 258.93 247.847C258.905 247.866 258.878 247.878 258.854 247.893C258.427 248.129 257.972 248.312 257.5 248.437C257.33 248.479 257.157 248.522 256.987 248.564C256.374 248.71 255.767 248.834 255.163 248.944C254.088 249.135 253.026 249.272 251.97 249.357C251.885 249.366 251.8 249.372 251.715 249.378C247.371 249.697 243.143 249.183 238.729 248.342C236.55 247.929 234.325 247.434 232.021 246.921C231.268 246.751 230.512 246.584 229.747 246.417C229.69 246.405 229.629 246.39 229.568 246.378C228.475 246.138 227.364 245.901 226.226 245.667C224.793 245.373 223.315 245.087 221.779 244.817L221.888 246.982C221.979 248.647 222.325 250.289 222.914 251.849C223.57 253.769 224.089 255.287 222.993 258.448L222.465 259.978C222.739 260.738 222.833 261.551 222.74 262.353C222.647 263.156 222.369 263.926 221.928 264.603L221.822 264.763L226.226 275.91L226.511 276.633H224.256L221.482 276.636H216.78L209.996 263.021L209.671 262.371V262.337L210.372 236.172C210.381 235.941 210.399 235.708 210.43 235.477C210.553 234.428 210.885 233.414 211.404 232.494C211.924 231.575 212.621 230.768 213.456 230.121C214.256 229.495 215.172 229.035 216.151 228.767C217.13 228.499 218.153 228.429 219.16 228.56L221.482 228.86L226.226 229.474L229.568 229.908L229.635 229.917L239.491 231.192L240.198 228.308L240.329 228.259L244.478 226.738L258.83 221.476L258.866 221.464L259.81 221.118L259.922 221.3C259.956 221.354 259.989 221.409 260.019 221.464C260.953 223.137 261.712 224.901 262.287 226.729C263.253 229.715 264.049 232.753 264.67 235.829C264.697 235.963 264.721 236.084 264.743 236.194L264.752 236.227C264.761 236.279 264.767 236.312 264.77 236.321C265.101 237.7 264.87 239.382 264.263 241.049Z" fill="#2F2E41"/>
<path d="M264.869 231.406C264.823 231.212 264.765 231.014 264.705 230.823C264.223 229.374 263.661 227.953 263.023 226.566C262.307 224.987 261.448 223.296 260.425 221.465C259.93 220.578 259.398 219.656 258.828 218.699C258.543 218.219 258.246 217.73 257.939 217.232C257.927 217.209 257.914 217.187 257.899 217.165L257.811 217.019L243.612 218.92L238.324 219.628L238.008 222.263L237.932 222.916C237.929 222.916 237.929 222.916 237.932 222.919L237.72 224.699V224.702L237.438 227.052L237.413 227.049L229.567 226.032L221.48 224.984L217.137 224.422C216.13 224.291 215.107 224.361 214.128 224.629C213.149 224.897 212.233 225.358 211.433 225.983C210.599 226.63 209.901 227.437 209.382 228.357C208.862 229.276 208.531 230.29 208.407 231.339C208.379 231.552 208.361 231.771 208.352 231.986L204.254 241.7C201.802 247.509 200.241 253.655 199.622 259.931L196.617 269.541L197.045 269.58L203.413 270.173L205.095 270.33L208.798 264.923C209.22 264.306 209.621 263.671 209.994 263.022C210.609 261.96 211.155 260.861 211.63 259.73L219.641 240.661C220.26 240.768 220.873 240.869 221.48 240.965C224.288 241.42 226.984 241.792 229.567 242.079C237.966 243.018 245.239 243.09 251.713 242.295C253.531 242.073 255.289 241.782 256.986 241.42C257.608 241.29 258.222 241.149 258.828 240.998C258.971 240.965 259.11 240.932 259.25 240.895C260.505 240.571 261.658 239.938 262.604 239.053C263.551 238.169 264.261 237.06 264.668 235.83C265.155 234.405 265.225 232.87 264.869 231.406Z" fill="#2F2E41"/>
<path d="M198.748 280.147L194.277 278.004L193.576 277.667L192.456 280.418L184.637 282.139C184.25 282.224 183.901 282.43 183.64 282.728C183.379 283.025 183.219 283.399 183.186 283.793C183.152 284.188 183.245 284.583 183.451 284.92C183.658 285.258 183.967 285.521 184.333 285.671L191.973 288.789L194.399 286.606L193.804 289.536L196.681 290.711L199.835 280.67L198.748 280.147Z" fill="#2F2E41"/>
<path d="M226.226 275.91L226.511 276.633H226.226V275.91Z" fill="#2F2E41"/>
<path d="M224.669 276.787L219.984 278.411L219.249 278.665L220.388 281.408L216.043 288.135C215.828 288.468 215.725 288.86 215.748 289.256C215.772 289.651 215.922 290.028 216.175 290.332C216.428 290.636 216.772 290.851 217.157 290.946C217.541 291.041 217.946 291.01 218.311 290.858L225.934 287.697L226.121 284.438L227.76 286.939L230.631 285.749L225.809 276.394L224.669 276.787Z" fill="#2F2E41"/>
<path d="M263.701 235.805C263.422 235.805 263.148 235.737 262.902 235.607L238.179 222.685L237.894 221.515L237.355 217.813L237.363 217.778L239.714 206.934C239.671 206.841 239.581 206.689 239.479 206.516C238.43 204.737 235.235 199.322 241.332 191.867L252.036 179.383L261.223 178.987L261.327 179.119C263.784 182.204 265.441 185.847 266.15 189.727C266.86 193.606 266.6 197.6 265.395 201.355L264.438 218.637L265.464 222.127C266.064 224.178 265.965 226.371 265.182 228.359L265.418 234.011C265.427 234.242 265.389 234.473 265.307 234.69C265.225 234.907 265.1 235.105 264.94 235.273C264.78 235.44 264.587 235.574 264.374 235.665C264.161 235.757 263.932 235.804 263.701 235.805L263.701 235.805Z" fill="#3F3D56"/>
<path d="M242.255 250.058C242.674 249.811 243.033 249.474 243.308 249.073C243.583 248.671 243.767 248.214 243.846 247.734C243.925 247.254 243.898 246.763 243.767 246.294C243.635 245.825 243.403 245.391 243.086 245.022L249.03 234.797L242.895 235.143L238.191 244.8C237.607 245.374 237.253 246.143 237.197 246.96C237.141 247.777 237.387 248.587 237.888 249.235C238.389 249.883 239.111 250.325 239.915 250.477C240.72 250.628 241.553 250.48 242.255 250.058L242.255 250.058Z" fill="#FFE4BB"/>
<path d="M244.654 242.54L239.161 238.261L249.142 218.913L245.402 194.274C245.217 193.056 245.303 191.813 245.652 190.631C246.002 189.45 246.607 188.361 247.425 187.44C248.243 186.519 249.254 185.79 250.385 185.304C251.517 184.817 252.741 184.586 253.972 184.627C256.195 184.703 258.297 185.657 259.817 187.282C261.337 188.906 262.151 191.067 262.08 193.291L261.156 221.345L244.654 242.54Z" fill="#3F3D56"/>
<path d="M246.143 174.196V165.102C246.141 161.87 247.422 158.77 249.705 156.483C251.988 154.196 255.086 152.91 258.316 152.908C261.547 152.906 264.646 154.188 266.932 156.472C269.218 158.756 270.504 161.854 270.506 165.086V165.102C272.653 169.577 271.31 171.705 270.506 174.196C270.505 174.629 270.332 175.045 270.026 175.352C269.719 175.659 269.304 175.831 268.87 175.832H247.779C247.345 175.831 246.929 175.659 246.623 175.352C246.316 175.045 246.143 174.63 246.143 174.196Z" fill="#2F2E41"/>
<path d="M254.33 175.241C259.366 175.241 263.449 171.157 263.449 166.119C263.449 161.082 259.366 156.998 254.33 156.998C249.294 156.998 245.212 161.082 245.212 166.119C245.212 171.157 249.294 175.241 254.33 175.241Z" fill="#FFE4BB"/>
<path d="M263.873 168.511C263.79 168.498 263.707 168.48 263.625 168.467C262.202 168.215 260.78 167.967 259.362 167.71L259.232 164.495L257.514 167.375C253.595 168.676 249.928 167.941 246.479 166.318C245.341 165.777 244.237 165.169 243.173 164.495C243.463 162.716 244.146 161.025 245.173 159.545C246.201 158.065 247.546 156.833 249.11 155.94C249.241 155.866 249.367 155.801 249.497 155.736C249.498 155.736 249.498 155.736 249.499 155.735C249.499 155.735 249.5 155.735 249.5 155.735C249.501 155.734 249.501 155.734 249.501 155.733C249.501 155.733 249.502 155.732 249.502 155.731C249.723 155.627 249.95 155.527 250.176 155.436C251.947 154.743 253.877 154.568 255.744 154.93C257.61 155.292 259.335 156.176 260.719 157.481C263.503 160.139 264.756 164.529 263.873 168.511Z" fill="#2F2E41"/>
</g>
<defs>
<clipPath id="clip0_199_337">
<rect width="264" height="247" fill="white" transform="translate(47 44)"/>
</clipPath>
</defs>
</svg>
